<svg width="451" height="317" viewBox="0 0 451 317" fill="none" xmlns="http://www.w3.org/2000/svg">
<path d="M345.629 24.1565L341.125 42.8568L285.533 0L345.629 24.1565Z" fill="#E99918"/>
<path d="M363.874 16.7708L345.629 24.1565L285.533 0L363.874 16.7708Z" fill="#FFAF2F"/>
<path d="M339.241 26.4366L285.533 0L320.023 34.2653L339.241 26.4366Z" fill="#FFAF2F"/>
<path d="M341.126 42.8567L339.242 26.4365L326.512 31.628L341.126 42.8567Z" fill="#FFBA4D"/>
<path d="M344.956 45.0448C345.194 45.2448 345.431 45.4455 345.668 45.6468" stroke="#FFAF2F" stroke-width="0.3528" stroke-miterlimit="10"/>
<path d="M347.086 46.8621C358.459 56.7053 368.82 67.767 381.068 76.4932C394.075 85.7606 410.015 92.3554 425.808 89.9752C431.397 89.1328 437.1 86.9753 440.579 82.5214C446.262 75.245 443.182 63.0265 434.837 59.0749C426.493 55.1232 415.275 60.2141 412.496 69.0183C411.504 72.1613 411.466 75.5352 411.827 78.8109C412.642 86.2084 415.479 93.3733 419.949 99.3235C424.569 105.474 430.822 110.267 435.311 116.514C442.19 126.087 444.335 138.162 446.297 149.785C448.24 161.29 450.189 172.893 449.913 184.544" stroke="#FFAF2F" stroke-width="0.3528" stroke-miterlimit="10" stroke-dasharray="1.52 1.52"/>
<path d="M449.885 185.477C449.875 185.787 449.863 186.097 449.849 186.408" stroke="#FFAF2F" stroke-width="0.3528" stroke-miterlimit="10"/>
<path d="M429.146 177.491C429.146 177.491 411.253 62.0308 298.491 55.5915C193.453 49.5935 88.0614 85.5969 36.837 156.747C-1.22611 209.616 -25.2049 325.129 88.0888 312.421C201.382 299.712 272.865 296.127 328.163 313.431C383.462 330.733 450.618 285.087 429.146 177.491V177.491Z" fill="#E6E7E8"/>
<path d="M267.886 249.388H238.648H209.409C209.409 249.388 211.575 301.909 183.961 301.909H238.648H293.335C265.72 301.909 267.886 249.388 267.886 249.388Z" fill="#DADADF"/>
<path d="M209.366 256.429C209.366 256.429 242.73 272.25 269.699 272.912C269.699 272.912 266.347 253.179 268.693 242.169L209.366 256.429V256.429Z" fill="black" fill-opacity="0.301961"/>
<path d="M366.973 79.1682V248.511C366.973 252.88 363.424 256.429 359.055 256.429H118.234C113.866 256.429 110.324 252.888 110.324 248.519V79.1602C110.324 74.791 113.866 71.25 118.234 71.25H359.055C363.424 71.25 366.973 74.7993 366.973 79.1682Z" fill="#DADADF"/>
<path d="M366.973 79.1682V227.19H110.324V79.1602C110.324 74.791 113.866 71.25 118.234 71.25H359.055C363.424 71.25 366.973 74.7993 366.973 79.1682Z" fill="#001F3F"/>
<path d="M357.66 219.731H119.64V80.203H357.66V219.731Z" fill="#E8F2FF"/>
<path d="M299.228 301.909H179.837V300.476C179.837 298.277 181.619 296.495 183.818 296.495H295.247C297.446 296.495 299.228 298.277 299.228 300.476V301.909V301.909Z" fill="#CFCFD3"/>
<path d="M246.841 242.169C246.841 246.206 243.568 249.479 239.531 249.479C235.494 249.479 232.222 246.206 232.222 242.169C232.222 238.132 235.494 234.859 239.531 234.859C243.568 234.859 246.841 238.132 246.841 242.169Z" fill="#F9F9F9"/>
<path d="M238.426 134.672L224.025 195.543H252.826L238.426 134.672Z" fill="white"/>
<path d="M146.675 219.74C146.675 219.834 146.675 219.935 146.668 220.029H119.64V202.886C122.136 201.656 124.937 200.969 127.904 200.969C128.649 200.969 129.38 201.012 130.096 201.099C139.431 202.177 146.675 210.108 146.675 219.74V219.74Z" fill="white"/>
<path d="M177.286 211.295C177.286 214.37 176.721 217.316 175.694 220.029H129.496C128.469 217.316 127.904 214.37 127.904 211.295C127.904 207.662 128.693 204.211 130.097 201.099C133.983 192.553 142.594 186.604 152.595 186.604C156.047 186.604 159.325 187.314 162.299 188.587C171.113 192.357 177.286 201.106 177.286 211.295V211.295Z" fill="white"/>
<path d="M206.643 203.537C206.643 209.877 204.255 215.658 200.325 220.029H163.586C159.65 215.658 157.262 209.877 157.262 203.537C157.262 197.922 159.136 192.733 162.298 188.587C166.814 182.668 173.934 178.847 181.952 178.847C189.934 178.847 197.026 182.632 201.534 188.5C204.74 192.661 206.643 197.878 206.643 203.537V203.537Z" fill="white"/>
<path d="M247.876 208.943C247.876 212.887 247.051 216.635 245.568 220.029H194.826C193.342 216.635 192.518 212.887 192.518 208.943C192.518 200.845 195.991 193.566 201.534 188.5C206.462 184.006 213.011 181.264 220.197 181.264C235.48 181.264 247.876 193.66 247.876 208.943V208.943Z" fill="white"/>
<path d="M330.623 219.74C330.623 219.834 330.623 219.935 330.63 220.029H357.658V202.887C355.162 201.656 352.361 200.969 349.394 200.969C348.649 200.969 347.918 201.013 347.202 201.099C337.867 202.177 330.623 210.108 330.623 219.74Z" fill="white"/>
<path d="M300.014 211.295C300.014 214.371 300.578 217.316 301.605 220.029H347.803C348.83 217.316 349.395 214.371 349.395 211.295C349.395 207.662 348.606 204.211 347.202 201.099C343.316 192.553 334.705 186.605 324.704 186.605C321.252 186.605 317.974 187.314 315 188.587C306.186 192.358 300.014 201.107 300.014 211.295V211.295Z" fill="white"/>
<path d="M270.656 203.538C270.656 209.877 273.044 215.658 276.974 220.029H313.713C317.65 215.658 320.038 209.877 320.038 203.538C320.038 197.922 318.163 192.734 315.001 188.587C310.485 182.668 303.365 178.847 295.347 178.847C287.365 178.847 280.273 182.632 275.765 188.5C272.56 192.661 270.656 197.879 270.656 203.538V203.538Z" fill="white"/>
<path d="M229.422 208.943C229.422 212.887 230.247 216.635 231.73 220.029H282.472C283.955 216.635 284.78 212.887 284.78 208.943C284.78 200.846 281.307 193.566 275.764 188.5C270.836 184.007 264.287 181.264 257.101 181.264C241.818 181.264 229.422 193.66 229.422 208.943V208.943Z" fill="white"/>
<path d="M272.417 115.5C271.917 115.277 271.398 115.074 270.869 114.88C271.094 112.8 271.263 110.759 271.378 108.758C271.38 108.722 271.382 108.687 271.384 108.651C271.413 108.138 271.439 107.628 271.461 107.121C271.465 107.042 271.468 106.963 271.471 106.883C271.491 106.412 271.508 105.943 271.521 105.476C271.524 105.392 271.527 105.307 271.529 105.223C271.542 104.75 271.552 104.279 271.559 103.811C271.561 103.743 271.562 103.676 271.563 103.608C271.57 103.09 271.574 102.574 271.574 102.062C271.574 102.051 271.574 102.04 271.574 102.029C271.574 100.404 271.538 98.8072 271.47 97.239C271.469 97.2132 271.468 97.1877 271.467 97.1619C271.446 96.6822 271.421 96.2054 271.394 95.7312C271.39 95.6618 271.386 95.5923 271.382 95.5229C271.356 95.0865 271.327 94.6524 271.297 94.2209C271.291 94.1428 271.285 94.0651 271.28 93.9877C271.248 93.5549 271.213 93.1243 271.177 92.6959C271.171 92.6312 271.166 92.5659 271.16 92.5013C271.119 92.0296 271.075 91.5604 271.027 91.0945C271.026 91.0805 271.025 91.0664 271.023 91.0524C270.871 89.5593 270.69 88.0945 270.481 86.6578C270.478 86.6415 270.476 86.6253 270.474 86.6091C270.408 86.1619 270.34 85.7182 270.27 85.2768C270.261 85.2179 270.251 85.1596 270.241 85.101C270.176 84.6971 270.109 84.2955 270.04 83.8964C270.028 83.8286 270.016 83.761 270.004 83.6932C269.934 83.2935 269.861 82.8957 269.787 82.5008C269.777 82.446 269.767 82.3912 269.756 82.3367C269.674 81.9058 269.59 81.4777 269.503 81.0522C269.501 81.0385 269.498 81.0245 269.495 81.0105C269.126 79.2046 268.715 77.4481 268.266 75.7406C268.256 75.7021 268.245 75.6636 268.235 75.625C268.135 75.2435 268.032 74.8644 267.928 74.488C267.914 74.4376 267.9 74.3877 267.886 74.3377C267.782 73.9644 267.676 73.5936 267.569 73.2251C267.556 73.184 267.545 73.1433 267.533 73.1025C266.926 71.0326 266.265 69.0394 265.561 67.1221C265.556 67.1071 265.551 67.0921 265.545 67.0775C265.411 66.7125 265.275 66.3504 265.138 65.9911C265.128 65.9647 265.118 65.9385 265.108 65.9124C264.971 65.555 264.833 65.2006 264.694 64.849C264.687 64.8324 264.681 64.8158 264.674 64.7993C264.365 64.0215 264.05 63.2552 263.728 62.5042C263.7 62.4385 263.67 62.3758 263.642 62.3102C262.446 59.5364 261.17 56.9435 259.851 54.5325C259.844 54.5201 259.838 54.5073 259.831 54.4949C257.405 50.0614 254.839 46.2394 252.379 43.0175C246.096 34.7862 240.508 30.4721 239.733 29.8928V29.8282C239.733 29.8282 239.732 29.8288 239.732 29.8291V29.8265C239.732 29.8265 239.713 29.8361 239.686 29.8594C239.657 29.8361 239.639 29.8265 239.639 29.8265V29.8922C239.082 30.3084 236.004 32.6835 231.967 37.0749C231.959 37.0838 231.951 37.0924 231.943 37.1014C231.727 37.3361 231.509 37.5769 231.288 37.8231C231.264 37.8508 231.239 37.8779 231.215 37.9056C231.006 38.139 230.794 38.3782 230.582 38.6222C230.544 38.6649 230.507 38.7076 230.469 38.7509C230.265 38.9853 230.06 39.2248 229.852 39.4685C229.804 39.5248 229.757 39.5812 229.709 39.6379C229.508 39.8749 229.306 40.1166 229.103 40.3622C229.047 40.4297 228.991 40.4972 228.935 40.5653C228.737 40.8064 228.538 41.0514 228.337 41.3008C228.275 41.3785 228.213 41.4565 228.15 41.5349C227.953 41.7814 227.756 42.0311 227.558 42.2852C227.491 42.3709 227.424 42.4573 227.358 42.5436C227.161 42.7974 226.964 43.0538 226.766 43.3153C226.697 43.4063 226.628 43.499 226.559 43.5911C226.361 43.8542 226.163 44.1198 225.965 44.3905C225.896 44.4841 225.827 44.5797 225.758 44.6743C225.559 44.9491 225.358 45.226 225.158 45.5088C225.09 45.604 225.022 45.7018 224.954 45.798C224.752 46.0859 224.549 46.3754 224.346 46.6713C224.283 46.7637 224.219 46.8582 224.156 46.9515C223.948 47.257 223.739 47.5644 223.531 47.8784C223.477 47.9603 223.423 48.0443 223.369 48.1268C223.151 48.4574 222.933 48.7903 222.716 49.1301C222.678 49.1896 222.64 49.2508 222.602 49.3107C222.369 49.6776 222.135 50.048 221.902 50.4257C221.895 50.4375 221.888 50.4497 221.881 50.4614C221.09 51.745 220.306 53.0871 219.536 54.4933H219.538C219.538 54.4939 219.538 54.4942 219.537 54.4949C219.188 55.1334 218.843 55.7816 218.503 56.4435C218.153 57.1149 217.812 57.8002 217.477 58.4994C217.16 59.1383 216.852 59.7909 216.554 60.453C216.242 61.1241 215.943 61.8095 215.645 62.5042C209.981 75.7279 206.176 93.067 208.482 114.707C208.174 114.813 207.867 114.919 207.569 115.034C180.441 125.5 191.406 176.516 191.406 176.516C196.543 159.7 209.322 154.987 215.28 153.686C216.626 153.392 217.623 153.273 218.109 153.227C218.111 153.233 218.113 153.238 218.115 153.243H218.114C218.143 153.318 218.174 153.393 218.203 153.467C218.498 154.235 218.803 155.006 219.113 155.78C219.251 156.127 219.392 156.475 219.534 156.823C219.785 157.442 220.042 158.064 220.303 158.687C220.415 158.954 220.523 159.22 220.636 159.487C220.944 160.215 221.258 160.947 221.579 161.681C221.579 161.681 221.578 161.681 221.578 161.681C221.654 161.857 221.735 162.034 221.812 162.209C221.875 162.353 221.939 162.497 222.003 162.641C222.427 163.601 222.86 164.564 223.308 165.532H223.308C223.308 165.533 223.309 165.533 223.309 165.534H239.888L240.492 178.801L241.045 165.534H256.059C257.988 161.346 259.709 157.264 261.239 153.28C261.833 153.352 262.726 153.489 263.839 153.742C269.9 155.122 282.394 159.933 287.461 176.516C287.461 176.516 298.123 126.922 272.417 115.5V115.5Z" fill="black" fill-opacity="0.101961"/>
<path d="M240.496 178.846L240.494 178.801L240.492 178.846H240.496Z" fill="black" fill-opacity="0.101961"/>
<path d="M285.361 174.651C280.293 158.068 267.799 153.257 261.739 151.877C259.65 151.402 258.326 151.336 258.326 151.336V111.304C263.007 111.304 266.97 112.143 270.317 113.635C296.023 125.057 285.361 174.651 285.361 174.651Z" fill="#FFAF2F"/>
<path d="M270.196 122.227C269.683 124.992 268.54 127.598 267.655 130.269C265.305 137.36 264.694 145.108 261.739 151.877C259.65 151.402 258.326 151.336 258.326 151.336V111.304C263.007 111.304 266.97 112.143 270.317 113.635C270.815 116.707 270.601 120.022 270.196 122.227Z" fill="#FFAF2F" fill-opacity="0.501961"/>
<path d="M216.341 111.304V151.336C216.341 151.336 215.124 151.397 213.18 151.821C207.222 153.122 194.444 157.835 189.306 174.651C189.306 174.651 178.341 123.635 205.469 113.169C208.57 111.971 212.169 111.304 216.341 111.304V111.304Z" fill="#FFAF2F"/>
<path d="M216.34 111.304V151.336C216.34 151.336 215.124 151.397 213.18 151.821C212.942 150.973 212.741 150.11 212.532 149.257C211.007 142.973 209.031 136.805 207.543 130.511C206.807 127.407 206.196 124.264 205.818 121.09C205.506 118.446 205.665 115.798 205.469 113.169C208.569 111.971 212.168 111.304 216.34 111.304V111.304Z" fill="#FFAF2F" fill-opacity="0.501961"/>
<path d="M259.154 151.38C257.62 155.376 255.895 159.469 253.96 163.669H221.21C220.613 162.378 220.035 161.091 219.48 159.818C218.231 156.956 217.079 154.145 216.017 151.38C200.525 110.97 204.847 80.9518 213.546 60.6396C213.844 59.9449 214.143 59.2596 214.455 58.5885C214.753 57.9263 215.061 57.2737 215.378 56.6348C215.713 55.9357 216.054 55.2503 216.403 54.5789C216.744 53.917 217.089 53.2689 217.438 52.6303C225.713 37.5115 235.625 29.4975 237.364 28.1642C237.438 28.1082 237.499 28.0617 237.541 28.0289V27.9639C237.541 27.9639 237.56 27.9732 237.588 27.9964C237.616 27.9732 237.634 27.9639 237.634 27.9639V28.0289C238.706 28.8309 249.107 36.8682 257.732 52.6303C258.082 53.2689 258.427 53.917 258.767 54.5789C259.116 55.2503 259.461 55.9357 259.797 56.6348C260.11 57.2737 260.417 57.9263 260.716 58.5885C261.028 59.2596 261.331 59.9449 261.629 60.6396C270.329 80.947 274.645 110.966 259.154 151.38V151.38Z" fill="#F2F2F2"/>
<path d="M257.732 52.6287H217.438C226.068 36.8665 236.469 28.8292 237.541 28.0275V27.9623C237.541 27.9623 237.56 27.9715 237.588 27.9948C237.616 27.9715 237.634 27.9623 237.634 27.9623V28.0275C238.707 28.8292 249.107 36.8665 257.732 52.6287V52.6287Z" fill="#0D63A5"/>
<path d="M259.154 151.379C257.62 155.374 255.895 159.467 253.96 163.668H221.21C219.275 159.472 217.55 155.374 216.017 151.379H259.154Z" fill="#0D63A5"/>
<path d="M252.263 93.41C252.263 101.517 245.691 108.089 237.584 108.089C229.477 108.089 222.905 101.517 222.905 93.41C222.905 85.3029 229.477 78.7311 237.584 78.7311C245.691 78.7311 252.263 85.3029 252.263 93.41Z" fill="#FFAF2F"/>
<path d="M250.37 93.412C250.37 99.8176 245.638 105.137 239.484 106.051C238.864 106.148 238.23 106.195 237.587 106.195C236.687 106.195 235.806 106.102 234.957 105.92C234.58 105.846 234.211 105.747 233.848 105.64C231.447 104.904 229.344 103.477 227.773 101.594C225.918 99.3746 224.799 96.5215 224.799 93.412C224.799 86.5869 230.174 80.9969 236.906 80.6427C237.13 80.6287 237.358 80.6243 237.587 80.6243C239.922 80.6243 242.118 81.2536 244.001 82.3585C244.332 82.5448 244.654 82.7547 244.962 82.9783C246.202 83.8548 247.284 84.9456 248.136 86.2043C249.545 88.2558 250.37 90.7407 250.37 93.412V93.412Z" fill="#E8F2FF"/>
<path d="M244.001 82.3582L233.847 105.64C231.446 104.903 229.343 103.477 227.772 101.593L236.905 80.6425C237.129 80.6285 237.357 80.624 237.586 80.624C239.922 80.624 242.117 81.2534 244.001 82.3582V82.3582Z" fill="white" fill-opacity="0.501961"/>
<path d="M248.136 86.2043L239.484 106.051C238.864 106.148 238.23 106.195 237.586 106.195C236.686 106.195 235.805 106.102 234.957 105.92L244.961 82.9783C246.202 83.8548 247.283 84.9456 248.136 86.2043V86.2043Z" fill="white" fill-opacity="0.501961"/>
<path d="M259.798 56.6345H215.379C215.715 55.9354 216.055 55.25 216.404 54.5786H258.768C259.118 55.25 259.463 55.9354 259.798 56.6345Z" fill="#0D63A5"/>
<path d="M261.631 60.6397H213.547C213.845 59.9451 214.144 59.2597 214.456 58.5886H260.717C261.029 59.2597 261.332 59.9451 261.631 60.6397Z" fill="#0D63A5"/>
<path d="M238.393 176.982H238.397L235.891 122.001C235.829 120.635 236.92 119.493 238.288 119.493C239.652 119.493 240.741 120.629 240.685 121.992L238.393 176.982Z" fill="#FFAF2F"/>
<path d="M219.365 65.861C219.365 66.9885 218.451 67.9026 217.324 67.9026C216.196 67.9026 215.282 66.9885 215.282 65.861C215.282 64.7335 216.196 63.8195 217.324 63.8195C218.451 63.8195 219.365 64.7335 219.365 65.861Z" fill="#D8D8D8"/>
<path d="M217.325 66.9701C216.714 66.9701 216.216 66.4726 216.216 65.861C216.216 65.2495 216.714 64.7517 217.325 64.7517C217.936 64.7517 218.434 65.2495 218.434 65.861C218.434 66.4726 217.936 66.9701 217.325 66.9701Z" fill="#BCBCBC"/>
<path d="M227.43 65.8609C227.43 66.9884 226.516 67.9025 225.389 67.9025C224.261 67.9025 223.348 66.9884 223.348 65.8609C223.348 64.7334 224.261 63.8193 225.389 63.8193C226.516 63.8193 227.43 64.7334 227.43 65.8609Z" fill="#D8D8D8"/>
<path d="M225.39 66.9701C224.779 66.9701 224.281 66.4726 224.281 65.861C224.281 65.2495 224.779 64.7517 225.39 64.7517C226.001 64.7517 226.499 65.2495 226.499 65.861C226.499 66.4726 226.001 66.9701 225.39 66.9701Z" fill="#BCBCBC"/>
<path d="M235.499 65.861C235.499 66.9885 234.585 67.9026 233.457 67.9026C232.33 67.9026 231.416 66.9885 231.416 65.861C231.416 64.7335 232.33 63.8195 233.457 63.8195C234.585 63.8195 235.499 64.7335 235.499 65.861Z" fill="#D8D8D8"/>
<path d="M233.459 66.9701C232.847 66.9701 232.35 66.4726 232.35 65.861C232.35 65.2495 232.847 64.7517 233.459 64.7517C234.07 64.7517 234.568 65.2495 234.568 65.861C234.568 66.4726 234.07 66.9701 233.459 66.9701Z" fill="#BCBCBC"/>
<path d="M243.564 65.8611C243.564 66.9886 242.65 67.9027 241.523 67.9027C240.396 67.9027 239.481 66.9886 239.481 65.8611C239.481 64.7337 240.396 63.8196 241.523 63.8196C242.65 63.8196 243.564 64.7337 243.564 65.8611Z" fill="#D8D8D8"/>
<path d="M241.524 66.9702C240.913 66.9702 240.415 66.4727 240.415 65.8612C240.415 65.2496 240.913 64.7518 241.524 64.7518C242.136 64.7518 242.633 65.2496 242.633 65.8612C242.633 66.4727 242.136 66.9702 241.524 66.9702Z" fill="#BCBCBC"/>
<path d="M251.628 65.861C251.628 66.9885 250.714 67.9026 249.586 67.9026C248.459 67.9026 247.545 66.9885 247.545 65.861C247.545 64.7335 248.459 63.8195 249.586 63.8195C250.714 63.8195 251.628 64.7335 251.628 65.861Z" fill="#D8D8D8"/>
<path d="M249.588 66.9701C248.976 66.9701 248.479 66.4726 248.479 65.861C248.479 65.2495 248.976 64.7517 249.588 64.7517C250.199 64.7517 250.697 65.2495 250.697 65.861C250.697 66.4726 250.199 66.9701 249.588 66.9701Z" fill="#BCBCBC"/>
<path d="M259.694 65.861C259.694 66.9885 258.78 67.9026 257.653 67.9026C256.525 67.9026 255.611 66.9885 255.611 65.861C255.611 64.7335 256.525 63.8195 257.653 63.8195C258.78 63.8195 259.694 64.7335 259.694 65.861Z" fill="#D8D8D8"/>
<path d="M257.654 66.9701C257.042 66.9701 256.545 66.4726 256.545 65.861C256.545 65.2495 257.042 64.7517 257.654 64.7517C258.265 64.7517 258.763 65.2495 258.763 65.861C258.763 66.4726 258.265 66.9701 257.654 66.9701Z" fill="#BCBCBC"/>
<path d="M259.154 151.379C257.62 155.374 255.895 159.467 253.96 163.668H221.21C220.613 162.376 220.035 161.089 219.48 159.817C223.35 159.327 227.298 159.383 231.182 158.945C235.97 158.404 240.939 156.94 244.17 153.365C246.66 150.605 247.82 146.926 248.916 143.369C253.881 127.197 258.883 110.82 259.736 93.9245C260.054 87.6355 259.774 81.2346 257.914 75.2159C255.298 66.7499 249.737 59.5612 245.559 51.743C242.021 45.123 239.587 38.0739 237.988 30.7501C237.811 29.9389 237.531 29.0483 237.364 28.1626C237.438 28.1065 237.499 28.06 237.541 28.0275V27.9623C237.541 27.9623 237.559 27.9715 237.587 27.9948C237.615 27.9715 237.634 27.9623 237.634 27.9623V28.0275C238.706 28.8292 249.107 36.8665 257.732 52.6287C268.72 72.6937 276.827 105.272 259.154 151.379V151.379Z" fill="black" fill-opacity="0.078431"/>
<path d="M155.735 216.238L150.786 206.059L137.126 177.958L127.077 173.986L121.377 162.26L110.63 167.484L95.3885 161.459L90.3244 177.355L78.9033 182.907L84.7341 194.902L81.5201 204.99L100.129 243.269L155.735 216.238Z" fill="black" fill-opacity="0.101961"/>
<path d="M143.791 205.185L88.1848 232.217L74.5244 204.116L130.13 177.084L143.791 205.185Z" fill="#E4AE13"/>
<path d="M74.5244 204.116L88.3928 160.586L130.13 177.085L74.5244 204.116Z" fill="#FFAF2F"/>
<path d="M139.187 212.41L96.7129 233.057L71.9092 182.034L114.383 161.386L139.187 212.41Z" fill="#FFF2E2"/>
<path d="M76.5098 184.059L77.3391 185.766L113.963 167.962L113.133 166.256L76.5098 184.059Z" fill="#EDDDCC"/>
<path d="M79.0188 189.217L115.642 171.413L114.813 169.708L78.1895 187.511L79.0188 189.217Z" fill="#EDDDCC"/>
<path d="M80.6956 192.669L117.319 174.865L116.49 173.159L79.8662 190.963L80.6956 192.669Z" fill="#EDDDCC"/>
<path d="M82.3714 196.121L118.995 178.317L118.165 176.611L81.542 194.415L82.3714 196.121Z" fill="#EDDDCC"/>
<path d="M84.051 199.572L120.675 181.769L119.845 180.063L83.2217 197.866L84.051 199.572Z" fill="#EDDDCC"/>
<path d="M90.9254 213.712L127.549 195.908L126.719 194.202L90.0957 212.006L90.9254 213.712Z" fill="#EDDDCC"/>
<path d="M92.7639 217.493L129.387 199.689L128.558 197.983L91.9346 215.787L92.7639 217.493Z" fill="#EDDDCC"/>
<path d="M87.5003 206.666L124.124 188.862L123.294 187.156L86.6709 204.96L87.5003 206.666Z" fill="#EDDDCC"/>
<path d="M113.508 196.299L88.3945 208.507L89.2239 210.213L114.337 198.005L113.508 196.299Z" fill="#EDDDCC"/>
<path d="M113.375 187.71L84.9912 201.508L85.8203 203.214L114.205 189.416L113.375 187.71Z" fill="#EDDDCC"/>
<path d="M74.5244 204.116L93.1333 242.396L148.739 215.364L130.13 177.084L113.349 213.272L74.5244 204.116Z" fill="#FFAF2F"/>
<path d="M93.1338 242.396L110.107 206.604L148.739 215.364L93.1338 242.396Z" fill="#FFAF2F"/>
<path d="M93.1338 242.396L106.206 211.588L107.597 211.916L93.1338 242.396Z" fill="black" fill-opacity="0.101961"/>
<path d="M148.739 215.364L115.839 207.903L116.437 206.614L148.739 215.364Z" fill="black" fill-opacity="0.101961"/>
<path d="M238.66 222.638C238.66 205.88 225.074 192.295 208.316 192.295V200.834C207.512 200.869 206.718 200.947 205.939 201.068C195.532 202.679 187.568 211.673 187.568 222.528C187.568 234.523 197.294 244.246 209.29 244.246C220.384 244.246 229.54 235.921 230.85 225.176C230.948 224.344 231 223.497 231.005 222.638H238.66V222.638Z" fill="black" fill-opacity="0.101961"/>
<path d="M228.8 219.622C228.8 220.52 228.745 221.403 228.642 222.27C227.332 233.016 218.176 241.34 207.082 241.34C195.086 241.34 185.36 231.618 185.36 219.622C185.36 208.767 193.324 199.773 203.731 198.162C204.823 197.992 205.942 197.904 207.082 197.904C208.954 197.904 210.775 198.143 212.508 198.589C219.618 200.417 225.32 205.758 227.656 212.648C227.659 212.651 227.659 212.651 227.659 212.655C228.399 214.84 228.8 217.183 228.8 219.622Z" fill="#083358"/>
<path d="M207.083 239.133C196.322 239.133 187.568 230.38 187.568 219.622C187.568 214.937 189.254 210.408 192.313 206.869C195.343 203.365 199.518 201.047 204.069 200.343C205.062 200.189 206.075 200.111 207.083 200.111C208.731 200.111 210.372 200.318 211.959 200.726C218.356 202.371 223.443 207.092 225.566 213.356L225.63 213.545C226.269 215.497 226.593 217.541 226.593 219.622C226.593 220.407 226.546 221.21 226.451 222.011C225.261 231.769 216.935 239.133 207.083 239.133V239.133Z" fill="#0D63A5"/>
<path d="M228.799 219.622C228.799 220.52 228.744 221.403 228.642 222.27L206.107 219.732L203.73 198.162C204.823 197.992 205.941 197.904 207.082 197.904C208.954 197.904 210.775 198.143 212.508 198.589C219.853 203.919 224.599 208.741 227.655 212.648C227.659 212.651 227.659 212.651 227.659 212.655C228.398 214.84 228.799 217.183 228.799 219.622V219.622Z" fill="black" fill-opacity="0.101961"/>
<path d="M236.453 219.732C236.453 202.974 222.867 189.389 206.109 189.389V219.732H236.453Z" fill="#FFAF2F"/>
<path d="M301.894 242.666C298.99 235.355 292.952 230.229 285.937 228.204L285.987 227.864H285.987L286.074 227.271L286.788 227.376C287.146 227.429 287.482 227.179 287.535 226.819L287.988 223.728C288.039 223.369 287.792 223.033 287.43 222.981L282.677 222.285C282.318 222.232 281.984 222.481 281.93 222.841L281.477 225.931C281.424 226.292 281.675 226.626 282.034 226.681L282.748 226.785L282.645 227.495C279.397 227.025 276.021 227.203 272.707 228.116L272.426 227.41L272.069 226.512L273.145 226.085C273.692 225.867 273.956 225.253 273.742 224.708L271.888 220.048C271.673 219.501 271.057 219.237 270.511 219.455L263.339 222.3C262.797 222.516 262.533 223.133 262.747 223.68L264.602 228.34C264.815 228.885 265.432 229.149 265.975 228.934L267.05 228.506L267.688 230.111C264.584 231.757 261.959 234.006 259.899 236.651L259.707 236.499L259.708 236.498L259.237 236.126L259.684 235.562C259.908 235.276 259.861 234.86 259.575 234.634L257.125 232.698C256.837 232.473 256.424 232.521 256.199 232.806L253.218 236.575C252.993 236.86 253.04 237.276 253.327 237.501L255.777 239.438C256.062 239.663 256.478 239.615 256.705 239.329L257.151 238.765L258.015 239.449C254.4 245.703 253.573 253.489 256.448 260.724C261.434 273.273 275.651 279.406 288.2 274.419C300.751 269.432 306.881 255.214 301.894 242.666V242.666Z" fill="black" fill-opacity="0.101961"/>
<path d="M272.044 228.448L267.025 230.443L264.889 225.066L269.908 223.071L272.044 228.448Z" fill="#DADADF"/>
<path d="M270.905 225.581L265.888 227.574L264.889 225.066L269.908 223.071L270.905 225.581Z" fill="#B6BDBF"/>
<path d="M272.22 222.879C272.434 223.424 272.17 224.039 271.623 224.256L264.452 227.105C263.91 227.321 263.293 227.056 263.08 226.511L261.225 221.851C261.011 221.305 261.274 220.687 261.816 220.472L268.988 217.626C269.535 217.409 270.151 217.673 270.366 218.219L272.22 222.879V222.879Z" fill="#083358"/>
<path d="M259.693 235.864L257.607 238.501L254.78 236.265L256.867 233.628L259.693 235.864Z" fill="#083358"/>
<path d="M258.187 234.67L256.1 237.307L254.78 236.265L256.867 233.628L258.187 234.67Z" fill="#083358"/>
<path d="M258.053 232.805C258.339 233.032 258.386 233.447 258.162 233.733L255.183 237.501C254.957 237.787 254.54 237.835 254.256 237.609L251.805 235.672C251.519 235.447 251.472 235.032 251.697 234.746L254.677 230.977C254.903 230.693 255.315 230.644 255.604 230.869L258.053 232.805V232.805Z" fill="#083358"/>
<path d="M280.863 227.452L284.188 227.939L284.71 224.373L281.385 223.887L280.863 227.452Z" fill="#083358"/>
<path d="M281.14 225.549L284.464 226.036L284.708 224.373L281.382 223.887L281.14 225.549Z" fill="#083358"/>
<path d="M279.956 224.103C279.902 224.464 280.153 224.798 280.512 224.853L285.266 225.547C285.624 225.601 285.96 225.35 286.013 224.991L286.466 221.9C286.518 221.54 286.27 221.205 285.908 221.152L281.155 220.456C280.796 220.404 280.462 220.652 280.408 221.013L279.956 224.103V224.103Z" fill="#083358"/>
<path d="M300.372 240.837C305.358 253.386 299.228 267.604 286.677 272.591C274.128 277.577 259.911 271.444 254.925 258.895C249.939 246.346 256.069 232.13 268.619 227.144C281.17 222.156 295.385 228.288 300.372 240.837V240.837Z" fill="#0D63A5"/>
<path d="M285.288 269.094C274.669 273.31 262.641 268.125 258.421 257.506C256.304 252.177 256.556 246.492 258.677 241.619C260.778 236.781 264.72 232.741 270.01 230.64C275.048 228.637 280.409 228.755 285.1 230.566C285.173 230.595 285.24 230.621 285.31 230.649C290.406 232.68 294.689 236.724 296.876 242.225C301.098 252.844 295.904 264.872 285.288 269.094V269.094Z" fill="#FFF2E2"/>
<path d="M285.312 230.649L277.652 249.866L258.678 241.619C260.779 236.781 264.721 232.741 270.011 230.64C275.05 228.637 280.41 228.755 285.101 230.566C285.174 230.595 285.241 230.621 285.312 230.649V230.649Z" fill="#D2D3D5"/>
<path d="M272.108 235.19L271.695 235.354L270.767 233.017L271.179 232.853L272.108 235.19Z" fill="#464667"/>
<path d="M269.646 236.376L269.269 236.608L267.949 234.467L268.326 234.236L269.646 236.376Z" fill="#464667"/>
<path d="M267.422 237.97L267.091 238.266L265.417 236.387L265.751 236.092L267.422 237.97Z" fill="#464667"/>
<path d="M265.514 239.929L265.24 240.275L263.268 238.714L263.541 238.367L265.514 239.929Z" fill="#464667"/>
<path d="M263.974 242.185L263.763 242.576L261.548 241.381L261.759 240.991L263.974 242.185Z" fill="#464667"/>
<path d="M262.845 244.678L262.706 245.098L260.318 244.308L260.457 243.885L262.845 244.678Z" fill="#464667"/>
<path d="M262.169 247.326L262.109 247.766L259.619 247.403L259.681 246.962L262.169 247.326Z" fill="#464667"/>
<path d="M261.964 250.054L261.977 250.497L259.463 250.57L259.451 250.127L261.964 250.054Z" fill="#464667"/>
<path d="M262.237 252.774L262.327 253.21L259.861 253.718L259.772 253.284L262.237 252.774Z" fill="#464667"/>
<path d="M262.974 255.408L263.137 255.817L260.801 256.746L260.636 256.337L262.974 255.408Z" fill="#464667"/>
<path d="M264.158 257.871L264.392 258.249L262.252 259.567L262.02 259.192L264.158 257.871Z" fill="#464667"/>
<path d="M265.753 260.089L266.051 260.422L264.172 262.095L263.874 261.765L265.753 260.089Z" fill="#464667"/>
<path d="M267.71 262.004L268.059 262.277L266.498 264.25L266.15 263.975L267.71 262.004Z" fill="#464667"/>
<path d="M269.972 263.542L270.359 263.755L269.167 265.968L268.773 265.757L269.972 263.542Z" fill="#464667"/>
<path d="M272.458 264.672L272.881 264.808L272.09 267.199L271.668 267.057L272.458 264.672Z" fill="#464667"/>
<path d="M275.111 265.345L275.551 265.409L275.184 267.898L274.745 267.833L275.111 265.345Z" fill="#464667"/>
<path d="M277.837 265.552L278.279 265.539L278.353 268.053L277.909 268.065L277.837 265.552Z" fill="#464667"/>
<path d="M280.555 265.279L280.991 265.189L281.501 267.655L281.061 267.743L280.555 265.279Z" fill="#464667"/>
<path d="M283.189 264.541L283.603 264.376L284.53 266.715L284.118 266.878L283.189 264.541Z" fill="#464667"/>
<path d="M285.656 263.355L286.035 263.123L287.354 265.263L286.975 265.497L285.656 263.355Z" fill="#464667"/>
<path d="M287.873 261.763L288.205 261.464L289.876 263.343L289.544 263.643L287.873 261.763Z" fill="#464667"/>
<path d="M289.783 259.804L290.057 259.457L292.032 261.017L291.759 261.364L289.783 259.804Z" fill="#464667"/>
<path d="M291.329 257.545L291.537 257.154L293.754 258.35L293.543 258.74L291.329 257.545Z" fill="#464667"/>
<path d="M292.452 255.055L292.592 254.633L294.977 255.424L294.84 255.844L292.452 255.055Z" fill="#464667"/>
<path d="M293.127 252.404L293.19 251.967L295.681 252.331L295.616 252.771L293.127 252.404Z" fill="#464667"/>
<path d="M293.334 249.677L293.322 249.236L295.834 249.162L295.845 249.607L293.334 249.677Z" fill="#464667"/>
<path d="M293.064 246.958L292.976 246.523L295.439 246.014L295.528 246.452L293.064 246.958Z" fill="#464667"/>
<path d="M292.324 244.328L292.159 243.913L294.499 242.983L294.664 243.399L292.324 244.328Z" fill="#464667"/>
<path d="M291.14 241.863L290.906 241.484L293.046 240.162L293.279 240.542L291.14 241.863Z" fill="#464667"/>
<path d="M289.545 239.641L289.248 239.31L291.128 237.635L291.425 237.97L289.545 239.641Z" fill="#464667"/>
<path d="M287.587 237.731L287.235 237.455L288.797 235.482L289.149 235.758L287.587 237.731Z" fill="#464667"/>
<path d="M285.333 236.189L284.94 235.979L286.134 233.764L286.525 233.976L285.333 236.189Z" fill="#464667"/>
<path d="M282.836 235.065L282.412 234.925L283.206 232.534L283.628 232.679L282.836 235.065Z" fill="#464667"/>
<path d="M280.185 234.387L279.748 234.325L280.113 231.832L280.551 231.9L280.185 234.387Z" fill="#464667"/>
<path d="M277.462 234.181L277.018 234.192L276.943 231.679L277.39 231.667L277.462 234.181Z" fill="#464667"/>
<path d="M274.742 234.45L274.308 234.543L273.8 232.079L274.234 231.99L274.742 234.45Z" fill="#464667"/>
<path d="M279.837 248.975C279.358 247.772 277.995 247.186 276.791 247.661C275.592 248.141 275.002 249.503 275.481 250.705C275.959 251.908 277.32 252.496 278.525 252.018C279.725 251.54 280.314 250.178 279.837 248.975ZM278.068 250.868C277.5 251.094 276.856 250.818 276.629 250.249C276.403 249.681 276.683 249.037 277.248 248.812C277.818 248.587 278.461 248.863 278.688 249.432C278.913 250.001 278.635 250.643 278.068 250.868V250.868Z" fill="#464667"/>
<path d="M283.141 236.239L279.484 248.815L277.152 247.811L283.141 236.239Z" fill="#464667"/>
<path d="M278.07 250.868C277.502 251.094 276.858 250.818 276.631 250.248C276.405 249.68 276.685 249.036 277.25 248.812C277.82 248.587 278.462 248.863 278.69 249.432C278.914 250.001 278.636 250.643 278.07 250.868V250.868Z" fill="#CDD4D6"/>
<path d="M270.539 231.974C280.932 227.844 292.677 232.731 297.125 242.9C297.045 242.675 296.966 242.45 296.878 242.227C292.658 231.609 280.626 226.422 270.009 230.641C259.391 234.86 254.203 246.889 258.421 257.507C258.511 257.731 258.607 257.948 258.703 258.167C254.959 247.718 260.145 236.104 270.539 231.974V231.974Z" fill="black" fill-opacity="0.501961"/>
<path d="M370.766 208.192C358.619 204.412 345.707 211.194 341.926 223.341C338.507 234.326 343.728 245.936 353.743 250.853L351.546 257.91L349.482 257.268L339.489 289.373C339.136 290.507 339.152 291.665 339.473 292.729C340.004 294.489 341.37 295.967 343.263 296.557C346.286 297.498 349.502 295.805 350.443 292.782L360.435 260.677L358.375 260.035L359.38 256.806L360.571 252.979C371.607 254.614 382.495 248.018 385.915 237.032C389.695 224.886 382.913 211.973 370.766 208.192V208.192Z" fill="black" fill-opacity="0.101961"/>
<path d="M355.076 263.864L348.248 261.738L352.375 248.478L359.204 250.603L355.076 263.864Z" fill="#DADADF"/>
<path d="M358.787 259.207L348.794 291.312C347.853 294.335 344.638 296.028 341.615 295.087C339.721 294.498 338.356 293.02 337.825 291.259C337.504 290.196 337.488 289.037 337.841 287.903L347.834 255.798L358.787 259.207V259.207Z" fill="#001F3F"/>
<path d="M352.128 249.119C352.128 249.119 355.067 253.513 357.731 255.336L359.329 250.201C359.329 250.201 352.854 248.738 352.128 249.119V249.119Z" fill="black" fill-opacity="0.501961"/>
<path d="M369.117 206.723C356.97 202.942 344.058 209.724 340.277 221.871C336.497 234.019 343.279 246.93 355.426 250.711C367.573 254.492 380.485 247.71 384.266 235.563C388.047 223.416 381.265 210.504 369.117 206.723ZM356.28 247.967C345.665 244.663 339.717 233.34 343.021 222.726C346.325 212.111 357.649 206.163 368.264 209.467C378.878 212.771 384.825 224.094 381.522 234.709C378.218 245.324 366.895 251.271 356.28 247.967V247.967Z" fill="#0D63A5"/>
<path d="M356.279 247.967C345.664 244.663 339.716 233.34 343.02 222.725C346.324 212.111 357.648 206.163 368.263 209.467C378.877 212.771 384.825 224.094 381.521 234.709C378.217 245.324 366.894 251.271 356.279 247.967Z" fill="#0D63A5" fill-opacity="0.2"/>
<path d="M368.265 209.467C366.085 208.788 363.876 208.506 361.711 208.568C363.341 208.656 364.986 208.943 366.613 209.45C377.228 212.754 383.176 224.077 379.872 234.692C377.246 243.127 369.557 248.608 361.184 248.849C370.181 249.335 378.726 243.696 381.523 234.709C384.827 224.094 378.88 212.771 368.265 209.467V209.467Z" fill="#0D63A5" fill-opacity="0.2"/>
<path d="M358.785 259.207L348.793 291.312C347.851 294.335 344.636 296.028 341.613 295.087C339.72 294.498 338.354 293.019 337.823 291.259C338.001 291.219 338.182 291.185 338.361 291.16C340.079 290.908 341.899 291.058 343.497 290.371C346.114 289.249 347.339 286.295 348.267 283.604C350.341 277.587 352.174 271.486 353.762 265.324C354.243 263.437 354.379 260.068 355.378 258.146L358.785 259.207V259.207Z" fill="black" fill-opacity="0.301961"/>
<path d="M407.582 86.089L407.548 85.973V85.9727L407.548 85.9724L398.251 80.3882L398.178 80.3446L397.942 80.2031L397.941 80.2041L397.941 80.2038L389.856 81.4599L385.512 86.9295L380.981 92.8718L368.644 110.662L344.242 145.848L344.243 145.849L340.65 163.143L339.845 167.035L339.239 169.953C339.185 170.211 339.339 170.434 339.552 170.514C339.677 170.561 339.823 170.557 339.959 170.481C339.961 170.48 339.962 170.48 339.964 170.479L339.965 170.478C339.965 170.478 339.965 170.478 339.965 170.478L339.969 170.476L340.042 170.434L345.152 167.491C345.152 167.491 345.152 167.49 345.152 167.489L361.291 158.192L361.364 158.152L361.363 158.15L401.407 107.05L405.939 101.108L410.282 95.6382L407.582 86.089V86.089Z" fill="black" fill-opacity="0.101961"/>
<path d="M408.556 90.8582L404.339 96.4259L399.602 101.351L392.047 109.199L366.137 136.127L359.265 131.286L358.191 131.236L380.554 88.524L383.592 82.7212L387.809 77.1532L395.862 75.7117L396.177 75.8888L405.6 81.2577L405.636 81.3733L408.556 90.8582Z" fill="#FFAF2F"/>
<path d="M404.337 96.4261L399.944 102.471L386.756 116.075L361.919 141.695L355.047 136.857L353.974 136.807L379.197 88.7662L383.591 82.7214L391.644 81.2795L391.959 81.4566L401.382 86.8259L403.391 93.3478L404.337 96.4261Z" fill="#DADADF"/>
<path d="M361.084 154.479L345.092 164.188L341.703 166.247L340.052 167.248L339.976 167.295C339.615 167.515 339.163 167.201 339.239 166.786L339.344 166.215L339.372 166.063L340.493 159.946L343.687 142.574C343.687 142.574 346.407 141.699 349.804 142.35C350.143 142.418 350.497 142.498 350.852 142.603C353.135 143.242 355.625 144.637 357.731 147.455C358.371 148.312 358.974 149.291 359.53 150.425C360.109 151.607 360.632 152.951 361.084 154.479V154.479Z" fill="#FFF2E2"/>
<path d="M399.945 102.471L361.085 154.479L359.163 150.84L357.526 147.74L350.654 142.899L349.581 142.848L343.688 142.574L379.198 88.7661L380.553 88.5241L387.255 87.3246L387.566 87.5013L396.989 92.8706L399.161 99.9307L399.601 101.351L399.945 102.471Z" fill="#FFAF2F"/>
<path d="M387.254 87.3234L359.868 128.908L350.852 142.601L350.654 142.899L357.527 147.74L357.733 147.456L396.991 92.871L387.568 87.5014L387.254 87.3234Z" fill="#FFBA4D"/>
<path d="M379.199 88.7668L343.688 142.573L349.583 142.85L350.654 142.899L350.852 142.601L359.868 128.908L387.254 87.3234L379.199 88.7668Z" fill="#FFAF2F"/>
<path d="M360.538 154.795L356.88 148.151L350.299 143.57L343.641 143.381L343.688 142.573L350.651 142.9L357.525 147.742L361.087 154.481L360.538 154.795Z" fill="black" fill-opacity="0.101961"/>
<path d="M387.254 87.3234L391.647 81.2795L401.384 86.8274L396.991 92.871L387.254 87.3234Z" fill="#F4F4F4"/>
<path d="M391.646 81.2796L395.862 75.7109L405.599 81.2585L401.382 86.8275L391.646 81.2796Z" fill="#EDC72D"/>
<path d="M408.554 90.8582L404.338 96.4259L399.944 102.471L361.084 154.479L359.162 150.84C359.289 150.703 359.412 150.566 359.531 150.425C360.615 149.207 361.648 147.939 362.667 146.682C370.836 136.59 378.825 126.354 386.756 116.074C388.523 113.784 390.286 111.493 392.046 109.199C394.362 106.189 396.67 103.176 398.983 100.162C399.041 100.086 399.102 100.007 399.16 99.9306C400.638 98.0015 402.108 96.05 403.156 93.8569C403.236 93.6871 403.315 93.5173 403.391 93.3476C404.587 90.634 405.104 87.6929 405.4 84.7516C405.494 83.8232 405.429 82.5298 405.635 81.3733L408.554 90.8582V90.8582Z" fill="black" fill-opacity="0.101961"/>
<path d="M357.525 147.741L341.703 166.247L340.052 167.248L339.976 167.295C339.615 167.515 339.163 167.201 339.239 166.786L339.344 166.215L339.372 166.063L350.649 142.899L357.525 147.741Z" fill="#FFF9F2"/>
<path d="M340.495 159.947L339.239 166.786C339.162 167.202 339.614 167.514 339.976 167.295L340.053 167.25L345.094 164.189C344.686 163.271 344.064 162.273 343.12 161.436C342.433 160.825 341.57 160.296 340.495 159.947Z" fill="#464667"/>
<path d="M361.084 154.479L345.092 164.187L340.052 167.248L339.976 167.295C339.615 167.515 339.163 167.201 339.239 166.785L339.344 166.215C340.857 163.917 342.682 161.879 344.991 160.397C347.184 158.992 349.695 158.164 351.964 156.892C354.718 155.346 357.038 153.196 359.162 150.84L361.084 154.479V154.479Z" fill="black" fill-opacity="0.101961"/>
<path d="M172.283 68.1373L158.285 29.3359C157.728 27.7899 156.021 26.9886 154.476 27.546L94.0851 49.3325C92.5395 49.8902 91.7378 51.5964 92.2955 53.1424L94.0902 58.1173L106.293 91.9438C106.851 93.4895 108.558 94.2911 110.103 93.7334L170.494 71.9472C172.04 71.3895 172.841 69.683 172.283 68.1373V68.1373Z" fill="black" fill-opacity="0.101961"/>
<path d="M155.717 27.2843L169.715 66.086C170.272 67.6317 169.471 69.3379 167.925 69.8956L107.535 91.6821C105.989 92.2398 104.283 91.4382 103.725 89.8925L89.7271 51.0908C89.1694 49.5452 89.9711 47.8386 91.5168 47.2812L151.907 25.4947C153.453 24.937 155.159 25.7387 155.717 27.2843V27.2843Z" fill="#FFF2E2"/>
<path d="M155.717 27.2843L157.512 32.2593L91.5219 56.0658L89.7271 51.0908C89.1694 49.5452 89.9711 47.8386 91.5168 47.2812L151.907 25.4947C153.453 24.937 155.159 25.7387 155.717 27.2843V27.2843Z" fill="#001F3F" stroke="#083358" stroke-width="0.2" stroke-miterlimit="22.9256"/>
<path d="M96.5304 50.215C96.8253 51.032 96.4017 51.933 95.5848 52.2276C94.7682 52.5222 93.8668 52.0989 93.5722 51.2823C93.2776 50.4653 93.7009 49.564 94.5175 49.2693C95.3345 48.9747 96.2358 49.3981 96.5304 50.215V50.215Z" fill="#F2572F"/>
<path d="M101.227 48.5204C101.522 49.3373 101.098 50.2381 100.281 50.533C99.4645 50.8276 98.5631 50.4043 98.2685 49.5874C97.9739 48.7707 98.3972 47.8694 99.2141 47.5748C100.031 47.2798 100.932 47.7034 101.227 48.5204V48.5204Z" fill="#FFAF2F"/>
<path d="M105.926 46.8255C106.221 47.6424 105.797 48.5434 104.981 48.8383C104.164 49.133 103.262 48.7097 102.968 47.8927C102.673 47.0758 103.097 46.1747 103.913 45.8801C104.73 45.5852 105.631 46.0085 105.926 46.8255V46.8255Z" fill="#0AAC60"/>
<path d="M91.6299 56.3629C91.6299 56.3629 138.838 41.498 158.478 34.9353L157.618 32.5532L91.6299 56.3629Z" fill="black" fill-opacity="0.8"/>
<path d="M113.958 85.7344L110.587 86.9505L100.766 59.7261L104.136 58.5101L113.958 85.7344Z" fill="#FFAF2F"/>
<path d="M121.715 82.9359L118.345 84.1523L111.192 64.3264L114.563 63.1104L121.715 82.9359Z" fill="#FFAF2F"/>
<path d="M129.471 80.1377L126.1 81.3537L121.322 68.1105L124.693 66.8945L129.471 80.1377Z" fill="#FFD717"/>
<path d="M160.499 68.9439L157.128 70.1599L152.351 56.9171L155.721 55.7008L160.499 68.9439Z" fill="#FFAF2F"/>
<path d="M137.227 77.3388L133.856 78.5548L125.542 55.5086L128.913 54.2926L137.227 77.3388Z" fill="#FFAF2F"/>
<path d="M144.987 74.5406L141.616 75.7566L134.964 57.3165L138.335 56.1005L144.987 74.5406Z" fill="#FFAF2F"/>
<path d="M152.744 71.7417L149.373 72.9581L140.264 47.7063L143.634 46.4902L152.744 71.7417Z" fill="#FFD717"/>
<path d="M190.031 27.2387C190.031 31.3301 186.715 34.647 182.623 34.647C178.532 34.647 175.215 31.3301 175.215 27.2387C175.215 23.1473 178.532 19.8304 182.623 19.8304C186.715 19.8304 190.031 23.1473 190.031 27.2387Z" fill="#E8F2FF"/>
<path d="M441.949 286.782C441.949 292.324 437.456 296.817 431.914 296.817C426.372 296.817 421.879 292.324 421.879 286.782C421.879 281.24 426.372 276.747 431.914 276.747C437.456 276.747 441.949 281.24 441.949 286.782Z" fill="#E8F2FF"/>
<path d="M449.94 257.422C449.94 259.468 448.282 261.126 446.236 261.126C444.191 261.126 442.532 259.468 442.532 257.422C442.532 255.376 444.191 253.718 446.236 253.718C448.282 253.718 449.94 255.376 449.94 257.422Z" fill="#E8F2FF"/>
<path d="M383.699 41.2346C383.699 42.8517 382.388 44.1623 380.771 44.1623C379.154 44.1623 377.844 42.8517 377.844 41.2346C377.844 39.6176 379.154 38.307 380.771 38.307C382.388 38.307 383.699 39.6176 383.699 41.2346Z" fill="#E8F2FF"/>
<path d="M21.242 149.22C21.242 150.837 19.9314 152.148 18.3144 152.148C16.6977 152.148 15.3867 150.837 15.3867 149.22C15.3867 147.603 16.6977 146.292 18.3144 146.292C19.9314 146.292 21.242 147.603 21.242 149.22Z" fill="#E8F2FF"/>
<path d="M73.5775 30.1105C73.5775 31.2973 72.6156 32.2591 71.4289 32.2591C70.2421 32.2591 69.2803 31.2973 69.2803 30.1105C69.2803 28.9241 70.2421 27.9623 71.4289 27.9623C72.6156 27.9623 73.5775 28.9241 73.5775 30.1105Z" fill="#E8F2FF"/>
<path d="M395.45 45.3344L402.72 50.4186L406.166 41.5796L413.941 47.0154L417.388 38.1755L425.668 43.9629L425.115 44.7541L417.842 39.6699L414.395 48.5102L406.62 43.074L403.174 51.9136L394.897 46.1256L395.45 45.3344Z" fill="#FFD717"/>
<path d="M0.552275 192.958L7.82296 198.043L11.2688 189.203L19.0443 194.64L22.4911 185.799L30.7708 191.587L30.2185 192.378L22.9449 187.294L19.4981 196.134L11.7226 190.698L8.27714 199.537L0 193.749L0.552275 192.958Z" fill="#FFD717"/>
<path d="M76.99 258.74L65.8643 252.317V265.164L76.99 258.74Z" fill="#0D63A5"/>
<path d="M409.672 167.59L405.708 174.455H413.636L409.672 167.59Z" fill="#FFAF2F"/>
<path d="M407.522 269.288C407.522 272.07 405.267 274.325 402.485 274.325C399.703 274.325 397.447 272.07 397.447 269.288C397.447 266.506 399.703 264.25 402.485 264.25C405.267 264.25 407.522 266.506 407.522 269.288Z" fill="#FFD717"/>
<path d="M76.9885 134.11C76.9885 135.501 75.8611 136.629 74.4699 136.629C73.0787 136.629 71.9512 135.501 71.9512 134.11C71.9512 132.719 73.0787 131.591 74.4699 131.591C75.8611 131.591 76.9885 132.719 76.9885 134.11Z" fill="#FFD717"/>
<path d="M417.648 131.727C417.648 133.647 416.869 135.388 415.609 136.647C414.35 137.906 412.61 138.685 410.689 138.685C408.768 138.685 407.028 137.906 405.769 136.647C404.51 135.388 403.73 133.647 403.73 131.727C403.73 129.807 404.51 128.068 405.769 126.809C407.028 125.547 408.768 124.768 410.689 124.768C412.608 124.768 414.348 125.548 415.608 126.808C416.869 128.066 417.648 129.805 417.648 131.727V131.727ZM414.753 135.791C415.793 134.751 416.436 133.314 416.436 131.727C416.436 130.139 415.793 128.702 414.753 127.662C413.715 126.622 412.278 125.98 410.689 125.98C409.102 125.98 407.665 126.623 406.625 127.662C405.585 128.701 404.942 130.138 404.942 131.727C404.942 133.314 405.585 134.751 406.625 135.791C407.665 136.83 409.102 137.474 410.689 137.474C412.276 137.474 413.713 136.83 414.753 135.791Z" fill="#FFD717"/>
<path d="M78.571 89.6625C78.571 90.8753 78.0783 91.9751 77.2817 92.7714C76.4871 93.568 75.3867 94.0606 74.1726 94.0606C72.9604 94.0606 71.8609 93.5683 71.0643 92.7723C70.2668 91.9742 69.7744 90.8747 69.7744 89.6625C69.7744 88.4484 70.2671 87.348 71.0627 86.5524C71.8599 85.7568 72.9597 85.264 74.1726 85.264C75.3867 85.264 76.4871 85.7568 77.2827 86.5524C78.0783 87.3496 78.571 88.4493 78.571 89.6625V89.6625ZM76.7422 92.2309C77.3989 91.5748 77.8054 90.6664 77.8054 89.6625C77.8054 88.6583 77.3989 87.75 76.7428 87.0938C76.0839 86.4365 75.1755 86.0297 74.1726 86.0297C73.1687 86.0297 72.2603 86.4361 71.6042 87.0922C70.9468 87.7512 70.5401 88.6595 70.5401 89.6625C70.5401 90.6664 70.9465 91.5748 71.6026 92.2309C72.2603 92.8886 73.1687 93.295 74.1726 93.295C75.1755 93.295 76.0839 92.8883 76.7422 92.2309V92.2309Z" fill="#FFD717"/>
<path d="M35.0298 244.757C34.6415 246.55 33.5615 248.018 32.1308 248.939C30.7011 249.86 28.9194 250.235 27.1266 249.847C25.3331 249.459 23.8658 248.379 22.9444 246.948C22.0236 245.518 21.6484 243.737 22.0366 241.943C22.4249 240.15 23.5049 238.683 24.9356 237.761C26.365 236.841 28.1473 236.465 29.9402 236.854C31.7336 237.242 33.201 238.322 34.1221 239.753C35.0425 241.182 35.418 242.964 35.0298 244.757V244.757ZM31.5072 247.967C32.6875 247.207 33.5787 245.995 33.8997 244.513C34.2208 243.03 33.9106 241.558 33.15 240.376C32.3901 239.196 31.1785 238.305 29.6962 237.984C28.2136 237.663 26.7405 237.973 25.5592 238.734C24.3789 239.493 23.4877 240.705 23.1667 242.187C22.8456 243.67 23.1558 245.143 23.9164 246.324C24.6764 247.505 25.8886 248.396 27.3705 248.717C28.8531 249.038 30.3259 248.728 31.5072 247.967V247.967Z" fill="#FFD717"/>
</svg>
