<svg width="299" height="227" viewBox="0 0 299 227" fill="none" xmlns="http://www.w3.org/2000/svg">
<path d="M114.623 147.964L56.8748 186.59L0 101.557L57.7489 62.9316L114.623 147.964Z" fill="#3893D9"/>
<path d="M84.7915 143.932L84.1364 147.988L55.4287 143.852L56.0844 139.796L84.7915 143.932Z" fill="#D9DAD9"/>
<path d="M70.3316 129.463L74.4512 130.057L69.8839 158.321L65.7646 157.727L70.3316 129.463Z" fill="#D9DAD9"/>
<path d="M43.8914 93.5383C43.9325 93.6004 38.1455 97.5431 30.9673 102.344C23.7863 107.147 17.9335 110.99 17.8928 110.928C17.8517 110.867 23.6376 106.924 30.8183 102.122C37.9965 97.3202 43.8507 93.4771 43.8914 93.5383Z" fill="#D9DAD9"/>
<path d="M65.1279 88.2075C65.169 88.2694 55.5454 94.7783 43.6359 102.744C31.722 110.713 22.0338 117.12 21.9923 117.059C21.9512 116.997 31.573 110.489 43.4865 102.521C55.3968 94.5553 65.0868 88.1457 65.1279 88.2075Z" fill="#D9DAD9"/>
<path d="M69.3853 94.5718C69.4272 94.6337 59.8032 101.143 47.8933 109.108C35.9798 117.077 26.2912 123.485 26.2501 123.424C26.209 123.362 35.8308 116.855 47.7446 108.886C59.6542 100.92 69.3442 94.5107 69.3853 94.5718Z" fill="#D9DAD9"/>
<path d="M73.64 100.936C73.6811 100.998 64.0571 107.507 52.1476 115.473C40.2337 123.442 30.5455 129.85 30.504 129.788C30.4633 129.727 40.0844 123.219 51.9986 115.25C63.9078 107.284 73.5985 100.875 73.64 100.936Z" fill="#D9DAD9"/>
<path d="M77.8974 107.301C77.9385 107.363 68.3146 113.872 56.4054 121.838C44.4912 129.806 34.8033 136.214 34.7618 136.152C34.7208 136.091 44.3425 129.584 56.256 121.615C68.1659 113.649 77.856 107.24 77.8974 107.301Z" fill="#D9DAD9"/>
<path d="M298.591 191.349L250.117 223.771L202.353 152.359L250.851 119.92L298.591 191.295V191.349Z" fill="#3893D9"/>
<path d="M273.558 187.946L273.008 191.353L248.898 187.879L249.449 184.473L273.558 187.946Z" fill="#D9DAD9"/>
<path d="M261.418 175.795L264.876 176.293L261.041 200.031L257.581 199.532L261.418 175.795Z" fill="#D9DAD9"/>
<path d="M239.211 145.625C239.252 145.686 234.398 149.005 228.369 153.038C222.338 157.072 217.417 160.29 217.376 160.229C217.335 160.167 222.189 156.848 228.22 152.815C234.248 148.782 239.17 145.563 239.211 145.625Z" fill="#D9DAD9"/>
<path d="M257.047 141.147C257.088 141.209 249.011 146.683 239.009 153.373C229.004 160.066 220.862 165.44 220.82 165.377C220.779 165.316 228.855 159.843 238.86 153.151C248.862 146.461 257.006 141.085 257.047 141.147Z" fill="#D9DAD9"/>
<path d="M260.621 146.493C260.662 146.554 252.584 152.028 242.583 158.719C232.577 165.411 224.435 170.784 224.394 170.723C224.353 170.662 232.428 165.188 242.434 158.496C252.435 151.806 260.579 146.431 260.621 146.493Z" fill="#D9DAD9"/>
<path d="M264.197 151.838C264.238 151.899 256.162 157.374 246.16 164.064C236.154 170.756 228.012 176.129 227.971 176.068C227.93 176.007 236.005 170.533 246.01 163.841C256.013 157.151 264.156 151.776 264.197 151.838Z" fill="#D9DAD9"/>
<path d="M267.77 157.183C267.811 157.244 259.735 162.718 249.733 169.409C239.727 176.101 231.586 181.475 231.544 181.413C231.503 181.352 239.578 175.879 249.583 169.186C259.585 162.496 267.729 157.121 267.77 157.183Z" fill="#D9DAD9"/>
<path d="M132.449 143.967L79.5322 115.666L121.204 37.7471L174.122 66.0482L132.449 143.967Z" fill="#3893D9"/>
<path d="M123.392 119.593L120.034 120.742L111.513 97.1837L114.87 96.0341L123.392 119.593Z" fill="#D9DAD9"/>
<path d="M128.537 102.692L129.76 106.072L106.363 114.085L105.141 110.704L128.537 102.692Z" fill="#D9DAD9"/>
<path d="M145.164 67.9329C145.123 68.0104 139.756 65.2206 133.177 61.7028C126.597 58.1839 121.299 55.2693 121.34 55.1918C121.381 55.1139 126.748 57.9034 133.328 61.4222C139.905 64.9408 145.206 67.8557 145.164 67.9329Z" fill="#D9DAD9"/>
<path d="M157.862 81.9487C157.82 82.0266 148.938 77.357 138.025 71.52C127.107 65.6812 118.294 60.8869 118.335 60.8097C118.376 60.7321 127.258 65.4009 138.175 71.2394C149.088 77.0764 157.903 81.8715 157.862 81.9487Z" fill="#D9DAD9"/>
<path d="M154.743 87.7808C154.701 87.8584 145.819 83.1888 134.905 77.3521C123.988 71.5137 115.175 66.719 115.216 66.6411C115.257 66.564 124.138 71.2325 135.056 77.0716C145.968 82.9083 154.784 87.7036 154.743 87.7808Z" fill="#D9DAD9"/>
<path d="M151.622 93.6129C151.581 93.6908 142.699 89.0213 131.786 83.1843C120.869 77.3455 112.055 72.5512 112.096 72.4737C112.138 72.3965 121.018 77.0649 131.935 82.9037C142.849 88.7401 151.665 93.5357 151.622 93.6129Z" fill="#D9DAD9"/>
<path d="M148.502 99.4454C148.461 99.5229 139.578 94.853 128.665 89.0167C117.748 83.1779 108.934 78.3836 108.976 78.306C109.017 78.2281 117.898 82.8974 128.815 88.7355C139.728 94.5725 148.544 99.3682 148.502 99.4454Z" fill="#D9DAD9"/>
<path d="M147.45 22.6367H148.78V0H147.45V22.6367Z" fill="#C2C4C4"/>
<path d="M117.117 50.02H179.115C179.115 50.02 173.391 22.6224 147.646 22.6224C124.748 22.6224 117.117 50.02 117.117 50.02Z" fill="#FFD717"/>
<path d="M147.45 22.6367H148.78V0H147.45V22.6367Z" fill="#0D63A5"/>
<path d="M5.4621 194.134C7.20241 194.195 8.83552 195.14 9.9837 196.449C11.1315 197.758 11.8351 199.405 12.2851 201.087C13.1559 204.341 12.6206 208.182 11.6926 211.42C8.16904 210.161 5.99634 206.404 5.01397 204.428C3.46127 201.306 2.55073 194.72 5.4621 194.134Z" fill="#FFD717"/>
<path d="M16.7616 215.364C15.6499 213.769 15.6238 211.549 16.5029 209.814C17.3816 208.078 19.0697 206.827 20.929 206.256C21.7888 205.992 22.7866 205.881 23.5345 206.381C24.2335 206.848 24.5355 207.764 24.4454 208.6C24.3554 209.436 23.9315 210.201 23.432 210.877C21.7192 213.197 19.6354 215.127 16.7616 215.364Z" fill="#FFD717"/>
<path d="M17.1512 226.24C17.134 226.243 17.0808 226.001 16.9936 225.564C16.8993 225.081 16.7774 224.458 16.6313 223.709C16.3532 222.149 15.9119 219.932 16.2457 217.48C16.5662 215.039 17.5382 212.952 18.5567 211.706C19.0584 211.076 19.538 210.629 19.8932 210.355C20.0651 210.211 20.2166 210.122 20.3124 210.054C20.411 209.989 20.465 209.959 20.47 209.965C20.5082 210.009 19.6463 210.54 18.6935 211.811C17.7287 213.061 16.8035 215.112 16.4876 217.512C16.1592 219.914 16.5659 222.112 16.801 223.68C16.9271 224.467 17.0286 225.105 17.0876 225.549C17.1458 225.991 17.1673 226.237 17.1512 226.24Z" fill="#0D63A5"/>
<path d="M6.59674 199.088C6.6046 199.084 6.65285 199.176 6.73862 199.354C6.8326 199.557 6.95302 199.816 7.10168 200.138C7.41294 200.822 7.85105 201.815 8.38137 203.048C9.44271 205.513 10.8618 208.938 12.3426 212.756C13.8232 216.576 15.0853 220.063 15.963 222.599C16.4026 223.867 16.7492 224.895 16.9797 225.61C17.0865 225.948 17.173 226.221 17.2402 226.434C17.2974 226.623 17.3235 226.724 17.3152 226.727C17.3077 226.729 17.2659 226.634 17.1937 226.451C17.1155 226.241 17.0147 225.973 16.89 225.641C16.6223 224.908 16.2525 223.896 15.8004 222.657C14.8816 220.137 13.5945 216.662 12.115 212.845C10.6352 209.03 9.24223 205.595 8.22234 203.115C7.72061 201.895 7.31109 200.898 7.01449 200.176C6.88262 199.847 6.7765 199.58 6.69324 199.374C6.62248 199.19 6.58924 199.09 6.59674 199.088Z" fill="#0D63A5"/>
<path d="M12.9667 219.045C10.8887 215.51 7.00962 213.099 2.91934 212.803C1.878 212.726 0.625121 212.902 0.160917 213.837C-0.304358 214.774 0.317804 215.883 1.02715 216.651C3.97962 219.849 8.97365 220.964 13.0053 219.325L12.9667 219.045Z" fill="#FFD717"/>
<path d="M4.50491 215.59C4.50598 215.574 4.73755 215.583 5.15708 215.615C5.36649 215.629 5.62379 215.647 5.91789 215.703C6.21092 215.757 6.55256 215.79 6.91599 215.89C7.28156 215.981 7.68572 216.07 8.10311 216.22C8.52944 216.346 8.96685 216.529 9.4264 216.723C10.3341 217.135 11.2975 217.675 12.2145 218.376C13.125 219.086 13.894 219.879 14.5191 220.657C14.82 221.056 15.1069 221.433 15.331 221.818C15.5783 222.186 15.7623 222.557 15.9349 222.892C16.1197 223.221 16.2287 223.546 16.3494 223.819C16.4717 224.093 16.5474 224.339 16.6085 224.541C16.7332 224.943 16.794 225.165 16.7779 225.171C16.7261 225.188 16.4756 224.289 15.7816 222.971C15.6011 222.646 15.4114 222.285 15.1605 221.926C14.9329 221.553 14.6438 221.186 14.3436 220.797C13.7189 220.04 12.9596 219.267 12.0655 218.57C11.1649 217.881 10.2222 217.346 9.33384 216.929C8.88393 216.731 8.45582 216.544 8.03843 216.413C7.62997 216.255 7.23367 216.157 6.87525 216.058C5.43046 215.693 4.49919 215.644 4.50491 215.59Z" fill="#0D63A5"/>
<path d="M270.095 219.437C270.102 219.456 269.851 219.521 269.5 219.732C269.152 219.939 268.71 220.321 268.426 220.875C268.143 221.43 268.093 222.012 268.13 222.416C268.164 222.824 268.259 223.065 268.24 223.071C268.233 223.073 268.203 223.016 268.164 222.906C268.125 222.796 268.081 222.632 268.053 222.423C267.996 222.011 268.034 221.404 268.329 220.826C268.625 220.248 269.094 219.86 269.462 219.665C269.646 219.565 269.805 219.505 269.917 219.472C270.03 219.439 270.094 219.43 270.095 219.437Z" fill="#2C3C43"/>
<path d="M268.723 221.034C268.752 221.045 268.737 221.153 268.692 221.278C268.646 221.403 268.585 221.495 268.558 221.484C268.529 221.475 268.543 221.365 268.589 221.24C268.635 221.116 268.695 221.024 268.723 221.034Z" fill="#2C3C43"/>
<path d="M269.433 220.297C269.44 220.328 269.331 220.376 269.23 220.473C269.126 220.568 269.071 220.674 269.041 220.664C269.012 220.66 269.028 220.512 269.155 220.394C269.281 220.275 269.43 220.268 269.433 220.297Z" fill="#2C3C43"/>
<path d="M269.975 219.856C269.997 219.876 269.969 219.94 269.912 219.997C269.856 220.055 269.793 220.083 269.772 220.062C269.75 220.041 269.778 219.978 269.834 219.921C269.89 219.864 269.954 219.834 269.975 219.856Z" fill="#2C3C43"/>
<path d="M98.4496 120.712L80.2506 214.279L77.8682 226.527L199.362 225.928C204.814 225.901 209.647 221.06 211.401 213.867L232.944 125.531C234.276 120.071 231.354 114.391 227.216 114.395L104.249 114.525C101.534 114.528 99.1597 117.061 98.4496 120.712Z" fill="#F1626C"/>
<path d="M200.914 225.789C201.789 225.579 202.533 225.345 203.166 225.102C202.439 225.422 201.685 225.654 200.914 225.789Z" fill="#86363E"/>
<path d="M202.158 223.033C188.98 223.033 187.709 207.95 187.708 207.939L176.105 114.449L227.215 114.395C227.217 114.395 227.218 114.395 227.22 114.395C230.669 114.395 233.273 118.345 233.27 122.821C233.269 123.713 233.165 124.625 232.944 125.531L223.67 163.559L219.975 178.707L211.401 213.867C210.496 217.575 208.774 220.659 206.569 222.78C206.681 222.604 206.715 222.499 206.715 222.499C205.057 222.866 203.541 223.033 202.158 223.033Z" fill="#083358"/>
<path d="M187.708 207.939L174.845 104.281C174.318 100.034 170.934 96.8655 166.939 96.8784L138.732 96.9706C136.644 96.9777 134.643 97.8651 133.16 99.4417L119.767 113.679L41.3172 114.089C36.5236 114.114 32.8404 118.65 33.4757 123.747L45.4192 219.553C45.9478 223.795 49.3248 226.959 53.3139 226.951L190.034 226.681C205.261 226.997 206.715 222.499 206.715 222.499C189.264 226.367 187.71 207.951 187.708 207.939Z" fill="#0D63A5"/>
<path d="M124.143 192.146L108.934 178.464L113.545 173.512L128.754 187.194L124.143 192.146ZM103.838 173.88L88.6299 160.198L93.2405 155.246L108.449 168.927L103.838 173.88Z" fill="#FFD717"/>
<path d="M95.1736 193.244L90.0781 188.659L103.839 173.88L108.45 168.927L122.211 154.148L127.307 158.732L113.546 173.512L108.935 178.465L95.1736 193.244Z" fill="#FFD717"/>
</svg>
