<svg width="375" height="440" viewBox="0 0 375 440" fill="none" xmlns="http://www.w3.org/2000/svg">
<path d="M167.869 439.336C167.869 439.336 289.033 454.967 341.863 334.546C378.904 243.381 398.327 135.839 319.289 58.6483C260.559 1.291 208.371 -46.6377 181.968 80.1728C155.565 206.983 63.6535 233.718 18.0704 288.478C-27.5127 343.238 9.85185 429.976 167.869 439.336V439.336Z" fill="white"/>
<path d="M321.995 44.2618H284.463C283.017 44.2618 281.846 43.1027 281.846 41.6756C281.846 40.2531 283.017 39.094 284.463 39.094H321.995C323.441 39.094 324.612 40.2531 324.612 41.6756C324.612 43.1027 323.441 44.2618 321.995 44.2618Z" fill="#FFD717"/>
<path d="M248.244 44.2618H94.5697C93.1233 44.2618 91.9521 43.1027 91.9521 41.6756C91.9521 40.2531 93.1233 39.094 94.5697 39.094H248.244C249.691 39.094 250.862 40.2531 250.862 41.6756C250.862 43.1027 249.691 44.2618 248.244 44.2618Z" fill="#0D63A5"/>
<path d="M70.3286 44.2618H27.85C26.4036 44.2618 25.2324 43.1027 25.2324 41.6756C25.2324 40.2531 26.4036 39.094 27.85 39.094H70.3286C71.7754 39.094 72.9462 40.2531 72.9462 41.6756C72.9462 43.1027 71.7754 44.2618 70.3286 44.2618V44.2618Z" fill="#FFD717"/>
<path d="M321.993 65.7851H289.699C288.253 65.7851 287.081 64.6284 287.081 63.2013C287.081 61.7746 288.253 60.6194 289.699 60.6194H321.993C323.44 60.6194 324.61 61.7746 324.61 63.2013C324.61 64.6284 323.44 65.7851 321.993 65.7851Z" fill="#0D63A5"/>
<path d="M269.92 65.7851H76.9252C75.4802 65.7851 74.3076 64.6284 74.3076 63.2013C74.3076 61.7746 75.4802 60.6194 76.9252 60.6194H269.92C271.366 60.6194 272.537 61.7746 272.537 63.2013C272.537 64.6284 271.366 65.7851 269.92 65.7851Z" fill="#FFD717"/>
<path d="M50.1429 65.7851H27.85C26.4036 65.7851 25.2324 64.6284 25.2324 63.2013C25.2324 61.7746 26.4036 60.6194 27.85 60.6194H50.1429C51.5893 60.6194 52.7605 61.7746 52.7605 63.2013C52.7605 64.6284 51.5893 65.7851 50.1429 65.7851Z" fill="#0D63A5"/>
<path d="M321.998 87.3092H27.85C26.4036 87.3092 25.2324 86.1526 25.2324 84.7258C25.2324 83.2987 26.4036 82.1421 27.85 82.1421H321.998C323.445 82.1421 324.615 83.2987 324.615 84.7258C324.615 86.1526 323.445 87.3092 321.998 87.3092Z" fill="#0D63A5"/>
<path d="M322 108.832H73.2406C71.7942 108.832 70.623 107.676 70.623 106.25C70.623 104.823 71.7942 103.666 73.2406 103.666H322C323.447 103.666 324.617 104.823 324.617 106.25C324.617 107.676 323.447 108.832 322 108.832Z" fill="#FFD717"/>
<path d="M50.1429 108.832H27.85C26.4036 108.832 25.2324 107.676 25.2324 106.25C25.2324 104.823 26.4036 103.666 27.85 103.666H50.1429C51.5893 103.666 52.7605 104.823 52.7605 106.25C52.7605 107.676 51.5893 108.832 50.1429 108.832Z" fill="#0D63A5"/>
<path d="M321.998 130.356H303.235C301.788 130.356 300.613 129.199 300.613 127.775C300.613 126.348 301.788 125.191 303.235 125.191H321.998C323.445 125.191 324.615 126.348 324.615 127.775C324.615 129.199 323.445 130.356 321.998 130.356Z" fill="#FFD717"/>
<path d="M284.467 130.356H27.85C26.4036 130.356 25.2324 129.199 25.2324 127.775C25.2324 126.348 26.4036 125.191 27.85 125.191H284.467C285.913 125.191 287.084 126.348 287.084 127.775C287.084 129.199 285.913 130.356 284.467 130.356Z" fill="#0D63A5"/>
<path d="M321.998 151.881H27.85C26.4036 151.881 25.2324 150.724 25.2324 149.297C25.2324 147.872 26.4036 146.715 27.85 146.715H321.998C323.445 146.715 324.615 147.872 324.615 149.297C324.615 150.724 323.445 151.881 321.998 151.881Z" fill="#FFD717"/>
<path d="M321.998 173.405H300.821C299.374 173.405 298.199 172.248 298.199 170.822C298.199 169.396 299.374 168.24 300.821 168.24H321.998C323.445 168.24 324.615 169.396 324.615 170.822C324.615 172.248 323.445 173.405 321.998 173.405Z" fill="#FFD717"/>
<path d="M278.589 173.405H84.8782C83.4314 173.405 82.2588 172.248 82.2588 170.822C82.2588 169.396 83.4314 168.24 84.8782 168.24H278.589C280.035 168.24 281.208 169.396 281.208 170.822C281.208 172.248 280.035 173.405 278.589 173.405Z" fill="#0D63A5"/>
<path d="M52.8723 173.405H27.85C26.4036 173.405 25.2324 172.248 25.2324 170.822C25.2324 169.396 26.4036 168.24 27.85 168.24H52.8723C54.3184 168.24 55.4899 169.396 55.4899 170.822C55.4899 172.248 54.3184 173.405 52.8723 173.405Z" fill="#FFD717"/>
<path d="M321.997 194.93H274.747C273.301 194.93 272.13 193.773 272.13 192.346C272.13 190.921 273.301 189.764 274.747 189.764H321.997C323.444 189.764 324.614 190.921 324.614 192.346C324.614 193.773 323.444 194.93 321.997 194.93Z" fill="#0D63A5"/>
<path d="M237.916 194.93H27.85C26.4036 194.93 25.2324 193.773 25.2324 192.346C25.2324 190.921 26.4036 189.764 27.85 189.764H237.916C239.362 189.764 240.533 190.921 240.533 192.346C240.533 193.773 239.362 194.93 237.916 194.93Z" fill="#FFD717"/>
<path d="M294.365 400.049H260.369C259.629 400.109 258.884 400.139 258.132 400.139H89.5785C88.8264 400.139 88.0811 400.109 87.3426 400.049H67.034C65.7932 400.047 64.553 400.046 63.3125 400.046C57.5739 400.046 51.8363 400.072 46.0977 400.137C42.9766 400.182 39.8563 400.228 36.7363 400.247C43.4186 405.245 51.0558 409.925 59.6718 414.199L59.4519 414.185C92.7341 416.27 132.224 417.313 171.718 417.313C207.344 417.313 242.967 416.465 274.033 414.768C280.901 410.579 287.721 405.701 294.365 400.049Z" fill="#B2B2D4"/>
<path d="M29.7451 394.619C35.1973 394.561 40.6445 394.639 46.0978 394.718C53.0773 394.798 60.0547 394.818 67.0342 394.807H297.338L307.807 394.803L300.234 394.805C298.296 396.625 296.338 398.37 294.365 400.048H67.0342C60.0547 400.037 53.0773 400.057 46.0978 400.137C42.9771 400.182 39.8568 400.227 36.7361 400.247C34.2817 398.411 31.9444 396.536 29.7451 394.619V394.619Z" fill="#001F3F"/>
<path d="M258.04 378.761L259.142 378.631C289.891 375.026 310.936 346.254 304.716 316.333L293.161 260.799C287.889 235.457 265.278 217.267 239.052 217.267H171.833H173.734H106.515C80.2889 217.267 57.678 235.457 52.4058 260.799L40.8538 316.333C34.6297 346.254 55.6774 375.026 86.4247 378.631L87.5283 378.761H258.04Z" fill="#4D5A6A"/>
<path d="M106.518 217.682C80.6117 217.682 58.0284 235.85 52.8216 260.881L41.2703 316.417C38.3279 330.562 41.5521 345.394 50.12 357.106C58.6857 368.817 71.9378 376.512 86.4776 378.217L87.5794 378.347L258.017 378.343L259.095 378.217C273.634 376.512 286.885 368.817 295.452 357.106C304.018 345.394 307.248 330.564 304.303 316.417L292.749 260.881C287.543 235.85 264.959 217.682 239.054 217.682H106.518V217.682ZM258.067 379.177H87.5305L86.378 379.046C71.6051 377.312 58.138 369.494 49.4336 357.593C40.7291 345.692 37.4521 330.624 40.4417 316.249L51.9937 260.715C57.2817 235.297 80.2132 216.849 106.518 216.849H239.054C265.36 216.849 288.29 235.297 293.577 260.715L305.128 316.249C308.118 330.624 304.842 345.694 296.138 357.594C287.433 369.494 273.968 377.314 259.194 379.046L258.067 379.177Z" fill="#000072"/>
<path d="M71.1311 371.478C66.7257 369.408 62.6366 366.712 59.0067 363.474C56.3363 360.3 54.0486 356.821 52.1982 353.113C57.5635 356.263 63.5828 358.516 70.0804 359.638L71.1311 371.478V371.478ZM276.671 370.36L279.122 342.785C289.689 330.963 294.777 314.546 291.281 297.765L288.58 284.782L292.407 270.67L302.02 316.877C304.836 330.398 301.753 344.571 293.564 355.764C289.092 361.877 283.284 366.844 276.671 370.36V370.36Z" fill="#083358"/>
<path d="M52.2013 353.113C51.0909 352.461 50.006 351.769 48.9534 351.042C43.0908 340.729 41.1205 328.559 43.5508 316.877L54.1124 266.104L56.8888 276.359L47.8815 319.648C45.4213 331.48 47.2228 343.128 52.2013 353.113V353.113Z" fill="#AFB5BC"/>
<path d="M59.0124 363.473C56.4268 361.168 54.0759 358.588 52.0096 355.763C50.8959 354.24 49.8771 352.664 48.9561 351.042C50.0086 351.769 51.0935 352.46 52.204 353.112C54.0543 356.821 56.342 360.3 59.0124 363.473V363.473Z" fill="#A4A8BD"/>
<path d="M87.6896 376.049H257.876L258.819 375.939C272.711 374.311 285.375 366.956 293.563 355.764C301.752 344.571 304.835 330.398 302.02 316.878L290.467 261.344C285.48 237.374 263.858 219.977 239.051 219.977H106.515C81.7091 219.977 60.0857 237.374 55.0988 261.344L43.5468 316.878C40.7334 330.398 43.8153 344.572 52.0029 355.763C60.1902 366.956 72.8541 374.311 86.7488 375.939L87.6896 376.049V376.049ZM258.04 381.473H87.5275C87.419 381.473 87.3112 381.467 87.203 381.453L86.1012 381.325C70.6825 379.516 56.6297 371.357 47.5447 358.937C38.4604 346.517 35.04 330.79 38.1593 315.788L49.7113 260.254C55.2203 233.774 79.1099 214.554 106.515 214.554H239.051C266.455 214.554 290.345 233.774 295.854 260.254L307.406 315.788C310.525 330.791 307.106 346.519 298.02 358.937C288.936 371.357 274.883 379.516 259.466 381.325L258.364 381.453C258.256 381.467 258.148 381.473 258.04 381.473Z" fill="#001F3F"/>
<path d="M270.683 176.247C270.517 176.879 270.343 177.52 270.169 178.144C270.032 178.624 269.893 179.094 269.757 179.564C269.701 179.744 269.655 179.916 269.591 180.097C269.481 180.486 269.353 180.874 269.234 181.254C269.079 181.751 268.913 182.239 268.748 182.728C268.675 182.945 268.602 183.161 268.528 183.37C268.29 184.075 268.043 184.77 267.778 185.456C267.502 186.217 267.208 186.967 266.906 187.708C266.614 188.459 266.301 189.199 265.981 189.941C265.669 190.672 265.339 191.414 265.002 192.138C264.68 192.842 264.349 193.537 264.011 194.235C263.965 194.325 263.92 194.415 263.874 194.504C263.562 195.156 263.232 195.797 262.892 196.44C262.884 196.458 262.875 196.474 262.865 196.493C262.499 197.208 262.123 197.903 261.738 198.608C261.28 199.44 260.812 200.263 260.327 201.077C259.998 201.645 259.658 202.205 259.32 202.767C259.301 202.784 259.291 202.802 259.291 202.812C258.87 203.499 258.44 204.177 258 204.854C257.267 205.984 256.515 207.104 255.736 208.216C255.398 208.704 255.049 209.184 254.702 209.663C254.407 210.07 254.113 210.468 253.812 210.875C253.363 211.48 252.905 212.077 252.447 212.673C251.998 213.252 251.548 213.812 251.09 214.382C250.833 214.697 250.576 215.013 250.321 215.322C250.156 215.521 249.99 215.719 249.826 215.917C249.513 216.279 249.211 216.641 248.9 217.002C248.057 217.979 247.195 218.946 246.317 219.904C245.894 220.374 245.454 220.834 245.015 221.296C244.694 221.631 244.373 221.975 244.054 222.308C243.594 222.778 243.146 223.24 242.678 223.692C242.019 224.352 241.34 225.012 240.662 225.662C240.113 226.187 239.562 226.702 239.004 227.207C238.921 227.289 238.839 227.371 238.756 227.434C238.188 227.967 237.61 228.482 237.024 228.997C235.952 229.946 234.862 230.867 233.754 231.781C233.478 232.008 233.203 232.233 232.919 232.468C232.36 232.919 231.792 233.371 231.214 233.824C229.216 235.388 227.173 236.897 225.085 238.352C225.047 238.38 225.002 238.407 224.965 238.434C216.819 244.092 207.958 248.295 198.758 251.052C195.569 252.01 192.333 252.797 189.071 253.411C174.619 256.122 159.647 255.409 145.471 251.287C135.942 248.521 126.769 244.209 118.347 238.352C117.688 237.892 117.029 237.422 116.368 236.952C116.304 236.897 116.239 236.852 116.167 236.807C115.516 236.328 114.866 235.848 114.223 235.37C113.554 234.863 112.887 234.348 112.218 233.824H112.207C111.548 233.299 110.898 232.776 110.247 232.251C109.587 231.718 108.946 231.175 108.304 230.632C107.663 230.091 107.031 229.549 106.408 228.997C105.776 228.437 105.152 227.886 104.539 227.316C103.924 226.755 103.318 226.187 102.714 225.607C102.11 225.038 101.514 224.46 100.927 223.872C100.341 223.285 99.7549 222.696 99.1763 222.101C98.6003 221.495 98.0228 220.889 97.4446 220.274C96.8958 219.677 96.3546 219.081 95.8138 218.468C95.393 217.998 94.9707 217.517 94.5582 217.039C93.3583 215.637 92.1857 214.21 91.0505 212.755C90.5905 212.158 90.124 211.562 89.6845 210.955C89.6206 210.883 89.5649 210.801 89.511 210.73C89.198 210.323 88.8957 209.906 88.6032 209.491C87.924 208.551 87.2646 207.611 86.6228 206.652C86.2663 206.129 85.908 205.596 85.5699 205.062C85.0477 204.257 84.5342 203.454 84.0304 202.631C83.6821 202.052 83.3242 201.465 82.9756 200.877C82.4991 200.055 82.033 199.215 81.5648 198.373C81.227 197.741 80.887 197.108 80.5578 196.474C80.2179 195.833 79.8884 195.182 79.5757 194.533C79.5218 194.441 79.4762 194.351 79.4388 194.261C78.7427 192.859 78.0919 191.441 77.4871 190.012C77.4501 189.949 77.4228 189.896 77.4041 189.832C77.1019 189.127 76.8094 188.422 76.5255 187.708C76.2232 186.967 75.9293 186.217 75.6554 185.456C75.3698 184.706 75.0963 183.948 74.839 183.188C74.6464 182.627 74.4537 182.058 74.2712 181.489C74.1242 181.038 73.9877 180.586 73.8486 180.132C73.7846 179.934 73.7206 179.726 73.6664 179.527C73.5295 179.084 73.4008 178.651 73.2812 178.208C73.0986 177.557 72.9243 176.907 72.7504 176.247C65.8963 128.521 109.889 75.5936 153.848 52.8972C165.026 47.1218 178.405 47.1218 189.585 52.8972C190.574 53.4041 191.554 53.9461 192.544 54.5061L192.554 54.5161C235.503 78.8657 277.38 129.598 270.683 176.247V176.247Z" fill="#4D5A6A"/>
<path d="M264.796 162.244H264.794C265.057 166.013 265.038 169.78 264.717 173.523H264.718C264.605 174.844 264.457 176.165 264.269 177.485C264.101 178.123 263.928 178.76 263.755 179.384C263.617 179.861 263.479 180.333 263.341 180.804C263.286 180.983 263.241 181.156 263.177 181.335C263.064 181.727 262.935 182.112 262.817 182.497C262.664 182.987 262.496 183.479 262.333 183.97C262.259 184.182 262.185 184.401 262.111 184.607C261.873 185.311 261.626 186.008 261.36 186.698C261.088 187.455 260.797 188.205 260.49 188.948C260.199 189.698 259.888 190.435 259.567 191.178C259.255 191.908 258.925 192.651 258.584 193.375C258.263 194.078 257.937 194.775 257.596 195.472C257.551 195.565 257.502 195.651 257.458 195.744C257.314 196.047 257.167 196.346 257.014 196.644H257.016C256.838 196.989 256.661 197.335 256.478 197.68C256.468 197.697 256.458 197.717 256.448 197.733C256.083 198.447 255.707 199.141 255.322 199.849C254.862 200.68 254.398 201.501 253.909 202.316C253.583 202.886 253.242 203.445 252.906 204.005C252.886 204.025 252.877 204.042 252.877 204.052C252.452 204.739 252.022 205.417 251.583 206.094C251.136 206.787 250.678 207.478 250.211 208.165H250.212L250.17 208.225L250.169 208.227L250.156 208.246L250.145 208.263L250.142 208.266L250.129 208.286L250.12 208.298L250.115 208.307L250.101 208.327L250.096 208.335L250.087 208.347L250.073 208.367L250.071 208.37L250.059 208.387L250.046 208.407H250.046C249.806 208.757 249.565 209.107 249.319 209.457C248.983 209.943 248.635 210.424 248.286 210.903C247.991 211.309 247.699 211.707 247.397 212.113C246.948 212.719 246.49 213.315 246.032 213.913L245.958 214.007L245.954 214.012L245.95 214.017L245.946 214.022L245.942 214.027L245.939 214.032L245.938 214.033L245.934 214.038L245.93 214.043L245.926 214.048L245.922 214.053L245.918 214.058L245.917 214.059L245.913 214.064L245.909 214.069L245.905 214.074L245.879 214.108L245.876 214.111L245.872 214.116C245.476 214.622 245.079 215.117 244.674 215.621C244.418 215.937 244.163 216.253 243.906 216.562C243.739 216.759 243.574 216.958 243.411 217.159C243.1 217.519 242.795 217.881 242.484 218.241L242.483 218.242V218.246C241.64 219.222 240.78 220.184 239.901 221.146C239.481 221.611 239.037 222.075 238.601 222.533C238.277 222.872 237.959 223.217 237.639 223.549C237.179 224.02 236.729 224.478 236.263 224.93L235.658 225.528H235.661C235.195 225.988 234.72 226.447 234.246 226.9C233.697 227.426 233.147 227.94 232.588 228.448C232.506 228.527 232.423 228.61 232.341 228.673C231.941 229.048 231.536 229.415 231.127 229.779V229.783C230.955 229.935 230.782 230.081 230.61 230.234C229.537 231.19 228.447 232.105 227.339 233.021C227.063 233.247 226.788 233.473 226.504 233.705C226.077 234.05 225.643 234.402 225.205 234.747V234.743L224.8 235.061C224.051 235.648 223.297 236.225 222.536 236.797C221.517 237.488 220.487 238.155 219.447 238.797V238.795C217.586 239.947 215.691 241.025 213.769 242.029V242.028C210.157 243.915 206.442 245.539 202.655 246.907L202.595 246.929L202.564 246.939L202.414 246.994V246.994C200.564 247.654 198.697 248.253 196.817 248.791C198.71 248.046 200.578 247.213 202.414 246.294V246.293C204.851 245.071 207.239 243.695 209.554 242.162L210.184 241.741C211.508 240.847 212.783 239.895 214.011 238.893V238.894C215.949 237.315 217.763 235.609 219.447 233.794V233.793C221.583 231.493 223.507 229.01 225.205 226.388V226.384C227.545 222.765 229.451 218.867 230.882 214.774L230.914 214.684L230.919 214.67L230.945 214.594L230.976 214.504L230.989 214.467L231.007 214.414L231.038 214.324L231.059 214.263L231.069 214.234L231.099 214.143L231.127 214.059C231.692 212.369 232.176 210.645 232.579 208.901C232.751 208.907 232.93 208.914 233.105 208.914C233.548 208.914 233.991 208.881 234.441 208.821C237.107 208.442 239.769 207.007 242.237 204.707V204.702C244.385 202.702 246.379 200.051 248.094 196.886H248.093C248.878 195.439 249.599 193.886 250.251 192.24C253.886 182.331 252.819 176.676 250.898 173.523H250.901C250.185 172.338 249.349 171.506 248.593 170.928C246.95 169.673 244.895 169.004 242.643 168.906C243.199 166.682 243.671 164.397 244.037 162.066H244.036C244.615 158.365 244.941 154.553 244.992 150.692C245.173 137.229 242.028 124.839 236.056 115.178L242.62 116.566C242.773 116.6 242.929 116.615 243.083 116.615C243.687 116.615 244.273 116.37 244.694 115.924C245.223 115.366 245.416 114.575 245.202 113.839C240.98 99.3341 227.461 88.9559 211.713 82.8353C204.697 73.4007 196.523 64.563 187.717 56.6619C225.465 78.6447 261.935 120.748 264.796 162.244V162.244Z" fill="#083358"/>
<path d="M78.1861 160.64L75.0381 160.612C76.395 143.338 83.7558 124.699 96.4977 106.741C97.1786 105.785 97.8715 104.831 98.5762 103.883C99.0527 105.14 99.8401 106.473 100.986 107.83C89.0133 124.232 80.5201 142.456 78.1861 160.64V160.64ZM111.937 94.3768C110.156 93.9482 108.533 93.7564 107.082 93.7564C106.972 93.7564 106.864 93.7564 106.755 93.76C120.563 77.9662 137.589 64.3542 155.125 55.2996C160.322 52.6162 166.019 51.2742 171.719 51.2742C176.081 51.2742 180.441 52.0597 184.576 53.6311C182.148 53.1663 179.682 52.9327 177.217 52.9327C171.077 52.9327 164.938 54.3779 159.348 57.2651C146.307 63.9993 133.265 73.3921 121.545 84.5235C120.673 84.9322 119.907 85.5905 119.313 86.4688C119.203 86.6326 119.098 86.8056 119 86.9871C116.579 89.3791 114.221 91.8448 111.937 94.3768V94.3768Z" fill="#AFB5BC"/>
<path d="M270.682 176.247H270.691H270.682ZM79.879 188.681L79.8808 188.683L79.879 188.681ZM80.0482 189.093L80.05 189.096L80.0482 189.093ZM237.072 225.291L237.052 225.307L237.072 225.291ZM114.584 239.016L114.587 239.018L114.584 239.016ZM118.045 234.804C118.676 235.252 119.306 235.7 119.936 236.14C150.854 257.658 192.427 257.69 223.384 236.217C223.426 236.186 223.473 236.156 223.5 236.137C225.54 234.716 227.562 233.223 229.505 231.702C230.071 231.259 230.628 230.815 231.176 230.372L231.99 229.7C233.023 228.851 234.101 227.933 235.197 226.971C235.759 226.478 236.315 225.983 236.861 225.471C236.906 225.426 236.957 225.382 237.008 225.341L237.058 225.291C237.087 225.264 237.116 225.237 237.145 225.211C237.685 224.721 238.218 224.221 238.75 223.714C239.409 223.082 240.073 222.435 240.719 221.788C241.195 221.329 241.619 220.892 242.052 220.449L243.015 219.435C243.456 218.974 243.865 218.545 244.254 218.11C245.131 217.156 245.981 216.2 246.807 215.245L248.188 213.611C248.445 213.301 248.693 212.994 248.942 212.689C249.386 212.139 249.824 211.591 250.263 211.026C250.702 210.452 251.154 209.867 251.593 209.272C251.889 208.877 252.174 208.489 252.46 208.09C252.803 207.621 253.139 207.157 253.469 206.685C254.191 205.655 254.914 204.58 255.684 203.393C256.11 202.736 256.529 202.078 256.939 201.411L256.958 201.378C257.288 200.831 257.619 200.286 257.94 199.731C258.427 198.916 258.878 198.12 259.323 197.315C259.691 196.641 260.056 195.964 260.413 195.27L260.455 195.187C260.776 194.577 261.09 193.969 261.386 193.35L261.555 193.013C261.861 192.387 262.18 191.713 262.489 191.03C262.831 190.305 263.147 189.593 263.446 188.891C263.76 188.166 264.059 187.454 264.34 186.734C264.644 185.988 264.925 185.271 265.187 184.545C265.459 183.841 265.694 183.181 265.92 182.512L266.175 181.768C266.322 181.332 266.469 180.897 266.608 180.454L266.709 180.133C266.788 179.88 266.87 179.625 266.942 179.37C266.959 179.313 266.976 179.255 266.998 179.198C267.023 179.123 267.044 179.05 267.066 178.974L267.524 177.407C267.674 176.863 267.831 176.288 267.98 175.718C270.968 154.568 263.497 130.08 246.934 106.742C231.866 85.5076 210.497 66.7569 188.309 55.3C177.919 49.933 165.512 49.933 155.121 55.3C132.933 66.7569 111.565 85.5076 96.494 106.742C79.9354 130.08 72.4643 154.566 75.4484 175.716C75.6073 176.31 75.7643 176.896 75.93 177.483C76.0482 177.927 76.1686 178.328 76.2951 178.737C76.3623 178.978 76.4169 179.151 76.469 179.318C76.6145 179.792 76.7475 180.229 76.888 180.667C77.0673 181.224 77.2564 181.775 77.4425 182.32C77.6926 183.06 77.9564 183.789 78.2281 184.511C78.5055 185.272 78.7858 185.989 79.0751 186.697C79.359 187.411 79.6425 188.094 79.9368 188.778L79.9519 188.816C79.9771 188.866 80.0012 188.918 80.0227 188.968C80.5639 190.245 81.182 191.59 81.9137 193.082C81.9309 193.117 81.9478 193.154 81.9626 193.19C81.9981 193.25 82.0305 193.312 82.061 193.373C82.3586 193.994 82.6708 194.614 82.9936 195.223C83.3267 195.86 83.6609 196.484 83.9944 197.107L84.0468 197.201C84.4827 197.984 84.9186 198.767 85.3628 199.534C85.5874 199.914 85.8329 200.319 86.0761 200.721L86.392 201.248C86.8736 202.033 87.3752 202.817 87.8845 203.601C88.2223 204.131 88.5618 204.64 88.9032 205.141C89.4962 206.027 90.1265 206.928 90.8416 207.921C91.1302 208.329 91.4109 208.715 91.7016 209.093C91.7134 209.11 91.7713 209.187 91.7828 209.204L91.7458 209.164C91.808 209.232 91.8655 209.304 91.9179 209.377C92.2492 209.834 92.5975 210.284 92.9439 210.733L93.2397 211.119C94.3008 212.476 95.4551 213.886 96.6579 215.29C97.0553 215.751 97.4643 216.217 97.8714 216.671C98.4173 217.29 98.9445 217.872 99.4803 218.452C100.034 219.042 100.607 219.643 101.178 220.245C101.721 220.804 102.285 221.369 102.85 221.934C103.453 222.539 104.028 223.097 104.612 223.647C105.218 224.226 105.807 224.781 106.405 225.326C106.992 225.871 107.57 226.383 108.156 226.903L108.244 226.981C108.851 227.518 109.468 228.046 110.093 228.576C110.718 229.105 111.345 229.635 111.988 230.155C112.624 230.668 113.212 231.14 113.802 231.61C113.844 231.639 113.886 231.67 113.926 231.702C114.582 232.215 115.238 232.722 115.896 233.218C116.494 233.665 117.116 234.124 117.736 234.581C117.844 234.65 117.946 234.724 118.045 234.804V234.804ZM171.714 257.72C152.451 257.72 133.192 252.002 116.762 240.569C116.092 240.101 115.424 239.625 114.757 239.149C114.723 239.126 114.689 239.099 114.655 239.074C114.61 239.044 114.564 239.013 114.52 238.981C113.829 238.471 113.19 238.001 112.564 237.533C111.914 237.041 111.276 236.549 110.638 236.051C110.585 236.016 110.534 235.977 110.483 235.937C109.839 235.426 109.204 234.914 108.568 234.4C107.828 233.804 107.171 233.249 106.516 232.693C105.858 232.137 105.209 231.582 104.57 231.017L104.48 230.936C103.862 230.388 103.255 229.85 102.654 229.292C102.04 228.733 101.42 228.148 100.8 227.554C100.192 226.981 99.5748 226.383 98.9682 225.776C98.3462 225.154 97.7615 224.568 97.1872 223.972C96.5921 223.349 96.0107 222.739 95.4296 222.119C94.8464 221.487 94.2904 220.876 93.7363 220.245C93.3205 219.78 92.8842 219.287 92.4606 218.792C91.2028 217.325 89.995 215.851 88.8691 214.409L88.5669 214.016C88.2082 213.551 87.8485 213.084 87.5039 212.613C87.4417 212.534 87.381 212.454 87.3231 212.376C86.9832 211.932 86.6608 211.487 86.3464 211.042C85.6097 210.022 84.9452 209.069 84.3286 208.148C83.9671 207.621 83.5933 207.062 83.2404 206.505C82.7183 205.702 82.1925 204.877 81.6758 204.033L81.3531 203.498C81.103 203.083 80.8496 202.664 80.6024 202.246C80.1294 201.429 79.6781 200.621 79.2271 199.811L79.1541 199.679C78.7894 198.999 78.4448 198.357 78.1116 197.715C77.7789 197.088 77.4493 196.437 77.1349 195.787C77.0605 195.65 76.9915 195.513 76.9301 195.375C76.1901 193.865 75.5584 192.488 74.9992 191.175C74.945 191.07 74.8857 190.943 74.8332 190.798C74.5342 190.101 74.2453 189.404 73.9646 188.698C73.6588 187.946 73.3512 187.162 73.0637 186.369C72.783 185.626 72.4981 184.837 72.2307 184.047C72.0363 183.482 71.8386 182.897 71.6496 182.31C71.5008 181.847 71.3589 181.382 71.2151 180.915C71.1526 180.718 71.0782 180.477 71.0143 180.245C70.8888 179.845 70.7501 179.378 70.6222 178.903C70.4447 178.27 70.2675 177.605 70.0896 176.931C70.0627 176.831 70.0425 176.73 70.0275 176.628C65.8765 147.728 79.6799 120.981 91.9905 103.633C107.549 81.7091 129.63 62.343 152.571 50.4966C164.559 44.3026 178.873 44.3026 190.859 50.4966C213.802 62.343 235.882 81.7102 251.44 103.633C263.75 120.981 277.555 147.728 273.404 176.628C273.389 176.728 273.369 176.826 273.343 176.923C273.175 177.571 272.997 178.226 272.818 178.865L272.348 180.483C272.306 180.623 272.266 180.762 272.216 180.903C272.135 181.188 272.044 181.473 271.954 181.755L271.86 182.055C271.709 182.535 271.551 183.005 271.393 183.476L271.358 183.582C271.278 183.815 271.201 184.044 271.123 184.262C270.885 184.971 270.625 185.703 270.344 186.424C270.079 187.164 269.773 187.948 269.455 188.723C269.166 189.463 268.842 190.235 268.51 191.005C268.191 191.753 267.846 192.523 267.495 193.277C267.177 193.974 266.837 194.692 266.488 195.41L266.329 195.724C266.033 196.346 265.687 197.021 265.33 197.694C264.942 198.454 264.554 199.169 264.159 199.894C263.681 200.762 263.198 201.613 262.697 202.453C262.375 203.008 262.026 203.583 261.68 204.156L261.668 204.175L261.643 204.217C261.21 204.923 260.768 205.62 260.314 206.317C259.509 207.559 258.75 208.685 257.998 209.759C257.653 210.256 257.293 210.749 256.935 211.244C256.639 211.654 256.338 212.061 256.029 212.478C255.571 213.094 255.105 213.703 254.638 214.311C254.17 214.914 253.71 215.487 253.241 216.07C252.972 216.403 252.707 216.73 252.441 217.046L250.993 218.76C250.132 219.758 249.242 220.756 248.352 221.725C247.948 222.177 247.5 222.647 247.054 223.116L246.047 224.174C245.545 224.689 245.082 225.164 244.602 225.629C243.962 226.27 243.271 226.943 242.578 227.608C242.018 228.141 241.466 228.66 240.901 229.17C240.796 229.272 240.69 229.372 240.585 229.46C240.016 229.993 239.438 230.508 238.851 231.023C237.712 232.022 236.59 232.977 235.514 233.864L234.686 234.546C234.091 235.027 233.511 235.489 232.923 235.949C230.899 237.534 228.795 239.088 226.669 240.568C226.652 240.58 226.598 240.617 226.568 240.638L226.546 240.653C210.142 252.031 190.926 257.718 171.714 257.72V257.72Z" fill="#001F3F"/>
<path d="M248.726 189.944C248.557 190.452 248.373 190.967 248.182 191.496C243.087 204.369 233.095 211.23 227.043 203.462L230.653 185.977L233.108 174.09C242.549 167.73 255.138 170.588 248.726 189.944V189.944Z" fill="#FDBD91"/>
<path d="M229.415 202.862C230.712 204.203 232.164 204.743 233.82 204.512C238.151 203.901 243.094 198.354 246.122 190.707C249.058 182.704 248.98 176.73 245.891 174.368C243.476 172.521 239.12 172.973 235.081 175.42L229.415 202.862V202.862ZM233.103 208.914C230.124 208.914 227.388 207.482 225.29 204.79C224.899 204.29 224.751 203.648 224.877 203.03L230.944 173.658C231.057 173.102 231.387 172.614 231.86 172.294C237.749 168.328 244.475 167.779 248.593 170.929C251.358 173.042 255.248 178.62 250.251 192.238C246.533 201.635 240.483 207.971 234.442 208.818C233.993 208.882 233.547 208.914 233.103 208.914V208.914Z" fill="#001F3F"/>
<path d="M94.7263 189.944C94.8952 190.452 95.0796 190.967 95.2704 191.496C100.365 204.369 110.357 211.23 116.409 203.462L112.799 185.977L110.343 174.09C100.903 167.73 88.315 170.588 94.7263 189.944Z" fill="#FDBD91"/>
<path d="M101.388 173.233C99.8854 173.233 98.5572 173.605 97.56 174.367C94.4709 176.729 94.3929 182.703 97.349 190.756C100.357 198.353 105.3 203.901 109.631 204.511C111.289 204.743 112.737 204.203 114.036 202.861L108.369 175.419C106 173.982 103.519 173.233 101.388 173.233ZM110.347 208.913C109.907 208.913 109.458 208.882 109.009 208.818C102.969 207.97 96.9196 201.634 93.2203 192.288C88.2029 178.619 92.0952 173.042 94.8579 170.928C98.9776 167.778 105.702 168.326 111.591 172.293C112.064 172.613 112.394 173.102 112.507 173.657L118.574 203.029C118.702 203.647 118.552 204.289 118.161 204.789C116.064 207.479 113.327 208.913 110.347 208.913Z" fill="#001F3F"/>
<path d="M231.774 186.42V196.471C231.774 213.762 223.385 230.159 208.936 239.951C208.73 240.089 208.524 240.219 208.327 240.356C186.291 254.928 157.439 254.928 135.405 240.364C135.205 240.226 134.999 240.089 134.793 239.951C120.339 230.166 111.949 213.769 111.949 196.471V186.42C111.949 186.42 111.987 185.775 112.059 184.614C112.604 175.439 115.067 134.275 115.464 133.224C128.581 98.3976 259.721 106.934 231.774 186.42V186.42Z" fill="#FDBD91"/>
<path d="M162.531 114.219C157.291 114.219 152.125 114.6 147.206 115.377C130.633 117.991 119.221 124.553 115.895 133.381C115.578 134.539 113.878 161.721 112.519 184.64C112.445 185.801 112.409 186.446 112.409 186.446V196.472C112.409 213.866 120.875 229.981 135.055 239.578C135.3 239.743 135.49 239.87 135.67 239.994C157.657 254.525 186.081 254.521 208.073 239.981C208.192 239.9 208.322 239.815 208.453 239.728L208.682 239.576C222.855 229.971 231.318 213.858 231.318 196.472L231.341 186.273C246.67 142.675 212.855 125.404 197.606 120.002C186.903 116.21 174.521 114.219 162.531 114.219V114.219ZM171.859 251.793C159.08 251.793 146.302 248.109 135.152 240.74C134.966 240.611 134.782 240.488 134.597 240.365C120.108 230.558 111.493 214.165 111.493 196.472V186.421C111.495 186.394 111.531 185.749 111.605 184.587C112.502 169.454 114.631 134.139 115.037 133.066C118.479 123.924 130.151 117.152 147.06 114.483C163.381 111.908 182.394 113.653 197.915 119.152C213.415 124.641 247.767 142.19 232.234 186.496V196.472C232.234 214.156 223.622 230.548 209.197 240.323L208.961 240.48C208.835 240.561 208.712 240.643 208.592 240.726C197.434 248.104 184.647 251.793 171.859 251.793V251.793Z" fill="#000072"/>
<path d="M117.705 181.606C122.544 173.796 125.012 168.047 126.617 161.058L130.765 161.093C128.79 168.277 124.741 174.257 117.705 181.606ZM204.463 161.726H204.448C200.648 162.292 196.528 162.622 192.259 162.622C187.964 162.622 183.545 162.286 179.151 161.506H179.153C173.594 160.52 168.114 158.819 163.103 156.194C162.879 156.077 162.649 156.023 162.429 156.023C161.451 156.023 160.65 157.062 161.15 158.062C161.427 158.614 161.539 158.801 161.539 158.801C160.754 159.279 159.205 159.51 157.207 159.51C151.605 159.51 142.483 157.695 136.86 154.466C136.309 154.151 135.719 154.007 135.141 154.007C133.49 154.007 131.932 155.19 131.651 156.962C131.424 158.391 131.131 159.762 130.767 161.092L126.622 161.056C127.782 156.03 128.5 150.366 129.355 142.836C134.516 150.51 142.224 154.543 152.351 154.85C152.373 154.85 152.397 154.85 152.418 154.85C153.274 154.85 154.054 154.36 154.417 153.59C154.789 152.801 154.647 151.868 154.058 151.219C154.013 151.171 150.751 147.537 149.257 142.924C164.241 154.332 180.524 160.059 197.917 160.059C204.517 160.059 211.279 159.234 218.189 157.58C218.202 157.777 218.215 157.984 218.231 158.196C214.679 159.64 209.905 160.919 204.463 161.726V161.726Z" fill="#B18488"/>
<path d="M115.467 133.22H115.475H115.467ZM117.55 133.935L117.535 133.977C117.54 133.965 117.545 133.951 117.55 133.935ZM117.535 133.978H117.533H117.535ZM114.157 186.484V196.471C114.157 213.299 122.341 228.882 136.046 238.159C136.242 238.292 136.438 238.423 136.636 238.554C158.042 252.704 185.7 252.702 207.097 238.55L207.685 238.157C221.39 228.877 229.571 213.294 229.571 196.471V186.42C229.571 186.177 229.611 185.935 229.691 185.707C244.509 143.568 211.781 126.856 197.022 121.627C165.032 110.294 124.323 116.57 117.594 133.821C117.187 136.632 115.328 166.652 114.157 186.484V186.484ZM171.865 253.52C158.746 253.52 145.629 249.737 134.182 242.171C133.971 242.031 133.759 241.889 133.548 241.747C118.643 231.659 109.746 214.733 109.746 196.471V186.42C109.746 186.377 109.746 186.335 109.75 186.294C112.834 133.993 113.26 132.833 113.398 132.463C121.471 111.039 166.947 106.348 198.514 117.531C213.551 122.859 224.935 131.308 231.44 141.964C239.093 154.506 239.948 169.583 233.981 186.783V196.471C233.981 214.728 225.085 231.653 210.184 241.742L209.556 242.162C198.108 249.734 184.987 253.519 171.865 253.52V253.52Z" fill="#001F3F"/>
<path d="M231.087 111.901C247.629 132.752 245.57 169.037 231.637 188.053C220.976 182.25 220.271 154.807 220.271 154.807C195.036 161.581 169.502 157.447 146.349 137.771C145.855 145.502 152.422 152.675 152.422 152.675C149.443 152.588 146.775 152.16 144.379 151.449C136.003 148.976 131.018 142.994 127.967 135.472C125.026 161.581 124.842 167.383 111.953 186.421C99.0865 159.224 96.719 125.681 118.167 115.651C88.2629 105.497 99.2924 84.944 125.026 103.198C112.403 85.3059 128.335 78.41 131.643 98.1211C150.252 64.5935 232.006 76.3647 243.086 114.44L231.115 111.908C231.093 111.901 231.087 111.901 231.087 111.901V111.901Z" fill="#AC3D50"/>
<path d="M220.709 154.22L220.724 154.795C220.731 155.063 221.527 181.43 231.503 187.454C244.767 168.967 247.265 133.034 230.722 112.179L230.141 111.449L231.261 111.483L242.419 113.838C235.999 93.6007 209.919 81.9858 186.678 79.4385C166.561 77.232 141.643 81.0386 132.042 98.3393L131.404 99.4864L131.186 98.1961C129.898 90.5168 126.737 87.2195 124.42 86.7297C123.244 86.4815 122.216 86.9044 121.527 87.9264C120.011 90.1733 120.116 95.4542 125.397 102.94L126.925 105.105L124.755 103.565C113.951 95.9023 106.195 95.4043 102.842 97.3046C101.28 98.1894 100.513 99.6448 100.684 101.403C101.044 105.14 105.875 111.001 118.311 115.223L119.374 115.585L118.358 116.06C97.4779 125.823 99.3606 158.236 112.021 185.498C123.878 167.857 124.591 161.488 127.154 138.571L127.71 133.631L128.389 135.305C131.786 143.677 137.057 148.818 144.505 151.016C146.63 151.646 148.947 152.037 151.399 152.178C149.702 150.074 145.478 144.152 145.887 137.743L145.944 136.834L146.642 137.43C168.404 155.922 193.132 161.623 220.145 154.372L220.709 154.22V154.22ZM231.766 188.641L231.411 188.448C221.379 182.989 219.994 159.489 219.827 155.392C193.024 162.419 168.455 156.816 146.776 138.729C146.846 145.822 152.695 152.305 152.758 152.371L153.476 153.157L152.404 153.127C149.486 153.041 146.74 152.623 144.24 151.883C136.998 149.743 131.744 144.946 128.225 137.238L128.065 138.671C125.449 162.05 124.746 168.332 112.331 186.671L111.877 187.339L111.533 186.613C98.5746 159.219 96.4206 126.368 116.991 115.722C104.913 111.396 100.163 105.572 99.7713 101.488C99.5654 99.3559 100.495 97.5924 102.386 96.5209C105.929 94.5138 113.221 94.8726 123.357 101.513C119.11 94.6592 119.231 89.6983 120.763 87.4244C121.662 86.0927 123.072 85.5177 124.612 85.846C127.194 86.3929 130.38 89.5764 131.864 96.8278C142.098 80.0553 166.787 76.3483 186.78 78.5403C210.601 81.1506 237.385 93.2271 243.521 114.315L243.733 115.04L232.197 112.601C248.248 134.017 245.461 169.952 232.005 188.318L231.766 188.641V188.641Z" fill="#000072"/>
<path d="M122.098 161.017L116.341 160.967C119.303 152.817 120.315 144.484 121.77 131.495C121.875 130.561 122.65 130.033 123.435 130.033C124.006 130.033 124.583 130.316 124.903 130.926C125.41 131.89 125.895 132.91 126.336 134.003C126.03 134.335 125.826 134.76 125.772 135.23L125.419 138.382C124.296 148.412 123.539 155.171 122.098 161.017V161.017ZM113.034 180.788C112.066 178.241 111.206 175.667 110.461 173.075C113.048 168.755 114.919 164.879 116.342 160.968L122.098 161.019C120.466 167.641 117.954 173.086 113.034 180.788V180.788Z" fill="#782B5A"/>
<path d="M105.454 106.249C103.557 104.438 102.567 102.691 102.427 101.239C102.322 100.147 102.743 99.3486 103.714 98.7985C104.552 98.3253 105.693 98.0654 107.096 98.0654C107.797 98.0654 108.564 98.1303 109.391 98.2668C105.107 99.0569 103.468 102.333 105.454 106.249Z" fill="#DAA8B0"/>
<path d="M105.789 160.877L105.789 160.876C104.695 155.191 104.209 149.702 104.393 144.676C104.737 135.31 107.571 123.012 119.108 117.616C119.169 117.588 119.23 117.556 119.288 117.523C119.75 118.633 119.514 119.981 118.447 120.855C108.359 129.106 105.483 144.457 107.827 160.892L107.827 160.893C108.402 164.92 109.288 169.01 110.46 173.077C111.205 175.666 112.065 178.243 113.032 180.788C112.8 181.151 112.563 181.517 112.321 181.892C111.288 179.49 110.351 177.064 109.508 174.634C107.908 170.014 106.658 165.386 105.789 160.877V160.877Z" fill="#DAA8B0"/>
<path d="M126.908 102.063C126.886 102.026 126.862 101.991 126.837 101.954C121.713 94.6931 122.078 90.2275 122.987 88.8808C123.253 88.486 123.53 88.3821 123.788 88.3821C123.881 88.3821 123.973 88.3959 124.06 88.414C124.586 88.526 125.348 88.9776 126.153 89.9325C124.935 91.8258 124.819 95.3765 127.005 100.127C127.32 100.814 127.234 101.509 126.908 102.063V102.063Z" fill="#DAA8B0"/>
<path d="M135.979 97.7857C135.501 97.7857 135.026 97.6889 134.592 97.495C141.663 86.8038 157.284 80.585 176.335 80.585C179.625 80.585 183.02 80.77 186.488 81.15C198.946 82.5165 212.23 86.5188 222.697 93.0815C209.183 87.6655 192.268 84.152 176.78 84.08C175.385 86.7191 172.249 87.8955 169.047 87.8955C166.183 87.8955 163.268 86.9537 161.501 85.2771C151.869 86.9807 143.715 90.5796 138.627 96.5769C137.945 97.3837 136.956 97.7857 135.979 97.7857Z" fill="#DAA8B0"/>
<path d="M222.541 156.44C222.961 164.073 225.051 179.52 231.086 184.987C243.103 166.62 245.004 132.977 229.346 113.243C228.773 112.521 228.721 111.524 229.214 110.747C229.706 109.97 230.633 109.582 231.546 109.774L239.686 111.496C232.043 93.7566 208.028 83.512 186.485 81.1502C161.909 78.458 141.144 85.5286 133.575 99.1655C133.122 99.9811 132.196 100.423 131.27 100.266C130.342 100.111 129.617 99.3923 129.463 98.4771C128.237 91.1633 125.389 88.6976 124.056 88.4144C123.728 88.3446 123.345 88.3445 122.983 88.8812C122.074 90.2279 121.709 94.6935 126.833 101.954C127.446 102.824 127.336 104.005 126.57 104.748C125.803 105.491 124.605 105.582 123.735 104.965C114.255 98.2406 106.848 97.0234 103.711 98.799C102.74 99.3491 102.319 100.147 102.424 101.239C102.76 104.721 107.979 109.892 118.881 113.594C119.73 113.881 120.316 114.646 120.365 115.53C120.414 116.413 119.918 117.238 119.108 117.617C107.571 123.013 104.737 135.311 104.393 144.677C103.984 155.782 106.853 169.157 112.322 181.892C122.26 166.608 122.964 160.312 125.418 138.382L125.771 135.23C125.884 134.239 126.665 133.451 127.667 133.315C128.673 133.18 129.636 133.739 130.011 134.664C133.563 143.425 139.394 148.482 147.762 150.014C145.868 146.925 143.838 142.423 144.144 137.634C144.196 136.811 144.716 136.086 145.489 135.766C146.259 135.445 147.15 135.582 147.785 136.122C169.075 154.214 193.257 159.796 219.67 152.713L219.688 152.708L219.695 152.706L219.697 152.705C222.436 151.979 225.204 151.106 227.928 150.112C229.07 149.696 230.339 150.27 230.762 151.397C231.184 152.525 230.601 153.776 229.459 154.193C227.172 155.028 224.852 155.781 222.541 156.44V156.44ZM231.632 190.228C231.271 190.228 230.905 190.139 230.569 189.958C220.841 184.664 218.669 165.116 218.189 157.58C193.076 163.588 169.929 158.662 149.257 142.923C150.751 147.537 154.014 151.171 154.058 151.219C154.648 151.868 154.79 152.801 154.418 153.589C154.055 154.36 153.274 154.85 152.419 154.85C152.397 154.85 152.373 154.85 152.351 154.85C142.224 154.543 134.516 150.51 129.355 142.836C127.027 163.354 125.7 170.028 113.783 187.629C113.342 188.281 112.583 188.647 111.782 188.589C110.988 188.529 110.289 188.053 109.95 187.341C97.3067 160.614 94.8681 128.738 113.102 116.05C102.672 111.581 98.4355 105.842 98.0319 101.651C97.7613 98.8475 99.0324 96.4318 101.516 95.0253C104.854 93.1335 110.99 92.9949 119.223 97.1241C117.407 92.2512 117.881 88.5877 119.309 86.469C120.609 84.5457 122.731 83.6822 124.98 84.1604C128.22 84.847 130.908 87.9607 132.572 92.773C144.235 77.9997 167.739 74.7194 186.974 76.826C211.374 79.5016 238.843 91.9832 245.202 113.839C245.416 114.575 245.224 115.366 244.695 115.925C244.166 116.483 243.378 116.726 242.62 116.566L236.056 115.178C242.028 124.839 245.173 137.229 244.992 150.692C244.794 165.48 240.577 179.561 233.421 189.326C232.994 189.911 232.32 190.228 231.632 190.228V190.228Z" fill="#001F3F"/>
<path d="M239.559 162.028H239.553L239.558 162.031C238.107 170.686 235.186 178.723 231.091 184.989C226.272 180.628 223.97 169.916 223.023 161.885C222.783 159.85 222.63 157.984 222.545 156.441C224.855 155.782 227.174 155.028 229.462 154.194C230.604 153.777 231.187 152.525 230.765 151.398C230.435 150.52 229.594 149.976 228.697 149.976C228.441 149.976 228.183 150.02 227.931 150.113C225.213 151.105 222.451 151.975 219.718 152.7C219.709 152.703 219.699 152.705 219.691 152.708C212.284 154.695 205.057 155.687 198.016 155.687C179.94 155.687 163.112 149.146 147.788 136.123C147.379 135.776 146.867 135.594 146.347 135.594C146.058 135.594 145.767 135.651 145.492 135.766C144.72 136.086 144.199 136.811 144.147 137.635C143.841 142.424 145.871 146.926 147.765 150.014C145.931 149.679 144.219 149.174 142.628 148.498C135.635 136.219 136.471 130.76 143.565 130.76C146.367 130.76 150.144 131.612 154.803 133.231C174.485 139.495 191.985 143.602 205.32 143.602C223.265 143.602 233.671 136.171 231.738 116.565C240.073 129.362 242.131 146.669 239.559 162.028V162.028Z" fill="#782B5A"/>
<path d="M204.793 136.002C196.724 136.002 190.181 133.33 190.181 130.033C190.181 126.738 196.724 126.653 204.793 126.653C212.864 126.653 219.406 126.738 219.406 130.033C219.406 133.33 212.864 136.002 204.793 136.002Z" fill="#BC6473"/>
<path d="M179.591 226.652C179.591 226.652 176.427 228.646 168.183 228.646C166.393 228.768 161.274 228.491 154.806 222.665C154.806 222.665 157.793 231.161 167.99 231.161C167.99 231.161 173.791 231.681 179.591 226.652V226.652Z" fill="#001F3F"/>
<path d="M132.781 188.896C133.474 186.676 135.13 184.83 137.173 183.574C139.226 182.318 141.685 181.677 144.126 181.702C146.567 181.718 148.992 182.41 151.024 183.657C153.045 184.909 154.704 186.704 155.478 188.896C153.259 188.143 151.37 187.543 149.504 187.156C147.65 186.761 145.865 186.566 144.08 186.54C142.295 186.524 140.516 186.679 138.679 187.064C136.83 187.441 134.963 188.056 132.781 188.896V188.896Z" fill="#001F3F"/>
<path d="M211.833 188.896C209.65 188.056 207.783 187.441 205.933 187.064C204.098 186.679 202.317 186.524 200.533 186.54C198.748 186.566 196.962 186.761 195.108 187.156C193.243 187.543 191.353 188.143 189.135 188.896C189.91 186.704 191.568 184.909 193.591 183.657C195.621 182.41 198.045 181.718 200.487 181.702C202.927 181.677 205.388 182.318 207.441 183.574C209.482 184.83 211.14 186.676 211.833 188.896V188.896Z" fill="#001F3F"/>
<path d="M153.927 202.15C153.927 207.598 150.531 212.016 146.344 212.016C142.157 212.016 138.762 207.598 138.762 202.15C138.762 196.7 142.157 192.283 146.344 192.283C150.531 192.283 153.927 196.7 153.927 202.15Z" fill="#001F3F"/>
<path d="M150.573 199.861C150.573 201.691 149.547 203.175 148.282 203.175C147.016 203.175 145.99 201.691 145.99 199.861C145.99 198.031 147.016 196.547 148.282 196.547C149.547 196.547 150.573 198.031 150.573 199.861Z" fill="white"/>
<path d="M191.19 202.15C191.19 207.598 194.586 212.016 198.773 212.016C202.961 212.016 206.355 207.598 206.355 202.15C206.355 196.7 202.961 192.283 198.773 192.283C194.586 192.283 191.19 196.7 191.19 202.15Z" fill="#001F3F"/>
<path d="M194.546 199.861C194.546 201.691 195.571 203.175 196.837 203.175C198.103 203.175 199.127 201.691 199.127 199.861C199.127 198.031 198.103 196.547 196.837 196.547C195.571 196.547 194.546 198.031 194.546 199.861Z" fill="white"/>
<path fill-rule="evenodd" clip-rule="evenodd" d="M295.573 258.988L312.949 194.93L295.573 258.988ZM314.349 189.764L318.787 173.405L314.349 189.764ZM320.188 168.239L321.68 162.732L320.188 168.239Z" fill="url(#paint0_linear_332_412)"/>
<path fill-rule="evenodd" clip-rule="evenodd" d="M312.952 194.93L314.353 189.764L312.952 194.93Z" fill="url(#paint1_linear_332_412)"/>
<path fill-rule="evenodd" clip-rule="evenodd" d="M282.182 308.378L288.581 284.782L282.182 308.378Z" fill="url(#paint2_linear_332_412)"/>
<path fill-rule="evenodd" clip-rule="evenodd" d="M288.584 284.782L292.412 270.668V270.67L288.584 284.782Z" fill="url(#paint3_linear_332_412)"/>
<path fill-rule="evenodd" clip-rule="evenodd" d="M292.408 270.67V270.669L295.575 258.989L292.408 270.67Z" fill="url(#paint4_linear_332_412)"/>
<path d="M282.59 377.696C281.414 383.43 278.268 388.365 273.93 391.869C269.592 395.364 264.061 397.428 258.124 397.428H89.5725C77.701 397.428 67.4671 389.172 65.1064 377.696H282.59Z" fill="#C6D3E3"/>
<path d="M65.6787 378.148C68.1953 389.091 78.1572 396.975 89.5773 396.975H258.129C263.767 396.975 269.277 395.038 273.646 391.518C277.865 388.109 280.828 383.378 282.029 378.148H65.6787V378.148ZM258.129 397.88H89.5773C77.5351 397.88 67.0561 389.429 64.6635 377.786L64.5518 377.242H283.156L283.045 377.784C281.886 383.435 278.754 388.561 274.225 392.218C269.694 395.868 263.978 397.88 258.129 397.88V397.88Z" fill="#000072"/>
<path d="M68.7457 380.409C71.926 388.867 80.2082 394.716 89.5753 394.716H258.129C267.494 394.716 275.776 388.867 278.96 380.409H68.7457ZM258.129 400.138H89.5753C76.4464 400.138 65.0245 390.927 62.417 378.235C62.2535 377.439 62.4608 376.61 62.9833 375.98C63.5055 375.35 64.286 374.985 65.1126 374.985H282.593C283.418 374.985 284.199 375.35 284.721 375.98C285.243 376.61 285.451 377.439 285.287 378.235C282.679 390.927 271.258 400.138 258.129 400.138V400.138Z" fill="#001F3F"/>
<path d="M258.13 394.717H172.983C180.84 392.769 188.186 389.806 195 385.779H261.926C266.542 385.779 270.657 383.707 273.332 380.41H278.961C275.777 388.867 267.495 394.717 258.13 394.717Z" fill="#8A93C1"/>
<path d="M282.532 273.44L273.734 372.4C273.198 378.439 268.075 383.069 261.927 383.069H85.7839C79.6449 383.069 74.5208 378.439 73.9767 372.4L65.1875 273.44C64.3189 263.722 72.0875 255.356 81.9732 255.356H265.739C268.973 255.356 271.983 256.251 274.537 257.795C279.79 260.979 283.116 266.906 282.532 273.44V273.44Z" fill="#C6D3E3"/>
<path d="M81.9723 255.808C77.388 255.808 72.984 257.722 69.8867 261.059C66.7868 264.396 65.2391 268.895 65.643 273.4L74.4322 372.36C74.9572 378.207 79.8377 382.618 85.783 382.618H261.926C267.879 382.618 272.758 378.207 273.277 372.36L282.074 273.4C282.625 267.253 279.644 261.421 274.296 258.18C271.727 256.628 268.767 255.808 265.739 255.808H81.9723V255.808ZM261.926 383.522H85.783C79.3594 383.522 74.0872 378.758 73.5198 372.44L64.7306 273.48C64.3047 268.722 65.9387 263.972 69.21 260.447C72.4802 256.925 77.1328 254.903 81.9723 254.903H265.739C268.937 254.903 272.061 255.77 274.776 257.41C280.422 260.83 283.569 266.988 282.987 273.48L274.189 372.438C273.63 378.758 268.358 383.522 261.926 383.522V383.522Z" fill="#000072"/>
<path d="M80.9697 379.016C78.612 377.576 76.978 375.095 76.7178 372.16L67.9203 273.2C67.5706 269.267 68.8665 265.496 71.5725 262.584C74.2759 259.674 77.9701 258.068 81.9734 258.068H265.739C268.764 258.068 271.613 258.986 273.991 260.689C273.961 260.859 273.928 261.031 273.897 261.2C273.479 261.17 273.057 261.154 272.629 261.154H88.8631C78.9789 261.154 71.2106 269.522 72.0774 279.239L80.868 378.199C80.8932 378.474 80.9273 378.746 80.9697 379.016V379.016Z" fill="#F1F4F8"/>
<path d="M81.9727 258.068C77.9694 258.068 74.2752 259.674 71.5717 262.584C68.8657 265.496 67.5699 269.267 67.9195 273.201L76.717 372.16C77.1325 376.832 81.0297 380.355 85.7837 380.355H261.928C266.683 380.355 270.58 376.832 270.996 372.16L279.791 273.201C280.142 269.267 278.845 265.496 276.141 262.584C273.436 259.674 269.742 258.068 265.738 258.068H81.9727V258.068ZM261.928 385.779H85.7837C78.1584 385.779 71.9059 380.128 71.2382 372.635L62.4429 273.674C61.9628 268.287 63.8131 262.909 67.5171 258.921C71.2199 254.933 76.4906 252.646 81.9727 252.646H265.738C271.222 252.646 276.491 254.933 280.196 258.921C283.898 262.909 285.749 268.287 285.271 273.674L276.473 372.635C275.807 380.128 269.555 385.779 261.928 385.779V385.779Z" fill="#001F3F"/>
<path d="M261.929 380.354H127.812C209.691 368.556 260.804 330.861 273.897 261.2C274.189 261.222 274.48 261.25 274.767 261.285C275.249 261.683 275.708 262.117 276.142 262.584C278.846 265.496 280.143 269.267 279.792 273.2L270.997 372.16C270.581 376.832 266.684 380.354 261.929 380.354Z" fill="#8A93C1"/>
<path d="M274.763 261.286C274.476 261.251 274.185 261.223 273.894 261.201C273.925 261.031 273.958 260.859 273.988 260.689C274.253 260.88 274.512 261.078 274.763 261.286Z" fill="#A8AAD0"/>
<path d="M97.9862 339.459C95.3298 339.459 93.0636 337.466 92.8121 334.805L89.0211 294.853C88.7527 292.031 90.8546 289.529 93.7162 289.264L104.751 288.246C104.915 288.231 105.079 288.224 105.241 288.224C107.897 288.224 110.163 290.219 110.415 292.878L114.206 332.829C114.474 335.652 112.372 338.154 109.512 338.419L98.4763 339.437C98.3124 339.453 98.1482 339.459 97.9862 339.459Z" fill="#D7E0EB"/>
<path fill-rule="evenodd" clip-rule="evenodd" d="M223.748 220.165C223.781 220.102 223.815 220.039 223.848 219.975C224.24 219.221 224.614 218.457 224.968 217.683C225.032 217.544 225.095 217.405 225.157 217.266C225.219 217.128 225.28 216.989 225.341 216.85C225.671 216.093 225.982 215.328 226.276 214.554C227.132 212.291 227.829 209.959 228.357 207.573C228.501 206.922 228.633 206.268 228.751 205.609C228.773 205.49 228.794 205.371 228.814 205.252C228.836 205.13 228.856 205.007 228.877 204.885C229.333 202.132 229.567 199.32 229.567 196.472V194.93V192.835V191.208V189.764V189.593L229.568 189.347C229.008 188.966 228.475 188.535 227.968 188.061C225.762 185.998 224.046 183.112 222.712 179.89L222.032 189.764L221.97 190.673C221.97 192.099 221.912 193.519 221.799 194.93C221.369 200.305 220.128 205.551 218.149 210.485C218.149 210.487 218.148 210.489 218.147 210.49V214.554L218.145 210.49C217.591 211.871 216.979 213.227 216.311 214.554C215.921 215.329 215.512 216.095 215.083 216.85C215.004 216.989 214.925 217.128 214.844 217.266C214.764 217.405 214.682 217.544 214.6 217.683C214.141 218.459 213.662 219.224 213.162 219.977C212.909 220.358 212.651 220.736 212.388 221.11C210.677 223.541 208.753 225.835 206.628 227.959C206.547 228.04 206.467 228.12 206.386 228.199C204.674 229.889 202.834 231.467 200.87 232.916C200.302 233.336 199.723 233.751 199.134 234.146C198.926 234.286 198.722 234.416 198.525 234.556C195.575 236.502 192.508 238.191 189.351 239.619L189.261 239.659L189.173 239.699L189.109 239.728C185.374 241.398 181.517 242.706 177.59 243.648V243.649C172.497 244.873 167.279 245.485 162.068 245.485C157.653 245.485 153.238 245.048 148.896 244.17L156.834 247.368C156.956 247.398 157.078 247.427 157.2 247.456C162.021 248.596 166.941 249.166 171.862 249.166C173.777 249.166 175.683 249.079 177.59 248.907C181.472 248.556 185.329 247.852 189.109 246.787V246.789C193.135 245.659 197.073 244.124 200.87 242.183V242.168C202.827 241.17 204.748 240.065 206.628 238.852C206.981 238.624 207.332 238.393 207.682 238.155C209.332 237.04 210.902 235.832 212.389 234.539C214.482 232.719 216.406 230.736 218.15 228.613C220.244 226.063 222.076 223.312 223.622 220.403C223.664 220.324 223.706 220.245 223.751 220.165H223.748V220.165Z" fill="#979BA4"/>
<path fill-rule="evenodd" clip-rule="evenodd" d="M145.176 243.3C145.185 243.304 145.194 243.308 145.203 243.313C145.183 243.307 145.162 243.302 145.14 243.296C148.927 245.045 152.845 246.402 156.835 247.369C154.077 246.533 151.417 245.472 148.898 244.174C148.894 244.172 148.891 244.171 148.888 244.167C148.877 244.165 148.867 244.162 148.856 244.16C145.886 242.613 143.114 240.734 140.618 238.505C140.429 238.347 140.21 238.224 140.001 238.1C133.035 233.38 127.477 227.126 123.588 219.977C123.177 219.222 122.785 218.457 122.412 217.683C122.345 217.544 122.279 217.406 122.213 217.266C122.148 217.128 122.083 216.989 122.019 216.85C121.67 216.093 121.34 215.327 121.027 214.554C119.76 211.419 118.791 208.157 118.139 204.813C117.596 202.027 117.274 199.184 117.183 196.31C117.168 195.851 117.159 195.391 117.157 194.93C117.156 194.824 117.156 194.719 117.156 194.613V189.764V184.556C117.156 184.556 117.206 183.728 117.295 182.266C116.585 183.396 115.825 184.569 115.011 185.796C114.732 186.217 114.446 186.645 114.154 187.078V189.764V190.28V192.54V194.807V194.93V196.472C114.154 196.475 114.154 196.477 114.154 196.48C114.155 199.208 114.37 201.902 114.788 204.541C114.816 204.715 114.844 204.888 114.873 205.061C114.902 205.231 114.932 205.401 114.962 205.571C115.074 206.191 115.196 206.809 115.33 207.423C115.862 209.861 116.569 212.244 117.443 214.554C117.736 215.328 118.047 216.093 118.377 216.85C118.438 216.989 118.499 217.128 118.561 217.266C118.623 217.406 118.685 217.544 118.749 217.683C119.103 218.458 119.477 219.223 119.87 219.977C122.894 225.786 127.044 230.978 132.143 235.225C133.388 236.259 134.689 237.237 136.045 238.153C136.19 238.256 136.329 238.349 136.471 238.447C136.525 238.482 136.579 238.518 136.634 238.554C139.394 240.369 142.249 241.951 145.176 243.3V243.3Z" fill="#DBE2D6"/>
<defs>
<linearGradient id="paint0_linear_332_412" x1="173.557" y1="161.2" x2="172.033" y2="383.659" gradientUnits="userSpaceOnUse">
<stop stop-color="#3F8CA2"/>
<stop offset="1" stop-color="#3F8CA2"/>
</linearGradient>
<linearGradient id="paint1_linear_332_412" x1="173.564" y1="161.199" x2="172.04" y2="383.668" gradientUnits="userSpaceOnUse">
<stop stop-color="#50E9A3"/>
<stop offset="1" stop-color="#50E9A3"/>
</linearGradient>
<linearGradient id="paint2_linear_332_412" x1="173.559" y1="161.201" x2="172.035" y2="383.66" gradientUnits="userSpaceOnUse">
<stop stop-color="#46A0B5"/>
<stop offset="1" stop-color="#46A0B5"/>
</linearGradient>
<linearGradient id="paint3_linear_332_412" x1="173.561" y1="161.2" x2="172.037" y2="383.66" gradientUnits="userSpaceOnUse">
<stop stop-color="#3B93B6"/>
<stop offset="1" stop-color="#3B93B6"/>
</linearGradient>
<linearGradient id="paint4_linear_332_412" x1="173.572" y1="161.2" x2="172.048" y2="383.661" gradientUnits="userSpaceOnUse">
<stop stop-color="#2073B9"/>
<stop offset="1" stop-color="#2073B9"/>
</linearGradient>
</defs>
</svg>
