<svg width="128" height="128" viewBox="0 0 128 128" fill="none" xmlns="http://www.w3.org/2000/svg">
<path d="M63.9999 11.5318C81.0887 11.5318 83.1127 11.5968 89.8612 11.9047C96.1012 12.1895 99.4899 13.2321 101.745 14.1083C104.732 15.2693 106.865 16.6564 109.104 18.8959C111.344 21.1353 112.731 23.2675 113.891 26.2546C114.768 28.5101 115.811 31.8988 116.095 38.1385C116.403 44.8873 116.468 46.9113 116.468 64.0001C116.468 81.0889 116.403 83.1129 116.095 89.8615C115.811 96.1014 114.768 99.4902 113.891 101.746C112.731 104.733 111.344 106.865 109.104 109.104C106.865 111.344 104.732 112.731 101.745 113.892C99.4899 114.768 96.1012 115.811 89.8612 116.096C83.1137 116.403 81.0897 116.468 63.9999 116.468C46.91 116.468 44.886 116.403 38.1385 116.096C31.8986 115.811 28.5098 114.768 26.2546 113.892C23.2673 112.731 21.135 111.344 18.8956 109.104C16.6562 106.865 15.2691 104.733 14.1083 101.746C13.2319 99.4902 12.1892 96.1014 11.9045 89.8617C11.5965 83.113 11.5315 81.0889 11.5315 64.0001C11.5315 46.9113 11.5965 44.8873 11.9045 38.1388C12.1892 31.8988 13.2319 28.5101 14.1083 26.2546C15.2691 23.2675 16.6562 21.1353 18.8956 18.8959C21.135 16.6564 23.2673 15.2693 26.2546 14.1083C28.5098 13.2321 31.8986 12.1895 38.1383 11.9047C44.887 11.5968 46.9111 11.5318 63.9999 11.5318ZM63.9999 0C46.6184 0 44.4392 0.0736741 37.6129 0.385137C30.8006 0.696093 26.1484 1.77783 22.0773 3.36004C17.8687 4.99561 14.2996 7.18398 10.7417 10.7419C7.18373 14.2999 4.99535 17.869 3.35979 22.0776C1.77758 26.1487 0.695839 30.8008 0.384883 37.6131C0.07342 44.4392 0 46.6186 0 64.0001C0 81.3816 0.07342 83.5611 0.384883 90.3871C0.695839 97.1994 1.77758 101.852 3.35979 105.923C4.99535 110.131 7.18373 113.7 10.7417 117.258C14.2996 120.816 17.8687 123.005 22.0773 124.64C26.1484 126.222 30.8006 127.304 37.6129 127.615C44.4392 127.927 46.6184 128 63.9999 128C81.3814 128 83.5608 127.927 90.3869 127.615C97.1992 127.304 101.851 126.222 105.922 124.64C110.131 123.005 113.7 120.816 117.258 117.258C120.816 113.7 123.004 110.131 124.64 105.923C126.222 101.852 127.304 97.1994 127.615 90.3871C127.926 83.5611 128 81.3816 128 64.0001C128 46.6186 127.926 44.4392 127.615 37.6131C127.304 30.8008 126.222 26.1487 124.64 22.0776C123.004 17.869 120.816 14.2999 117.258 10.7419C113.7 7.18398 110.131 4.99561 105.922 3.36004C101.851 1.77783 97.1992 0.696093 90.3869 0.385137C83.5608 0.0736741 81.3814 0 63.9999 0ZM63.9999 31.1352C45.8491 31.1352 31.1349 45.8494 31.1349 64.0001C31.1349 82.1509 45.8491 96.8651 63.9999 96.8651C82.1506 96.8651 96.8648 82.1509 96.8648 64.0001C96.8648 45.8494 82.1506 31.1352 63.9999 31.1352ZM63.9999 85.3336C52.2179 85.3336 42.6664 75.7821 42.6664 64.0001C42.6664 52.2181 52.2179 42.6667 63.9999 42.6667C75.7819 42.6667 85.3333 52.2181 85.3333 64.0001C85.3333 75.7821 75.7819 85.3336 63.9999 85.3336ZM105.843 29.8367C105.843 34.0783 102.405 37.5169 98.1633 37.5169C93.9217 37.5169 90.4831 34.0783 90.4831 29.8367C90.4831 25.5951 93.9217 22.1568 98.1633 22.1568C102.405 22.1568 105.843 25.5951 105.843 29.8367Z" fill="#FFD717"/>
</svg>
