<svg width="128" height="128" viewBox="0 0 128 128" fill="none" xmlns="http://www.w3.org/2000/svg">
    <path
        d="M69.2362 46.9282L52.3779 0H124L107.083 47.0647C106.355 47.2287 105.64 47.4379 104.941 47.691L88.23 15.5332L71.4703 47.5007C70.7403 47.2621 69.9938 47.0708 69.2362 46.9282ZM14.1567 123.748C36.6841 138.674 61.6715 109.792 95.7077 106.154C115.253 105.061 128.539 93.7742 120.969 76.3015C106.895 84.4787 93.7412 73.7632 93.8332 63.0107H83.1386C82.7874 72.6105 75.1327 80.163 63.2672 79.0402C53.9797 92.1464 43.2154 99.5102 31.0014 103.253C22.7461 99.6594 14.9774 90.9057 18.4996 79.2137C16.967 79.0522 15.4644 78.6964 14.0326 78.156C2.6784 98.1557 1.27535 113.962 14.1567 123.748ZM30.9278 63.0122C30.9278 55.416 22.1504 50.6427 15.1667 54.4407C8.18298 58.2387 8.18245 67.7857 15.1667 71.5835C22.1504 75.3817 30.9278 70.6085 30.9278 63.0122ZM76.3553 62.918C76.3553 55.322 67.5776 50.5485 60.5939 54.3467C53.6102 58.145 53.61 67.6915 60.5939 71.4892C67.5779 75.2875 76.355 70.5142 76.355 62.918M121.612 62.918C121.612 55.322 112.834 50.5485 105.851 54.3467C98.8668 58.145 98.8666 67.6915 105.851 71.4892C112.834 75.2875 121.612 70.5142 121.612 62.918"
        fill="#FFD717" />
</svg>