<svg width="75" height="75" viewBox="0 0 75 75" fill="none" xmlns="http://www.w3.org/2000/svg">
<circle cx="37.5" cy="37.5" r="37.5" fill="#001F3F"/>
<path d="M56.6377 63.3366H51.3932C51.279 63.3459 51.1641 63.3505 51.0481 63.3505H25.0455C24.9294 63.3505 24.8145 63.3459 24.7005 63.3366H21.5676C21.3761 63.3364 21.1848 63.3362 20.9934 63.3362C20.1081 63.3362 19.223 63.3402 18.3377 63.3502C17.8562 63.3572 17.3749 63.3643 16.8936 63.3673C17.9244 64.1383 19.1026 64.8602 20.4318 65.5196L20.3979 65.5175C25.5323 65.8391 31.6243 66 37.7171 66C43.213 66 48.7086 65.8691 53.5012 65.6074C54.5607 64.9612 55.6127 64.2087 56.6377 63.3366Z" fill="#B2B2D4"/>
<path d="M15.8154 62.4988C16.6565 62.4897 17.4969 62.5017 18.3381 62.514C19.4149 62.5263 20.4913 62.5294 21.568 62.5276H57.0968L58.7118 62.527L57.5435 62.5275C57.2445 62.8082 56.9425 63.0773 56.6381 63.3363H21.568C20.4913 63.3345 19.4149 63.3377 18.3381 63.3499C17.8567 63.357 17.3754 63.3639 16.8939 63.3669C16.5153 63.0837 16.1547 62.7944 15.8154 62.4988V62.4988Z" fill="#001F3F"/>
<path d="M51.0332 60.0523L51.2031 60.0322C55.9468 59.4761 59.1933 55.0374 58.2338 50.4216L56.4513 41.8544C55.6379 37.9449 52.1497 35.1387 48.1038 35.1387H37.734H38.0273H27.6576C23.6116 35.1387 20.1235 37.9449 19.3101 41.8544L17.528 50.4216C16.5678 55.0374 19.8148 59.4761 24.5582 60.0322L24.7284 60.0523H51.0332Z" fill="#4D5A6A"/>
<path d="M27.6582 35.2027C23.6617 35.2027 20.1778 38.0054 19.3745 41.867L17.5925 50.4344C17.1386 52.6166 17.636 54.9047 18.9577 56.7115C20.2792 58.5182 22.3236 59.7052 24.5666 59.9683L24.7366 59.9883L51.0299 59.9878L51.1962 59.9683C53.439 59.7052 55.4834 58.5182 56.8048 56.7115C58.1263 54.9047 58.6246 52.6169 58.1703 50.4344L56.3879 41.867C55.5848 38.0054 52.1008 35.2027 48.1044 35.2027H27.6582V35.2027ZM51.0375 60.1164H24.729L24.5512 60.0961C22.2722 59.8287 20.1947 58.6226 18.8518 56.7866C17.509 54.9507 17.0035 52.6262 17.4647 50.4085L19.2468 41.8413C20.0626 37.9201 23.6002 35.0742 27.6582 35.0742H48.1044C52.1627 35.0742 55.7 37.9201 56.5157 41.8413L58.2976 50.4085C58.7589 52.6262 58.2535 54.951 56.9108 56.7868C55.5679 58.6226 53.4906 59.8289 51.2113 60.0961L51.0375 60.1164Z" fill="#000072"/>
<path d="M22.1981 58.929C21.5185 58.6096 20.8877 58.1938 20.3277 57.6942C19.9157 57.2046 19.5628 56.6679 19.2773 56.0958C20.105 56.5818 21.0336 56.9294 22.036 57.1025L22.1981 58.929V58.929ZM53.9066 58.7565L54.2847 54.5025C55.9148 52.6787 56.6997 50.1461 56.1604 47.5574L55.7438 45.5545L56.3342 43.3774L57.8172 50.5058C58.2515 52.5916 57.776 54.7781 56.5126 56.5048C55.8228 57.4478 54.9268 58.2142 53.9066 58.7565V58.7565Z" fill="#083358"/>
<path d="M19.2786 56.0956C19.1073 55.995 18.9399 55.8883 18.7776 55.7762C17.8731 54.1852 17.5692 52.3077 17.9441 50.5056L19.5734 42.6729L20.0017 44.2549L18.6122 50.933C18.2327 52.7583 18.5106 54.5552 19.2786 56.0956V56.0956Z" fill="#AFB5BC"/>
<path d="M20.3297 57.6941C19.9308 57.3385 19.5682 56.9404 19.2494 56.5046C19.0776 56.2697 18.9204 56.0265 18.7783 55.7764C18.9407 55.8885 19.1081 55.9952 19.2794 56.0957C19.5648 56.6679 19.9177 57.2045 20.3297 57.6941V57.6941Z" fill="#A4A8BD"/>
<path d="M24.7535 59.6343H51.008L51.1534 59.6174C53.2966 59.3661 55.2503 58.2316 56.5134 56.505C57.7768 54.7783 58.2523 52.5918 57.818 50.506L56.0358 41.9389C55.2665 38.241 51.9308 35.5573 48.1039 35.5573H27.6576C23.8309 35.5573 20.4951 38.241 19.7257 41.9389L17.9436 50.506C17.5096 52.5918 17.985 54.7783 19.2481 56.5049C20.5112 58.2316 22.4648 59.3661 24.6084 59.6174L24.7535 59.6343V59.6343ZM51.0332 60.4711H24.7285C24.7118 60.4711 24.6951 60.4701 24.6784 60.468L24.5085 60.4482C22.1298 60.1692 19.9619 58.9105 18.5604 56.9944C17.159 55.0784 16.6313 52.6522 17.1125 50.3379L18.8946 41.7708C19.7445 37.6857 23.4299 34.7207 27.6576 34.7207H48.1039C52.3315 34.7207 56.017 37.6857 56.8669 41.7708L58.649 50.3379C59.1302 52.6525 58.6027 55.0787 57.201 56.9944C55.7996 58.9105 53.6316 60.1692 51.2533 60.4482L51.0833 60.468C51.0667 60.4701 51.05 60.4711 51.0332 60.4711Z" fill="#001F3F"/>
<path d="M52.9841 28.811C52.9586 28.9086 52.9317 29.0075 52.9048 29.1037C52.8838 29.1777 52.8623 29.2502 52.8413 29.3228C52.8327 29.3506 52.8256 29.377 52.8157 29.405C52.7987 29.465 52.7789 29.5249 52.7607 29.5835C52.7368 29.6602 52.7111 29.7355 52.6856 29.8108C52.6744 29.8443 52.6632 29.8777 52.6517 29.9099C52.615 30.0186 52.577 30.1258 52.536 30.2318C52.4935 30.3491 52.4481 30.4648 52.4015 30.5792C52.3564 30.695 52.3081 30.8091 52.2589 30.9236C52.2106 31.0364 52.1598 31.1509 52.1077 31.2625C52.0581 31.3712 52.0071 31.4784 51.9549 31.586C51.9479 31.5999 51.9408 31.6138 51.9338 31.6276C51.8856 31.7282 51.8347 31.8271 51.7823 31.9262C51.7811 31.929 51.7797 31.9315 51.7781 31.9344C51.7216 32.0447 51.6637 32.152 51.6043 32.2607C51.5336 32.389 51.4613 32.5161 51.3866 32.6416C51.3358 32.7292 51.2833 32.8156 51.2312 32.9022C51.2283 32.9049 51.2268 32.9077 51.2268 32.9093C51.1618 33.0152 51.0954 33.1198 51.0277 33.2242C50.9144 33.3986 50.7985 33.5714 50.6783 33.7429C50.6262 33.8183 50.5724 33.8923 50.5187 33.9661C50.4733 34.0289 50.428 34.0903 50.3816 34.1531C50.3123 34.2464 50.2416 34.3385 50.171 34.4305C50.1016 34.5197 50.0323 34.6061 49.9616 34.6941C49.922 34.7427 49.8824 34.7915 49.843 34.8391C49.8174 34.8698 49.7919 34.9003 49.7667 34.9309C49.7184 34.9867 49.6717 35.0426 49.6237 35.0983C49.4937 35.2491 49.3607 35.3982 49.2252 35.546C49.1599 35.6186 49.0922 35.6895 49.0244 35.7607C48.9749 35.8124 48.9254 35.8655 48.8761 35.9169C48.8051 35.9894 48.7361 36.0606 48.6639 36.1303C48.5622 36.2321 48.4574 36.3339 48.3529 36.4342C48.2681 36.5153 48.1832 36.5947 48.0971 36.6726C48.0843 36.6852 48.0716 36.6978 48.0588 36.7076C47.9712 36.7899 47.8821 36.8693 47.7916 36.9488C47.6263 37.0951 47.4581 37.2373 47.2871 37.3782C47.2446 37.4132 47.2022 37.448 47.1583 37.4842C47.0721 37.5539 46.9844 37.6236 46.8953 37.6935C46.5872 37.9347 46.272 38.1675 45.9498 38.3919C45.944 38.3963 45.937 38.4004 45.9313 38.4045C44.6746 39.2775 43.3076 39.9258 41.8884 40.3511C41.3964 40.499 40.8972 40.6204 40.394 40.715C38.1645 41.1333 35.8548 41.0233 33.6679 40.3874C32.1978 39.9608 30.7827 39.2956 29.4834 38.3919C29.3817 38.3209 29.28 38.2485 29.1781 38.176C29.1682 38.1675 29.1583 38.1605 29.1471 38.1536C29.0468 38.0798 28.9464 38.0057 28.8473 37.9318C28.7441 37.8537 28.6411 37.7742 28.5378 37.6935H28.5363C28.4346 37.6125 28.3342 37.5318 28.2338 37.4507C28.132 37.3685 28.0331 37.2848 27.9341 37.2011C27.8353 37.1175 27.7378 37.0339 27.6416 36.9488C27.5441 36.8624 27.4479 36.7773 27.3533 36.6894C27.2584 36.6029 27.165 36.5153 27.0717 36.4257C26.9786 36.3381 26.8866 36.2488 26.7961 36.1581C26.7057 36.0676 26.6152 35.9768 26.526 35.885C26.4371 35.7914 26.348 35.698 26.2588 35.6031C26.1742 35.511 26.0907 35.419 26.0073 35.3244C25.9423 35.2519 25.8772 35.1778 25.8135 35.104C25.6284 34.8877 25.4475 34.6677 25.2724 34.4431C25.2015 34.351 25.1295 34.259 25.0617 34.1654C25.0518 34.1543 25.0432 34.1418 25.0349 34.1307C24.9866 34.0679 24.94 34.0036 24.8949 33.9396C24.7901 33.7946 24.6884 33.6495 24.5894 33.5017C24.5344 33.421 24.4791 33.3387 24.4269 33.2564C24.3464 33.1322 24.2672 33.0082 24.1894 32.8812C24.1357 32.792 24.0805 32.7014 24.0267 32.6107C23.9532 32.4839 23.8813 32.3543 23.8091 32.2244C23.757 32.127 23.7045 32.0293 23.6537 31.9315C23.6013 31.8326 23.5504 31.7322 23.5022 31.632C23.4939 31.6178 23.4869 31.6039 23.4811 31.59C23.3737 31.3738 23.2733 31.155 23.18 30.9346C23.1743 30.9248 23.1701 30.9166 23.1672 30.9068C23.1206 30.798 23.0755 30.6893 23.0317 30.5792C22.985 30.4648 22.9397 30.3491 22.8974 30.2318C22.8534 30.1161 22.8112 29.9991 22.7715 29.8818C22.7418 29.7954 22.7121 29.7076 22.6839 29.6198C22.6612 29.5501 22.6402 29.4804 22.6187 29.4105C22.6088 29.3799 22.599 29.3477 22.5906 29.3171C22.5695 29.2488 22.5496 29.1819 22.5312 29.1135C22.503 29.0132 22.4761 28.9129 22.4493 28.811C21.3919 21.4484 28.1786 13.2833 34.9601 9.78199C36.6846 8.89103 38.7486 8.89103 40.4733 9.78199C40.6258 9.86019 40.777 9.9438 40.9298 10.0302L40.9313 10.0317C47.5569 13.7881 54.0173 21.6145 52.9841 28.811V28.811Z" fill="#4D5A6A"/>
<path d="M52.0764 26.6506H52.0762C52.1167 27.2321 52.1138 27.8131 52.0642 28.3906H52.0645C52.047 28.5944 52.0242 28.7981 51.9952 29.0019C51.9693 29.1002 51.9426 29.1985 51.916 29.2947C51.8946 29.3684 51.8733 29.4412 51.852 29.5138C51.8435 29.5415 51.8367 29.5681 51.8268 29.5958C51.8093 29.6562 51.7894 29.7156 51.7712 29.775C51.7475 29.8507 51.7216 29.9265 51.6965 30.0023C51.6851 30.035 51.6736 30.0688 51.6622 30.1005C51.6256 30.2091 51.5875 30.3166 51.5464 30.4231C51.5045 30.5398 51.4595 30.6555 51.4122 30.7702C51.3673 30.8859 51.3193 30.9996 51.2698 31.1142C51.2218 31.2269 51.1707 31.3415 51.1181 31.4532C51.0686 31.5617 51.0183 31.6692 50.9657 31.7767C50.9589 31.7911 50.9513 31.8043 50.9444 31.8187C50.9222 31.8654 50.8995 31.9115 50.876 31.9575H50.8763C50.8488 32.0108 50.8214 32.064 50.7932 32.1173C50.7917 32.1199 50.7902 32.123 50.7887 32.1256C50.7323 32.2357 50.6744 32.3428 50.6149 32.4519C50.544 32.5801 50.4724 32.7068 50.397 32.8324C50.3467 32.9204 50.2941 33.0067 50.2423 33.0931C50.2392 33.0962 50.2377 33.0988 50.2377 33.1003C50.1722 33.2063 50.1059 33.3108 50.0381 33.4153C49.9691 33.5222 49.8986 33.6288 49.8265 33.7348H49.8266L49.8202 33.7441L49.82 33.7443L49.8181 33.7473L49.8162 33.7499L49.8159 33.7504L49.8138 33.7535L49.8125 33.7554L49.8116 33.7567L49.8095 33.7598L49.8087 33.761L49.8074 33.7629L49.8053 33.766L49.8049 33.7665L49.8031 33.7691L49.8011 33.7721H49.801C49.764 33.8262 49.7268 33.8802 49.6888 33.9342C49.6371 34.0091 49.5833 34.0833 49.5296 34.1572C49.484 34.2198 49.4389 34.2813 49.3923 34.3439C49.3232 34.4374 49.2525 34.5293 49.1818 34.6215L49.1704 34.636L49.1698 34.6368L49.1692 34.6376L49.1685 34.6384L49.1679 34.6392L49.1674 34.6399L49.1673 34.64L49.1667 34.6408L49.1661 34.6416L49.1654 34.6424L49.1648 34.6432L49.1643 34.6439L49.1641 34.644L49.1635 34.6448L49.1628 34.6457L49.1622 34.6464L49.1581 34.6517L49.1578 34.6521L49.1571 34.6529C49.096 34.731 49.0348 34.8073 48.9723 34.8851C48.9328 34.9338 48.8935 34.9825 48.8539 35.0301C48.8281 35.0606 48.8026 35.0913 48.7774 35.1223C48.7295 35.1778 48.6823 35.2337 48.6344 35.2893L48.6343 35.2894V35.2899C48.5042 35.4405 48.3716 35.589 48.2359 35.7374C48.1711 35.8091 48.1027 35.8808 48.0354 35.9514C47.9854 36.0036 47.9364 36.0569 47.887 36.1081C47.816 36.1808 47.7467 36.2514 47.6748 36.3211L47.5814 36.4134H47.5818C47.5099 36.4843 47.4367 36.5552 47.3635 36.6251C47.2788 36.7062 47.1941 36.7856 47.1077 36.8639C47.0952 36.8761 47.0823 36.8888 47.0698 36.8986C47.008 36.9565 46.9455 37.013 46.8824 37.0691V37.0697C46.8559 37.0933 46.8292 37.1158 46.8027 37.1394C46.6372 37.2868 46.469 37.4281 46.298 37.5694C46.2555 37.6042 46.213 37.639 46.1692 37.6748C46.1034 37.7281 46.0364 37.7823 45.9688 37.8356V37.835L45.9063 37.8841C45.7908 37.9746 45.6745 38.0636 45.5571 38.1518C45.3998 38.2585 45.241 38.3614 45.0805 38.4604V38.4601C44.7935 38.6379 44.5011 38.8042 44.2045 38.959V38.9589C43.6473 39.2499 43.0743 39.5005 42.4901 39.7115L42.4808 39.7149L42.4761 39.7165L42.4528 39.7249V39.7249C42.1675 39.8268 41.8795 39.9191 41.5895 40.0022C41.8815 39.8873 42.1697 39.7588 42.4528 39.617V39.6168C42.8288 39.4283 43.1972 39.216 43.5544 38.9795L43.6515 38.9146C43.8557 38.7766 44.0524 38.6298 44.2419 38.4752V38.4753C44.5408 38.2318 44.8208 37.9686 45.0805 37.6886V37.6884C45.4101 37.3335 45.7069 36.9505 45.9688 36.546V36.5455C46.3298 35.9871 46.6239 35.3858 46.8447 34.7544L46.8495 34.7405L46.8503 34.7383L46.8543 34.7266L46.8592 34.7128L46.8611 34.707L46.8639 34.6989L46.8686 34.6849L46.8718 34.6755L46.8734 34.671L46.8781 34.6571L46.8824 34.6441C46.9696 34.3833 47.0443 34.1174 47.1064 33.8483C47.133 33.8493 47.1605 33.8503 47.1875 33.8503C47.2559 33.8503 47.3243 33.8452 47.3936 33.836C47.8049 33.7776 48.2157 33.5561 48.5964 33.2013V33.2006C48.9278 32.892 49.2353 32.483 49.4999 31.9948H49.4997C49.6208 31.7716 49.7321 31.532 49.8326 31.2781C50.3934 29.7494 50.2289 28.877 49.9325 28.3906H49.933C49.8224 28.2079 49.6934 28.0795 49.5769 27.9904C49.3234 27.7967 49.0063 27.6934 48.659 27.6783C48.7448 27.3353 48.8175 26.9828 48.8741 26.6231H48.8738C48.9633 26.0522 49.0135 25.4641 49.0214 24.8686C49.0492 22.7916 48.5641 20.8802 47.6428 19.3897L48.6554 19.6039C48.679 19.6091 48.7031 19.6115 48.7268 19.6115C48.8201 19.6115 48.9104 19.5737 48.9754 19.5049C49.0571 19.4188 49.0868 19.2967 49.0537 19.1832C48.4024 16.9456 46.3169 15.3445 43.8875 14.4003C42.8051 12.9448 41.5441 11.5815 40.1855 10.3625C46.009 13.7538 51.6351 20.2491 52.0764 26.6506V26.6506Z" fill="#083358"/>
<path d="M23.2884 26.4031L22.8027 26.3987C23.0121 23.7339 24.1476 20.8584 26.1133 18.0881C26.2183 17.9405 26.3252 17.7934 26.4339 17.6471C26.5075 17.841 26.6289 18.0468 26.8057 18.2561C24.9587 20.7864 23.6484 23.5979 23.2884 26.4031V26.4031ZM28.4951 16.1807C28.2203 16.1145 27.97 16.085 27.7461 16.085C27.7291 16.085 27.7125 16.085 27.6957 16.0855C29.8259 13.649 32.4524 11.5491 35.1577 10.1522C35.9594 9.73829 36.8383 9.53125 37.7177 9.53125C38.3906 9.53125 39.0632 9.65243 39.701 9.89484C39.3264 9.82315 38.9461 9.78712 38.5657 9.78712C37.6186 9.78712 36.6715 10.0101 35.8092 10.4555C33.7974 11.4944 31.7853 12.9434 29.9773 14.6606C29.8428 14.7237 29.7247 14.8252 29.633 14.9607C29.616 14.986 29.5999 15.0127 29.5848 15.0407C29.2112 15.4097 28.8475 15.79 28.4951 16.1807V16.1807Z" fill="#AFB5BC"/>
<path d="M52.9841 28.8107H52.9854H52.9841ZM23.549 30.7288L23.5493 30.7291L23.549 30.7288ZM23.5752 30.7924L23.5754 30.7929L23.5752 30.7924ZM47.799 36.3766L47.7959 36.3792L47.799 36.3766ZM28.903 38.494L28.9035 38.4942L28.903 38.494ZM29.4369 37.8441C29.5342 37.9134 29.6314 37.9825 29.7286 38.0503C34.4983 41.3699 40.9117 41.3749 45.6875 38.0622C45.6939 38.0574 45.7012 38.0528 45.7054 38.0499C46.0201 37.8306 46.3319 37.6004 46.6317 37.3657C46.719 37.2972 46.805 37.2288 46.8896 37.1604L47.0151 37.0567C47.1745 36.9259 47.3408 36.7842 47.5098 36.6358C47.5966 36.5597 47.6823 36.4834 47.7665 36.4044C47.7735 36.3975 47.7813 36.3907 47.7892 36.3843L47.797 36.3766C47.8014 36.3725 47.8059 36.3684 47.8103 36.3643C47.8937 36.2887 47.9758 36.2115 48.0579 36.1333C48.1597 36.0359 48.2621 35.9361 48.3617 35.8363C48.4352 35.7654 48.5005 35.698 48.5673 35.6297L48.716 35.4733C48.784 35.4021 48.8471 35.3359 48.907 35.2688C49.0423 35.1217 49.1735 34.9741 49.301 34.8268L49.514 34.5747C49.5536 34.5269 49.5919 34.4796 49.6302 34.4326C49.6987 34.3477 49.7663 34.2632 49.8341 34.1759C49.9018 34.0875 49.9715 33.9972 50.0392 33.9054C50.0849 33.8445 50.1289 33.7846 50.173 33.7231C50.2259 33.6506 50.2778 33.5791 50.3286 33.5063C50.4399 33.3474 50.5515 33.1816 50.6704 32.9985C50.736 32.8972 50.8007 32.7956 50.8639 32.6927L50.8669 32.6875C50.9178 32.6032 50.9689 32.5191 51.0184 32.4335C51.0935 32.3078 51.1631 32.1851 51.2317 32.0609C51.2885 31.9568 51.3448 31.8524 51.3999 31.7453L51.4063 31.7326C51.4559 31.6384 51.5043 31.5445 51.5499 31.4491L51.576 31.3972C51.6233 31.3005 51.6725 31.1966 51.7202 31.0912C51.7729 30.9793 51.8216 30.8695 51.8678 30.7612C51.9163 30.6494 51.9624 30.5396 52.0057 30.4285C52.0526 30.3133 52.0959 30.2028 52.1363 30.0908C52.1783 29.9821 52.2145 29.8803 52.2494 29.7772L52.2888 29.6624C52.3115 29.5951 52.3342 29.528 52.3556 29.4596L52.3712 29.4102C52.3834 29.3711 52.3959 29.3318 52.4072 29.2924C52.4098 29.2837 52.4123 29.2747 52.4158 29.2659C52.4196 29.2544 52.4228 29.2431 52.4262 29.2314L52.4969 28.9895C52.52 28.9057 52.5443 28.817 52.5672 28.729C53.0281 25.4663 51.8756 21.6885 49.3205 18.0881C46.9959 14.8124 43.6994 11.9197 40.2764 10.1523C38.6737 9.32429 36.7596 9.32429 35.1566 10.1523C31.7337 11.9197 28.4371 14.8124 26.1122 18.0881C23.5577 21.6885 22.4052 25.466 22.8655 28.7287C22.89 28.8203 22.9143 28.9108 22.9398 29.0013C22.9581 29.0698 22.9766 29.1317 22.9962 29.1947C23.0065 29.232 23.015 29.2587 23.023 29.2845C23.0454 29.3575 23.066 29.4249 23.0876 29.4925C23.1153 29.5784 23.1445 29.6635 23.1732 29.7476C23.2118 29.8617 23.2524 29.9741 23.2944 30.0855C23.3372 30.203 23.3804 30.3136 23.425 30.4228C23.4688 30.5329 23.5126 30.6383 23.558 30.7438L23.5603 30.7497C23.5642 30.7574 23.5679 30.7654 23.5712 30.7731C23.6547 30.9701 23.7501 31.1776 23.8629 31.4078C23.8656 31.4131 23.8682 31.4188 23.8705 31.4245C23.876 31.4337 23.881 31.4432 23.8857 31.4527C23.9316 31.5484 23.9797 31.6441 24.0295 31.7381C24.0809 31.8364 24.1325 31.9326 24.1839 32.0288L24.192 32.0432C24.2593 32.164 24.3265 32.2849 24.395 32.4032C24.4297 32.4618 24.4675 32.5243 24.5051 32.5863L24.5538 32.6675C24.6281 32.7886 24.7055 32.9095 24.784 33.0306C24.8362 33.1123 24.8885 33.1908 24.9412 33.2682C25.0327 33.4047 25.1299 33.5438 25.2402 33.6969C25.2848 33.7598 25.3281 33.8195 25.3729 33.8779C25.3747 33.8805 25.3837 33.8923 25.3854 33.8949L25.3797 33.8887C25.3893 33.8992 25.3982 33.9103 25.4063 33.9216C25.4574 33.9921 25.5111 34.0615 25.5646 34.1307L25.6102 34.1904C25.7739 34.3996 25.952 34.6172 26.1375 34.8337C26.1988 34.9049 26.2619 34.9767 26.3247 35.0469C26.4089 35.1423 26.4903 35.2321 26.5729 35.3216C26.6584 35.4126 26.7468 35.5054 26.8349 35.5982C26.9186 35.6844 27.0057 35.7716 27.0928 35.8587C27.1858 35.9521 27.2744 36.0382 27.3646 36.123C27.458 36.2123 27.549 36.2979 27.6412 36.3821C27.7317 36.4661 27.8208 36.5451 27.9113 36.6253L27.9248 36.6374C28.0185 36.7202 28.1137 36.8017 28.2101 36.8834C28.3066 36.965 28.4032 37.0467 28.5025 37.127C28.6006 37.2062 28.6913 37.279 28.7823 37.3514C28.7888 37.3559 28.7953 37.3607 28.8014 37.3657C28.9027 37.4448 29.0039 37.523 29.1053 37.5996C29.1976 37.6685 29.2936 37.7393 29.3892 37.8097C29.4059 37.8205 29.4216 37.8318 29.4369 37.8441V37.8441ZM37.7164 41.3794C34.7447 41.3794 31.7735 40.4974 29.239 38.7336C29.1356 38.6614 29.0326 38.5879 28.9296 38.5146C28.9243 38.5109 28.9191 38.5068 28.914 38.503C28.9069 38.4983 28.8999 38.4935 28.8931 38.4886C28.7865 38.4099 28.688 38.3373 28.5913 38.2651C28.4911 38.1892 28.3926 38.1134 28.2943 38.0365C28.286 38.0311 28.2782 38.0252 28.2703 38.019C28.171 37.9401 28.073 37.8611 27.9749 37.7819C27.8608 37.6899 27.7594 37.6042 27.6582 37.5186C27.5568 37.4327 27.4567 37.3471 27.3581 37.2599L27.3443 37.2475C27.2489 37.163 27.1553 37.0799 27.0625 36.9938C26.9679 36.9076 26.8722 36.8174 26.7765 36.7258C26.6827 36.6374 26.5875 36.5451 26.4939 36.4514C26.398 36.3555 26.3078 36.265 26.2192 36.1732C26.1274 36.077 26.0377 35.983 25.948 35.8873C25.858 35.7898 25.7723 35.6955 25.6868 35.5982C25.6227 35.5265 25.5554 35.4503 25.49 35.374C25.296 35.1477 25.1096 34.9204 24.9359 34.6979L24.8893 34.6373C24.834 34.5655 24.7785 34.4935 24.7253 34.4208C24.7157 34.4086 24.7064 34.3963 24.6974 34.3842C24.645 34.3158 24.5953 34.2471 24.5468 34.1785C24.4331 34.0211 24.3306 33.8741 24.2355 33.7321C24.1797 33.6506 24.1221 33.5645 24.0676 33.4786C23.9871 33.3546 23.906 33.2273 23.8262 33.0972L23.7765 33.0147C23.7379 32.9506 23.6988 32.8861 23.6606 32.8215C23.5877 32.6955 23.5181 32.5709 23.4485 32.4458L23.4372 32.4256C23.381 32.3206 23.3278 32.2216 23.2764 32.1226C23.2251 32.0257 23.1742 31.9254 23.1257 31.8251C23.1142 31.804 23.1036 31.7829 23.0941 31.7615C22.98 31.5286 22.8825 31.3162 22.7962 31.1135C22.7879 31.0973 22.7787 31.0778 22.7706 31.0554C22.7245 30.9479 22.6799 30.8404 22.6366 30.7315C22.5895 30.6155 22.542 30.4946 22.4977 30.3722C22.4544 30.2575 22.4104 30.1359 22.3691 30.014C22.3392 29.9268 22.3087 29.8365 22.2795 29.746C22.2566 29.6746 22.2347 29.6028 22.2125 29.5308C22.2028 29.5005 22.1914 29.4632 22.1815 29.4274C22.1621 29.3657 22.1407 29.2937 22.121 29.2204C22.0936 29.1227 22.0663 29.0201 22.0388 28.9162C22.0347 28.9008 22.0316 28.8852 22.0293 28.8694C21.3889 24.411 23.5183 20.2848 25.4175 17.6086C27.8177 14.2264 31.224 11.2388 34.7632 9.41124C36.6126 8.45569 38.8207 8.45569 40.6698 9.41124C44.2093 11.2388 47.6155 14.2265 50.0156 17.6086C51.9147 20.2848 54.0443 24.411 53.404 28.8694C53.4017 28.8848 53.3985 28.9 53.3946 28.915C53.3686 29.015 53.3413 29.116 53.3136 29.2145L53.2411 29.4642C53.2345 29.4858 53.2284 29.5071 53.2208 29.529C53.2083 29.573 53.1942 29.6169 53.1804 29.6604L53.1657 29.7067C53.1426 29.7807 53.1181 29.8532 53.0938 29.9258L53.0883 29.9423C53.0761 29.9782 53.0641 30.0135 53.0521 30.0472C53.0153 30.1565 52.9752 30.2694 52.932 30.3807C52.891 30.4948 52.8438 30.6157 52.7949 30.7353C52.7502 30.8495 52.7002 30.9686 52.6491 31.0873C52.5998 31.2028 52.5466 31.3216 52.4924 31.4379C52.4434 31.5453 52.3909 31.6561 52.337 31.7669L52.3125 31.8153C52.2669 31.9113 52.2135 32.0154 52.1584 32.1193C52.0985 32.2365 52.0388 32.3468 51.9778 32.4587C51.904 32.5926 51.8294 32.7238 51.7523 32.8534C51.7025 32.9391 51.6488 33.0278 51.5954 33.1162L51.5936 33.1191L51.5896 33.1255C51.5229 33.2346 51.4546 33.342 51.3847 33.4495C51.2604 33.6411 51.1433 33.8149 51.0273 33.9805C50.9741 34.0572 50.9186 34.1333 50.8633 34.2096C50.8176 34.2729 50.7713 34.3357 50.7236 34.3999C50.6529 34.4951 50.581 34.5889 50.509 34.6828C50.4368 34.7758 50.3659 34.8641 50.2934 34.9541C50.252 35.0054 50.211 35.056 50.1701 35.1047L49.9467 35.3691C49.8138 35.5231 49.6766 35.677 49.5392 35.8266C49.4769 35.8963 49.4078 35.9688 49.339 36.0411L49.1836 36.2043C49.1062 36.2838 49.0348 36.3571 48.9607 36.4288C48.862 36.5276 48.7553 36.6315 48.6485 36.7341C48.5621 36.8163 48.4769 36.8964 48.3898 36.975C48.3736 36.9907 48.3573 37.0062 48.3411 37.0197C48.2532 37.1021 48.1641 37.1815 48.0736 37.2609C47.8979 37.415 47.7248 37.5623 47.5587 37.6992L47.431 37.8043C47.3392 37.8786 47.2498 37.9498 47.1591 38.0208C46.8468 38.2654 46.5222 38.505 46.1942 38.7333C46.1917 38.7352 46.1833 38.7409 46.1786 38.7442L46.1752 38.7465C43.6446 40.5018 40.6803 41.3792 37.7164 41.3794V41.3794Z" fill="#001F3F"/>
<path d="M49.596 30.9236C49.5699 31.0021 49.5415 31.0815 49.512 31.163C48.7261 33.149 47.1846 34.2074 46.251 33.0091L46.8079 30.3117L47.1866 28.4779C48.6431 27.4967 50.5851 27.9376 49.596 30.9236V30.9236Z" fill="#FDBD91"/>
<path d="M46.617 32.9165C46.8172 33.1235 47.0411 33.2069 47.2966 33.1711C47.9648 33.0769 48.7273 32.2212 49.1945 31.0414C49.6473 29.8068 49.6353 28.8853 49.1588 28.5208C48.7862 28.2359 48.1141 28.3056 47.4911 28.6831L46.617 32.9165V32.9165ZM47.186 33.8503C46.7265 33.8503 46.3044 33.6293 45.9806 33.214C45.9204 33.1369 45.8974 33.0379 45.9169 32.9425L46.8529 28.4113C46.8704 28.3256 46.9212 28.2503 46.9942 28.2009C47.9027 27.5891 48.9403 27.5043 49.5756 27.9904C50.0021 28.3164 50.6023 29.1768 49.8313 31.2777C49.2578 32.7273 48.3245 33.7047 47.3925 33.8355C47.3232 33.8454 47.2544 33.8503 47.186 33.8503V33.8503Z" fill="#001F3F"/>
<path d="M25.8391 30.9236C25.8652 31.0021 25.8936 31.0815 25.9231 31.163C26.709 33.149 28.2505 34.2074 29.1841 33.0091L28.6272 30.3117L28.2483 28.4779C26.7919 27.4967 24.85 27.9376 25.8391 30.9236Z" fill="#FDBD91"/>
<path d="M26.8664 28.3455C26.6347 28.3455 26.4297 28.4029 26.2759 28.5204C25.7994 28.8848 25.7873 29.8064 26.2434 31.0487C26.7074 32.2208 27.4699 33.0765 28.1381 33.1707C28.3938 33.2065 28.6172 33.1231 28.8177 32.9161L27.9434 28.6827C27.5779 28.461 27.1951 28.3455 26.8664 28.3455ZM28.2486 33.8499C28.1806 33.8499 28.1115 33.8449 28.0421 33.8351C27.1104 33.7043 26.1771 32.7269 25.6064 31.285C24.8324 29.1764 25.4329 28.316 25.8591 27.9899C26.4946 27.5039 27.532 27.5885 28.4404 28.2005C28.5135 28.2498 28.5643 28.3252 28.5818 28.4108L29.5177 32.9421C29.5375 33.0375 29.5143 33.1365 29.4541 33.2136C29.1305 33.6286 28.7082 33.8499 28.2486 33.8499Z" fill="#001F3F"/>
<path d="M46.9813 30.38V31.9306C46.9813 34.598 45.6872 37.1276 43.4582 38.6381C43.4264 38.6594 43.3946 38.6795 43.3641 38.7006C39.9647 40.9486 35.5138 40.9486 32.1145 38.7019C32.0838 38.6805 32.052 38.6594 32.0201 38.6381C29.7904 37.1286 28.4961 34.599 28.4961 31.9306V30.38C28.4961 30.38 28.5019 30.2805 28.5131 30.1013C28.597 28.6859 28.9771 22.3356 29.0384 22.1734C31.0619 16.8008 51.2927 18.1176 46.9813 30.38V30.38Z" fill="#FDBD91"/>
<path d="M36.2993 19.2418C35.4909 19.2418 34.694 19.3005 33.9351 19.4204C31.3785 19.8236 29.618 20.8359 29.1049 22.1978C29.0559 22.3765 28.7937 26.5699 28.584 30.1056C28.5726 30.2847 28.5671 30.3841 28.5671 30.3841V31.9309C28.5671 34.6143 29.8732 37.1003 32.0607 38.5808C32.0985 38.6062 32.1277 38.6258 32.1556 38.6451C35.5475 40.8866 39.9324 40.8861 43.3251 38.643C43.3434 38.6305 43.3635 38.6173 43.3837 38.6039L43.419 38.5805C45.6054 37.0988 46.9111 34.6129 46.9111 31.9309L46.9147 30.3574C49.2794 23.6316 44.0629 20.9673 41.7104 20.134C40.0592 19.5489 38.149 19.2418 36.2993 19.2418V19.2418ZM37.7384 40.4652C35.767 40.4652 33.7957 39.8969 32.0756 38.76C32.0469 38.7402 32.0185 38.7212 31.99 38.7022C29.7549 37.1893 28.4258 34.6603 28.4258 31.9309V30.3803C28.4261 30.3762 28.4315 30.2767 28.443 30.0974C28.5815 27.7628 28.9099 22.3148 28.9725 22.1492C29.5036 20.739 31.3041 19.6942 33.9127 19.2825C36.4305 18.8853 39.3636 19.1545 41.7581 20.0028C44.1492 20.8496 49.4486 23.5568 47.0524 30.3918V31.9309C47.0524 34.659 45.7238 37.1878 43.4985 38.6957L43.462 38.7199C43.4427 38.7325 43.4237 38.7451 43.4051 38.758C41.6838 39.8961 39.7111 40.4652 37.7384 40.4652V40.4652Z" fill="#000072"/>
<path d="M29.3838 29.6374C30.1303 28.4326 30.5111 27.5457 30.7586 26.4675L31.3985 26.473C31.0938 27.5812 30.4692 28.5037 29.3838 29.6374ZM42.7679 26.5705H42.7655C42.1793 26.6579 41.5437 26.7088 40.8852 26.7088C40.2225 26.7088 39.5409 26.6569 38.863 26.5367H38.8633C38.0057 26.3845 37.1603 26.1222 36.3874 25.7171C36.3527 25.699 36.3172 25.6908 36.2834 25.6908C36.1324 25.6908 36.0088 25.8511 36.086 26.0053C36.1287 26.0904 36.146 26.1193 36.146 26.1193C36.025 26.193 35.786 26.2288 35.4778 26.2288C34.6136 26.2288 33.2063 25.9487 32.3388 25.4506C32.2538 25.4021 32.1627 25.3797 32.0737 25.3797C31.819 25.3797 31.5785 25.5623 31.5352 25.8356C31.5001 26.056 31.455 26.2676 31.3989 26.4728L30.7594 26.4672C30.9383 25.6919 31.0491 24.818 31.181 23.6565C31.9772 24.8402 33.1662 25.4625 34.7286 25.5098C34.732 25.5098 34.7356 25.5098 34.739 25.5098C34.8709 25.5098 34.9914 25.4342 35.0474 25.3154C35.1047 25.1937 35.0828 25.0498 34.9919 24.9497C34.9851 24.9423 34.4817 24.3817 34.2513 23.6699C36.5628 25.4298 39.0748 26.3134 41.758 26.3134C42.7762 26.3134 43.8193 26.1861 44.8853 25.931C44.8874 25.9614 44.8894 25.9932 44.8918 26.0259C44.3438 26.2488 43.6074 26.4461 42.7679 26.5705V26.5705Z" fill="#B18488"/>
<path d="M29.0388 22.1728H29.04H29.0388ZM29.3602 22.2832L29.3578 22.2896C29.3586 22.2878 29.3594 22.2857 29.3602 22.2832ZM29.3578 22.2898H29.3575H29.3578ZM28.8366 30.3898V31.9306C28.8366 34.5266 30.0993 36.9306 32.2134 38.3617C32.2437 38.3822 32.2739 38.4025 32.3045 38.4226C35.6068 40.6056 39.8736 40.6053 43.1744 38.4221L43.2652 38.3614C45.3794 36.9298 46.6415 34.5257 46.6415 31.9306V30.38C46.6415 30.3425 46.6477 30.3052 46.66 30.27C48.946 23.7692 43.8971 21.191 41.6202 20.3844C36.6852 18.636 30.405 19.6042 29.367 22.2656C29.3041 22.6993 29.0174 27.3304 28.8366 30.3898V30.3898ZM37.7393 40.7315C35.7154 40.7315 33.6919 40.1478 31.9259 38.9806C31.8934 38.959 31.8607 38.9371 31.8282 38.9153C29.5288 37.359 28.1563 34.7479 28.1563 31.9306V30.38C28.1563 30.3733 28.1562 30.3669 28.1569 30.3605C28.6326 22.2921 28.6983 22.1132 28.7197 22.0561C29.965 18.751 36.9806 18.0273 41.8504 19.7526C44.1701 20.5744 45.9264 21.8779 46.9298 23.5218C48.1105 25.4566 48.2424 27.7826 47.3219 30.436V31.9306C47.3219 34.7471 45.9496 37.358 43.6507 38.9145L43.5538 38.9793C41.7878 40.1473 39.7635 40.7313 37.7393 40.7315V40.7315Z" fill="#001F3F"/>
<path d="M46.8744 18.8841C49.4264 22.1008 49.1088 27.6984 46.9593 30.632C45.3147 29.7368 45.2059 25.5031 45.2059 25.5031C41.313 26.5482 37.3738 25.9105 33.802 22.8751C33.7259 24.0678 34.7389 25.1742 34.7389 25.1742C34.2794 25.1608 33.8677 25.0948 33.498 24.9852C32.206 24.6036 31.437 23.6807 30.9662 22.5204C30.5125 26.5482 30.4841 27.4433 28.4958 30.3802C26.5109 26.1845 26.1456 21.01 29.4544 19.4627C24.8411 17.8961 26.5426 14.7255 30.5125 17.5415C28.5651 14.7813 31.023 13.7175 31.5334 16.7583C34.4042 11.586 47.0162 13.4019 48.7256 19.2758L46.8788 18.8852C46.8754 18.8841 46.8744 18.8841 46.8744 18.8841V18.8841Z" fill="#AC3D50"/>
<path d="M45.2747 25.4126L45.2769 25.5013C45.278 25.5427 45.4008 29.6103 46.9397 30.5396C48.9859 27.6876 49.3714 22.1443 46.8192 18.927L46.7296 18.8144L46.9024 18.8196L48.6238 19.1829C47.6334 16.0609 43.6101 14.2691 40.0247 13.8761C36.9212 13.5357 33.0771 14.123 31.5959 16.7919L31.4976 16.9689L31.464 16.7698C31.2653 15.5852 30.7776 15.0765 30.4201 15.0009C30.2387 14.9626 30.0802 15.0279 29.9739 15.1855C29.74 15.5322 29.7562 16.3468 30.5708 17.5017L30.8065 17.8357L30.4718 17.5981C28.8051 16.416 27.6086 16.3391 27.0913 16.6323C26.8504 16.7688 26.732 16.9933 26.7584 17.2646C26.8139 17.8411 27.5592 18.7453 29.4777 19.3966L29.6417 19.4524L29.485 19.5257C26.2638 21.0318 26.5543 26.0321 28.5074 30.2378C30.3365 27.5163 30.4465 26.5338 30.8419 22.9985L30.9277 22.2364L31.0325 22.4945C31.5565 23.7862 32.3696 24.5792 33.5186 24.9184C33.8464 25.0156 34.2039 25.0758 34.5822 25.0976C34.3204 24.773 33.6687 23.8594 33.7318 22.8707L33.7406 22.7305L33.8483 22.8224C37.2056 25.6752 41.0204 26.5546 45.1876 25.436L45.2747 25.4126V25.4126ZM46.9804 30.7227L46.9256 30.6929C45.3779 29.8508 45.1643 26.2254 45.1385 25.5934C41.0036 26.6775 37.2134 25.813 33.869 23.0229C33.8799 24.1171 34.7821 25.1172 34.7918 25.1274L34.9025 25.2486L34.7373 25.2439C34.287 25.2307 33.8635 25.1663 33.4778 25.0521C32.3605 24.7219 31.55 23.9819 31.0072 22.7928L30.9824 23.0139C30.5789 26.6205 30.4705 27.5896 28.5551 30.4188L28.4852 30.5219L28.4321 30.4098C26.433 26.1838 26.1007 21.1159 29.2741 19.4735C27.4109 18.8062 26.6781 17.9077 26.6176 17.2777C26.5859 16.9488 26.7292 16.6767 27.0209 16.5114C27.5676 16.2018 28.6925 16.2571 30.2561 17.2816C29.601 16.2242 29.6196 15.4589 29.856 15.1081C29.9947 14.9026 30.2121 14.8139 30.4498 14.8646C30.8482 14.949 31.3396 15.4401 31.5685 16.5588C33.1473 13.9713 36.956 13.3994 40.0403 13.7376C43.7152 14.1402 47.8472 16.0033 48.7938 19.2564L48.8264 19.3684L47.0468 18.9921C49.5229 22.2959 49.0931 27.8396 47.0171 30.6729L46.9804 30.7227V30.7227Z" fill="#000072"/>
<path d="M30.0618 26.4611L29.1737 26.4533C29.6306 25.1961 29.7868 23.9106 30.0112 21.9067C30.0274 21.7627 30.1471 21.6812 30.2681 21.6812C30.3561 21.6812 30.4453 21.7249 30.4946 21.819C30.5728 21.9676 30.6477 22.125 30.7157 22.2937C30.6685 22.3448 30.6369 22.4104 30.6286 22.4829L30.5741 22.9692C30.401 24.5165 30.2842 25.5592 30.0618 26.4611V26.4611ZM28.6635 29.5111C28.5142 29.1182 28.3816 28.721 28.2666 28.3212C28.6656 27.6548 28.9544 27.0568 29.1739 26.4535L30.0619 26.4614C29.8101 27.483 29.4225 28.323 28.6635 29.5111V29.5111Z" fill="#782B5A"/>
<path d="M27.4939 18.0123C27.2012 17.7328 27.0485 17.4633 27.0268 17.2393C27.0106 17.0709 27.0756 16.9477 27.2254 16.8628C27.3548 16.7898 27.5307 16.7498 27.7471 16.7498C27.8553 16.7498 27.9737 16.7598 28.1011 16.7808C27.4402 16.9027 27.1874 17.408 27.4939 18.0123Z" fill="#DAA8B0"/>
<path d="M27.5455 26.4393L27.5455 26.4392C27.3768 25.5622 27.3017 24.7154 27.3301 23.9401C27.3833 22.4952 27.8205 20.598 29.6003 19.7656C29.6096 19.7612 29.6191 19.7563 29.6279 19.7512C29.6993 19.9224 29.6628 20.1305 29.4983 20.2652C27.9421 21.5381 27.4983 23.9062 27.8598 26.4416L27.8599 26.4419C27.9486 27.0631 28.0854 27.6941 28.266 28.3214C28.3811 28.7209 28.5137 29.1184 28.6629 29.5111C28.6271 29.567 28.5905 29.6235 28.5532 29.6813C28.3938 29.3108 28.2493 28.9365 28.1193 28.5617C27.8724 27.8489 27.6795 27.1349 27.5455 26.4393V26.4393Z" fill="#DAA8B0"/>
<path d="M30.8041 17.3664C30.8007 17.3607 30.797 17.3553 30.7932 17.3496C30.0027 16.2295 30.059 15.5405 30.1992 15.3328C30.2402 15.2719 30.283 15.2559 30.3229 15.2559C30.3372 15.2559 30.3513 15.258 30.3648 15.2608C30.4459 15.2781 30.5635 15.3477 30.6876 15.495C30.4998 15.7871 30.4819 16.3349 30.8192 17.0678C30.8677 17.1737 30.8544 17.281 30.8041 17.3664V17.3664Z" fill="#DAA8B0"/>
<path d="M32.2033 16.7063C32.1295 16.7063 32.0562 16.6913 31.9893 16.6614C33.0801 15.0121 35.4899 14.0527 38.429 14.0527C38.9366 14.0527 39.4603 14.0813 39.9953 14.1399C41.9172 14.3507 43.9665 14.9681 45.5812 15.9806C43.4964 15.145 40.8869 14.603 38.4975 14.5919C38.2824 14.999 37.7986 15.1805 37.3046 15.1805C36.8627 15.1805 36.4131 15.0352 36.1406 14.7766C34.6546 15.0394 33.3967 15.5946 32.6118 16.5198C32.5065 16.6443 32.354 16.7063 32.2033 16.7063Z" fill="#DAA8B0"/>
<path d="M45.5573 25.7553C45.622 26.9328 45.9444 29.3158 46.8755 30.1592C48.7293 27.3256 49.0226 22.1356 46.6069 19.0912C46.5186 18.9799 46.5105 18.8261 46.5866 18.7062C46.6625 18.5864 46.8056 18.5266 46.9464 18.5561L48.2022 18.8217C47.023 16.0851 43.3183 14.5047 39.9949 14.1404C36.2036 13.725 33.0002 14.8158 31.8325 16.9196C31.7626 17.0454 31.6198 17.1135 31.4769 17.0894C31.3337 17.0654 31.2219 16.9546 31.1982 16.8134C31.009 15.6851 30.5697 15.3047 30.364 15.261C30.3134 15.2502 30.2542 15.2502 30.1984 15.333C30.0582 15.5408 30.0019 16.2297 30.7923 17.3498C30.8869 17.484 30.87 17.6661 30.7519 17.7808C30.6335 17.8955 30.4487 17.9094 30.3144 17.8142C28.852 16.7769 27.7093 16.5891 27.2254 16.863C27.0756 16.9479 27.0107 17.071 27.0268 17.2395C27.0787 17.7767 27.8838 18.5744 29.5657 19.1455C29.6966 19.1897 29.7871 19.3077 29.7947 19.444C29.8022 19.5803 29.7256 19.7076 29.6007 19.766C27.8209 20.5984 27.3837 22.4956 27.3305 23.9405C27.2674 25.6537 27.7101 27.7171 28.5537 29.6817C30.0869 27.3238 30.1956 26.3526 30.5741 22.9695L30.6286 22.4833C30.646 22.3303 30.7665 22.2087 30.9211 22.1878C31.0762 22.167 31.2248 22.2532 31.2826 22.3958C31.8306 23.7475 32.7301 24.5276 34.0211 24.7639C33.7288 24.2875 33.4157 23.5929 33.4629 22.8541C33.4709 22.7271 33.5513 22.6152 33.6704 22.5658C33.7893 22.5164 33.9266 22.5375 34.0247 22.6209C37.309 25.4118 41.0396 26.273 45.1143 25.1802L45.1171 25.1795L45.1181 25.1792L45.1185 25.1791C45.541 25.0671 45.9681 24.9323 46.3882 24.7791C46.5645 24.7149 46.7602 24.8033 46.8254 24.9773C46.8906 25.1512 46.8006 25.3443 46.6244 25.4086C46.2716 25.5374 45.9137 25.6536 45.5573 25.7553V25.7553ZM46.9596 30.9677C46.9039 30.9677 46.8475 30.954 46.7957 30.926C45.2949 30.1093 44.9599 27.0937 44.8858 25.9311C41.0116 26.8579 37.4408 26.098 34.2518 23.67C34.4822 24.3818 34.9856 24.9424 34.9924 24.9498C35.0834 25.0499 35.1053 25.1938 35.0479 25.3155C34.9919 25.4343 34.8714 25.51 34.7395 25.51C34.7361 25.51 34.7325 25.51 34.7291 25.51C33.1667 25.4626 31.9777 24.8404 31.1815 23.6566C30.8223 26.8219 30.6176 27.8515 28.7792 30.5668C28.7112 30.6673 28.5941 30.7239 28.4705 30.7149C28.348 30.7057 28.2401 30.6321 28.1879 30.5223C26.2374 26.3991 25.8612 21.4817 28.6742 19.5243C27.0652 18.8349 26.4115 17.9495 26.3493 17.3031C26.3075 16.8705 26.5036 16.4978 26.8868 16.2809C27.4017 15.989 28.3483 15.9676 29.6184 16.6046C29.3382 15.8529 29.4114 15.2877 29.6317 14.9609C29.8322 14.6642 30.1596 14.531 30.5065 14.6047C31.0063 14.7107 31.4211 15.191 31.6777 15.9334C33.477 13.6543 37.103 13.1483 40.0703 13.4733C43.8344 13.886 48.072 15.8116 49.0531 19.1833C49.0861 19.2967 49.0564 19.4188 48.9748 19.505C48.8932 19.5911 48.7717 19.6287 48.6547 19.6039L47.6422 19.3897C48.5635 20.8802 49.0486 22.7916 49.0207 24.8686C48.9902 27.1498 48.3395 29.3222 47.2357 30.8286C47.1698 30.9188 47.0657 30.9677 46.9596 30.9677V30.9677Z" fill="#001F3F"/>
<path d="M48.1827 26.6172H48.1819L48.1826 26.6176C47.9588 27.9529 47.5082 29.1928 46.8764 30.1593C46.1331 29.4866 45.7779 27.8341 45.6318 26.5951C45.5948 26.2812 45.5711 25.9934 45.5581 25.7553C45.9145 25.6537 46.2721 25.5374 46.6251 25.4086C46.8013 25.3443 46.8913 25.1512 46.8261 24.9773C46.7753 24.8419 46.6454 24.758 46.507 24.758C46.4676 24.758 46.4278 24.7647 46.3889 24.7791C45.9697 24.9321 45.5435 25.0664 45.1219 25.1782C45.1206 25.1787 45.119 25.179 45.1178 25.1794C43.9751 25.486 42.8601 25.639 41.774 25.639C38.9854 25.639 36.3893 24.63 34.0253 22.6208C33.9623 22.5674 33.8833 22.5393 33.803 22.5393C33.7585 22.5393 33.7136 22.5481 33.6711 22.5658C33.552 22.6152 33.4716 22.727 33.4636 22.8541C33.4163 23.5929 33.7295 24.2874 34.0217 24.7639C33.7389 24.7122 33.4747 24.6343 33.2292 24.5299C32.1505 22.6358 32.2795 21.7936 33.3739 21.7936C33.8061 21.7936 34.3888 21.925 35.1075 22.1747C38.1439 23.141 40.8436 23.7747 42.9007 23.7747C45.6691 23.7747 47.2745 22.6283 46.9762 19.6038C48.262 21.5779 48.5795 24.2478 48.1827 26.6172V26.6172Z" fill="#782B5A"/>
<path d="M42.8187 22.602C41.5739 22.602 40.5645 22.1898 40.5645 21.6812C40.5645 21.1728 41.5739 21.1597 42.8187 21.1597C44.0638 21.1597 45.073 21.1728 45.073 21.6812C45.073 22.1898 44.0638 22.602 42.8187 22.602Z" fill="#BC6473"/>
<path d="M38.931 36.5871C38.931 36.5871 38.443 36.8946 37.1711 36.8946C36.895 36.9134 36.1053 36.8707 35.1074 35.9719C35.1074 35.9719 35.5683 37.2826 37.1413 37.2826C37.1413 37.2826 38.0363 37.3629 38.931 36.5871V36.5871Z" fill="#001F3F"/>
<path d="M31.709 30.7618C31.8158 30.4193 32.0713 30.1346 32.3866 29.9408C32.7033 29.7471 33.0826 29.6481 33.4591 29.652C33.8357 29.6545 34.2098 29.7613 34.5232 29.9537C34.835 30.1467 35.091 30.4237 35.2104 30.7618C34.868 30.6456 34.5766 30.553 34.2888 30.4934C34.0028 30.4324 33.7273 30.4023 33.452 30.3985C33.1767 30.3959 32.9022 30.4198 32.6188 30.4792C32.3336 30.5374 32.0456 30.6322 31.709 30.7618V30.7618Z" fill="#001F3F"/>
<path d="M43.905 30.7618C43.5681 30.6322 43.2801 30.5374 42.9948 30.4792C42.7117 30.4198 42.437 30.3959 42.1617 30.3985C41.8864 30.4023 41.6108 30.4324 41.3248 30.4934C41.037 30.553 40.7456 30.6456 40.4033 30.7618C40.523 30.4237 40.7787 30.1467 41.0908 29.9537C41.4039 29.7613 41.7779 29.6545 42.1547 29.652C42.5311 29.6481 42.9107 29.7471 43.2275 29.9408C43.5423 30.1346 43.7981 30.4193 43.905 30.7618V30.7618Z" fill="#001F3F"/>
<path d="M34.9724 32.8065C34.9724 33.6471 34.4485 34.3286 33.8025 34.3286C33.1566 34.3286 32.6328 33.6471 32.6328 32.8065C32.6328 31.9658 33.1566 31.2844 33.8025 31.2844C34.4485 31.2844 34.9724 31.9658 34.9724 32.8065Z" fill="#001F3F"/>
<path d="M34.4551 32.4536C34.4551 32.736 34.2968 32.9648 34.1016 32.9648C33.9063 32.9648 33.748 32.736 33.748 32.4536C33.748 32.1712 33.9063 31.9424 34.1016 31.9424C34.2968 31.9424 34.4551 32.1712 34.4551 32.4536Z" fill="white"/>
<path d="M40.7207 32.8065C40.7207 33.6471 41.2445 34.3286 41.8905 34.3286C42.5365 34.3286 43.0602 33.6471 43.0602 32.8065C43.0602 31.9658 42.5365 31.2844 41.8905 31.2844C41.2445 31.2844 40.7207 31.9658 40.7207 32.8065Z" fill="#001F3F"/>
<path d="M41.2383 32.4536C41.2383 32.736 41.3965 32.9648 41.5918 32.9648C41.787 32.9648 41.9449 32.736 41.9449 32.4536C41.9449 32.1712 41.787 31.9424 41.5918 31.9424C41.3965 31.9424 41.2383 32.1712 41.2383 32.4536Z" fill="white"/>
<path fill-rule="evenodd" clip-rule="evenodd" d="M56.8242 41.575L59.5047 31.6927L56.8242 41.575ZM59.7208 30.8958L60.4054 28.3721L59.7208 30.8958ZM60.6215 27.5752L60.8518 26.7256L60.6215 27.5752Z" fill="url(#paint0_linear_405_596)"/>
<path fill-rule="evenodd" clip-rule="evenodd" d="M59.5049 31.6929L59.721 30.896L59.5049 31.6929Z" fill="url(#paint1_linear_405_596)"/>
<path fill-rule="evenodd" clip-rule="evenodd" d="M54.7578 49.1946L55.745 45.5544L54.7578 49.1946Z" fill="url(#paint2_linear_405_596)"/>
<path fill-rule="evenodd" clip-rule="evenodd" d="M55.7451 45.5542L56.3356 43.377V43.3772L55.7451 45.5542Z" fill="url(#paint3_linear_405_596)"/>
<path fill-rule="evenodd" clip-rule="evenodd" d="M56.3359 43.3773V43.377L56.8245 41.5752L56.3359 43.3773Z" fill="url(#paint4_linear_405_596)"/>
<path d="M54.8206 59.8882C54.6392 60.7728 54.1537 61.5341 53.4846 62.0747C52.8153 62.6139 51.9621 62.9323 51.0463 62.9323H25.0439C23.2125 62.9323 21.6337 61.6586 21.2695 59.8882H54.8206Z" fill="#C6D3E3"/>
<path d="M21.3594 59.9578C21.7476 61.646 23.2844 62.8623 25.0462 62.8623H51.0486C51.9183 62.8623 52.7684 62.5635 53.4423 62.0204C54.0932 61.4945 54.5503 60.7647 54.7356 59.9578H21.3594V59.9578ZM51.0486 63.0019H25.0462C23.1885 63.0019 21.5719 61.6982 21.2028 59.902L21.1855 59.8181H54.9095L54.8923 59.9017C54.7135 60.7735 54.2304 61.5642 53.5317 62.1284C52.8326 62.6915 51.9509 63.0019 51.0486 63.0019V63.0019Z" fill="#000072"/>
<path d="M21.8314 60.3065C22.3221 61.6113 23.5998 62.5136 25.0448 62.5136H51.0474C52.4922 62.5136 53.7699 61.6113 54.261 60.3065H21.8314ZM51.0474 63.35H25.0448C23.0194 63.35 21.2574 61.929 20.8551 59.9711C20.8299 59.8482 20.8619 59.7204 20.9425 59.6232C21.023 59.526 21.1435 59.4697 21.271 59.4697H54.8216C54.9487 59.4697 55.0692 59.526 55.1497 59.6232C55.2303 59.7204 55.2623 59.8482 55.2371 59.9711C54.8348 61.929 53.0728 63.35 51.0474 63.35V63.35Z" fill="#001F3F"/>
<path d="M51.0476 62.5137H37.9121C39.1241 62.2134 40.2574 61.7561 41.3085 61.1349H51.6331C52.3454 61.1349 52.9801 60.8153 53.3929 60.3066H54.2612C53.7701 61.6114 52.4924 62.5137 51.0476 62.5137Z" fill="#8A93C1"/>
<path d="M54.8112 43.8043L53.4541 59.0707C53.3714 60.0023 52.581 60.7167 51.6326 60.7167H24.4591C23.5121 60.7167 22.7216 60.0023 22.6376 59.0707L21.2817 43.8043C21.1477 42.3051 22.3462 41.0144 23.8712 41.0144H52.2207C52.7196 41.0144 53.184 41.1525 53.5779 41.3907C54.3884 41.8819 54.9014 42.7962 54.8112 43.8043V43.8043Z" fill="#C6D3E3"/>
<path d="M23.8713 41.0847C23.1641 41.0847 22.4847 41.3799 22.0069 41.8947C21.5286 42.4095 21.2899 43.1036 21.3522 43.7986L22.7081 59.0651C22.7891 59.9671 23.542 60.6476 24.4592 60.6476H51.6326C52.551 60.6476 53.3037 59.9671 53.3838 59.0651L54.7408 43.7986C54.8259 42.8503 54.366 41.9505 53.5409 41.4506C53.1446 41.2112 52.6879 41.0847 52.2208 41.0847H23.8713V41.0847ZM51.6326 60.787H24.4592C23.4682 60.787 22.6549 60.052 22.5673 59.0774L21.2114 43.811C21.1457 43.0769 21.3978 42.3442 21.9025 41.8003C22.407 41.2569 23.1247 40.9451 23.8713 40.9451H52.2208C52.7142 40.9451 53.1962 41.0788 53.615 41.3319C54.4859 41.8594 54.9714 42.8094 54.8816 43.811L53.5245 59.0772C53.4382 60.052 52.6248 60.787 51.6326 60.787V60.787Z" fill="#000072"/>
<path d="M23.7161 60.0919C23.3524 59.8697 23.1003 59.487 23.0602 59.0342L21.703 43.7678C21.649 43.161 21.8489 42.5793 22.2664 42.13C22.6835 41.681 23.2534 41.4333 23.8709 41.4333H52.2203C52.687 41.4333 53.1266 41.5749 53.4933 41.8377C53.4887 41.8639 53.4837 41.8904 53.4788 41.9165C53.4144 41.9119 53.3492 41.9094 53.2832 41.9094H24.9338C23.409 41.9094 22.2106 43.2003 22.3443 44.6994L23.7004 59.9658C23.7043 60.0083 23.7096 60.0502 23.7161 60.0919V60.0919Z" fill="#F1F4F8"/>
<path d="M23.8711 41.4329C23.2535 41.4329 22.6836 41.6805 22.2665 42.1296C21.8491 42.5788 21.6491 43.1605 21.7031 43.7673L23.0603 59.0338C23.1244 59.7545 23.7256 60.298 24.459 60.298H51.6326C52.3662 60.298 52.9674 59.7545 53.0315 59.0338L54.3884 43.7673C54.4424 43.1605 54.2424 42.5788 53.8253 42.1296C53.408 41.6805 52.8381 41.4329 52.2204 41.4329H23.8711V41.4329ZM51.6326 61.1347H24.459C23.2826 61.1347 22.3181 60.263 22.2151 59.107L20.8582 43.8404C20.7841 43.0093 21.0696 42.1797 21.641 41.5644C22.2122 40.9493 23.0253 40.5964 23.8711 40.5964H52.2204C53.0665 40.5964 53.8793 40.9493 54.4508 41.5644C55.0219 42.1797 55.3074 43.0093 55.2337 43.8404L53.8765 59.107C53.7737 60.263 52.8092 61.1347 51.6326 61.1347V61.1347Z" fill="#001F3F"/>
<path d="M51.6335 60.2984H30.9434C43.5749 58.4782 51.46 52.663 53.4799 41.9165C53.5249 41.9199 53.5698 41.9243 53.614 41.9297C53.6884 41.9911 53.7593 42.058 53.8262 42.13C54.2433 42.5792 54.4434 43.1609 54.3893 43.7678L53.0324 59.0342C52.9683 59.7549 52.3671 60.2984 51.6335 60.2984Z" fill="#8A93C1"/>
<path d="M53.6137 41.9297C53.5694 41.9243 53.5245 41.9199 53.4795 41.9165C53.4844 41.8904 53.4894 41.8638 53.494 41.8376C53.5349 41.867 53.5749 41.8975 53.6137 41.9297Z" fill="#A8AAD0"/>
<path d="M26.3426 53.9892C25.9328 53.9892 25.5832 53.6817 25.5444 53.2713L24.9596 47.1079C24.9182 46.6726 25.2425 46.2865 25.6839 46.2457L27.3862 46.0886C27.4115 46.0862 27.4368 46.0852 27.4618 46.0852C27.8716 46.0852 28.2212 46.393 28.2601 46.8032L28.8449 52.9665C28.8863 53.4019 28.562 53.7879 28.1207 53.8288L26.4183 53.9858C26.393 53.9882 26.3676 53.9892 26.3426 53.9892Z" fill="#D7E0EB"/>
<path fill-rule="evenodd" clip-rule="evenodd" d="M45.7436 35.5859C45.7487 35.5761 45.7538 35.5663 45.7589 35.5565C45.8195 35.4402 45.8772 35.3223 45.9319 35.2029C45.9417 35.1815 45.9514 35.1601 45.961 35.1386C45.9705 35.1172 45.98 35.0958 45.9893 35.0743C46.0402 34.9576 46.0882 34.8395 46.1336 34.7202C46.2656 34.3711 46.3731 34.0113 46.4546 33.6433C46.4768 33.5429 46.4971 33.4419 46.5154 33.3403C46.5187 33.3219 46.522 33.3036 46.5252 33.2853C46.5284 33.2663 46.5316 33.2475 46.5347 33.2285C46.6051 32.8039 46.6413 32.37 46.6413 31.9307V31.6928V31.3697V31.1187V30.8959V30.8694L46.6415 30.8315C46.555 30.7727 46.4728 30.7062 46.3945 30.6331C46.0543 30.3148 45.7896 29.8697 45.5838 29.3726L45.4789 30.8959L45.4692 31.0361C45.4692 31.256 45.4604 31.4751 45.4429 31.6928C45.3765 32.5221 45.1851 33.3313 44.8799 34.0925C44.8797 34.0928 44.8796 34.093 44.8795 34.0933V34.7202L44.8792 34.0932C44.7938 34.3063 44.6993 34.5154 44.5963 34.7202C44.5361 34.8398 44.4729 34.9579 44.4069 35.0743C44.3947 35.0958 44.3824 35.1172 44.37 35.1386C44.3576 35.1601 44.345 35.1815 44.3323 35.2029C44.2615 35.3227 44.1875 35.4407 44.1105 35.5568C44.0715 35.6155 44.0317 35.6739 43.991 35.7316C43.7271 36.1066 43.4304 36.4606 43.1024 36.7882C43.09 36.8006 43.0776 36.813 43.0651 36.8253C42.801 37.0859 42.5171 37.3294 42.2143 37.5529C42.1265 37.6177 42.0373 37.6818 41.9464 37.7427C41.9144 37.7643 41.8829 37.7844 41.8524 37.806C41.3974 38.1061 40.9242 38.3667 40.4372 38.5869L40.4233 38.5932L40.4096 38.5993L40.3999 38.6037C39.8236 38.8615 39.2286 39.0632 38.6228 39.2085V39.2086C37.8371 39.3974 37.0322 39.4919 36.2283 39.4919C35.5472 39.4919 34.866 39.4244 34.1963 39.2891L35.4208 39.7825C35.4395 39.7871 35.4584 39.7915 35.4772 39.796C36.221 39.9718 36.9801 40.0597 37.7392 40.0597C38.0346 40.0597 38.3287 40.0463 38.6228 40.0198C39.2217 39.9657 39.8167 39.857 40.3999 39.6928V39.6931C41.0209 39.5187 41.6284 39.2819 42.2143 38.9825V38.9802C42.5161 38.8262 42.8125 38.6558 43.1024 38.4686C43.1569 38.4335 43.2111 38.3978 43.2651 38.3611C43.5197 38.1891 43.7618 38.0027 43.9912 37.8032C44.3141 37.5225 44.6109 37.2165 44.8799 36.889C45.2029 36.4957 45.4857 36.0713 45.7242 35.6225C45.7307 35.6103 45.7372 35.5981 45.744 35.5859H45.7436V35.5859Z" fill="#979BA4"/>
<path fill-rule="evenodd" clip-rule="evenodd" d="M33.6226 39.1547C33.624 39.1553 33.6254 39.156 33.6268 39.1566C33.6236 39.1558 33.6204 39.1549 33.6171 39.1541C34.2013 39.4239 34.8057 39.6331 35.4212 39.7824C34.9958 39.6534 34.5855 39.4898 34.1967 39.2895C34.1962 39.2892 34.1957 39.289 34.1953 39.2884C34.1936 39.288 34.192 39.2876 34.1903 39.2873C33.7322 39.0486 33.3045 38.7587 32.9194 38.415C32.8903 38.3905 32.8566 38.3715 32.8243 38.3525C31.7496 37.6244 30.8921 36.6595 30.2922 35.5566C30.2288 35.4401 30.1684 35.3222 30.1108 35.2028C30.1005 35.1814 30.0903 35.1599 30.0801 35.1385C30.0701 35.1171 30.0601 35.0956 30.0502 35.0742C29.9964 34.9574 29.9454 34.8393 29.8972 34.7201C29.7016 34.2364 29.5522 33.7332 29.4517 33.2173C29.3679 32.7875 29.3182 32.3489 29.3041 31.9056C29.3018 31.8347 29.3005 31.7637 29.3001 31.6927C29.3 31.6764 29.2999 31.6601 29.2999 31.6438V30.8957V30.0923C29.2999 30.0923 29.3076 29.9646 29.3214 29.739C29.2118 29.9133 29.0946 30.0944 28.9691 30.2836C28.9261 30.3485 28.882 30.4145 28.8369 30.4814V30.8957V30.9753V31.324V31.6737V31.6927V31.9305C28.8369 31.931 28.8369 31.9313 28.8369 31.9318C28.837 32.3527 28.8702 32.7683 28.9347 33.1754C28.9389 33.2021 28.9433 33.2288 28.9478 33.2555C28.9523 33.2818 28.9568 33.308 28.9615 33.3342C28.9787 33.4299 28.9976 33.5252 29.0183 33.6199C29.1004 33.9961 29.2095 34.3637 29.3443 34.7201C29.3895 34.8394 29.4375 34.9575 29.4883 35.0742C29.4977 35.0957 29.5071 35.1171 29.5167 35.1385C29.5263 35.1599 29.5359 35.1814 29.5457 35.2028C29.6004 35.3222 29.6581 35.4403 29.7186 35.5566C30.1851 36.4528 30.8254 37.2538 31.612 37.9089C31.8041 38.0685 32.0048 38.2193 32.2139 38.3607C32.2363 38.3765 32.2578 38.3909 32.2797 38.4059C32.2881 38.4114 32.2964 38.417 32.3048 38.4225C32.7306 38.7025 33.1711 38.9465 33.6226 39.1547V39.1547Z" fill="#DBE2D6"/>
<defs>
<linearGradient id="paint0_linear_405_596" x1="38.0009" y1="26.4892" x2="37.7658" y2="60.8079" gradientUnits="userSpaceOnUse">
<stop stop-color="#3F8CA2"/>
<stop offset="1" stop-color="#3F8CA2"/>
</linearGradient>
<linearGradient id="paint1_linear_405_596" x1="38.0016" y1="26.4893" x2="37.7665" y2="60.8094" gradientUnits="userSpaceOnUse">
<stop stop-color="#50E9A3"/>
<stop offset="1" stop-color="#50E9A3"/>
</linearGradient>
<linearGradient id="paint2_linear_405_596" x1="38.0007" y1="26.4897" x2="37.7656" y2="60.8082" gradientUnits="userSpaceOnUse">
<stop stop-color="#46A0B5"/>
<stop offset="1" stop-color="#46A0B5"/>
</linearGradient>
<linearGradient id="paint3_linear_405_596" x1="38.0006" y1="26.4894" x2="37.7654" y2="60.8081" gradientUnits="userSpaceOnUse">
<stop stop-color="#3B93B6"/>
<stop offset="1" stop-color="#3B93B6"/>
</linearGradient>
<linearGradient id="paint4_linear_405_596" x1="38.0031" y1="26.4894" x2="37.768" y2="60.8082" gradientUnits="userSpaceOnUse">
<stop stop-color="#2073B9"/>
<stop offset="1" stop-color="#2073B9"/>
</linearGradient>
</defs>
</svg>
