<svg width="128" height="128" viewBox="0 0 128 128" fill="none" xmlns="http://www.w3.org/2000/svg">
<path d="M86.5994 24.9998L89.5994 25.0998C90.6994 25.1998 91.7994 25.3998 92.9994 25.5998L90.4994 18.1998L75.6994 3.49983C72.2994 0.0998313 67.6994 -0.900168 65.2994 1.19983L29.1994 25.0998L86.5994 24.9998ZM92.6994 28.5998C91.4994 28.3998 90.3994 28.1998 89.3994 28.0998L86.4994 27.9998L30.4994 28.0998L109.099 106.7L115.199 92.8998L92.6994 28.5998V28.5998ZM28.8994 92.1998L93.1994 114.9L106.999 108.8L28.3994 30.1998V86.2998L28.4994 88.9998C28.4994 89.8998 28.5994 90.9998 28.8994 92.1998V92.1998Z" fill="#FFD717"/>
<path d="M106.9 34.2998C104.3 31.6998 99.8999 29.1998 95.5999 27.7998L118.4 92.9998L111.5 108.7L127.3 103.5V54.7998L106.9 34.2998ZM93.3999 118.1L28.3999 95.1998C29.7999 99.4998 32.1999 103.9 34.8999 106.6L56.1999 127.8L103.8 127.9L109.1 111.2L93.3999 118.1ZM25.4999 89.0998L25.3999 86.3998V28.8998L1.69989 65.0998C-0.400115 67.2998 0.699885 71.9998 3.99989 75.4998L18.6999 90.2998L25.9999 92.8998C25.6999 91.5998 25.4999 90.3998 25.4999 89.0998Z" fill="#FFD717"/>
</svg>
