<svg width="128" height="128" viewBox="0 0 128 128" fill="none" xmlns="http://www.w3.org/2000/svg">
<path d="M116.42 5.06982H11.5801C9.85617 5.06982 8.20287 5.75464 6.98388 6.97363C5.7649 8.19262 5.08008 9.84592 5.08008 11.5698V116.42C5.08008 118.144 5.7649 119.797 6.98388 121.016C8.20287 122.235 9.85617 122.92 11.5801 122.92H68.0001V77.2898H52.6601V59.4998H68.0001V46.3798C68.0001 31.1598 77.3001 22.8698 90.8801 22.8698C95.4627 22.8535 100.043 23.0872 104.6 23.5698V39.4798H95.2101C87.8201 39.4798 86.3901 42.9898 86.3901 48.1398V59.4998H104L101.71 77.2898H86.3901V122.93H116.39C118.113 122.927 119.765 122.242 120.983 121.023C122.202 119.805 122.887 118.153 122.89 116.43V11.5798C122.893 9.85937 122.213 8.20804 121 6.98775C119.788 5.76746 118.141 5.07776 116.42 5.06982V5.06982Z" fill="#FFD717"/>
</svg>
