<svg width="128" height="128" viewBox="0 0 128 128" fill="none" xmlns="http://www.w3.org/2000/svg">
<path d="M124.742 58.3778L69.6247 3.2638C66.4527 0.0898008 61.3047 0.0898008 58.1277 3.2638L46.6847 14.7098L61.2027 29.2278C64.5777 28.0888 68.4457 28.8528 71.1347 31.5418C72.4162 32.8244 73.3108 34.4418 73.7163 36.209C74.1218 37.9762 74.0218 39.8218 73.4277 41.5348L87.4197 55.5288C90.8047 54.3618 94.7117 55.1158 97.4137 57.8238C101.194 61.6008 101.194 67.7238 97.4137 71.5028C96.5154 72.4015 95.4489 73.1144 94.275 73.6009C93.1011 74.0873 91.8429 74.3376 90.5722 74.3376C89.3015 74.3376 88.0433 74.0873 86.8694 73.6009C85.6955 73.1144 84.629 72.4015 83.7307 71.5028C82.3811 70.1524 81.4611 68.4329 81.0865 66.5608C80.712 64.6886 80.8996 62.7475 81.6257 60.9818L68.5777 47.9328L68.5757 82.2738C69.5224 82.74 70.3867 83.3574 71.1347 84.1018C74.9137 87.8788 74.9137 93.9998 71.1347 97.7848C67.3557 101.562 61.2307 101.562 57.4557 97.7848C53.6777 94.0008 53.3677 87.8798 57.1447 84.1018C58.0787 83.1688 58.9997 82.4638 59.9997 81.9918V47.3328C58.9997 46.8608 58.0797 46.1608 57.1437 45.2218C54.2827 42.3618 53.7477 38.1618 55.2157 34.6458L40.9827 20.3328L3.2287 58.1228C0.0536954 61.2998 0.0736954 66.4478 3.2487 69.6228L58.3747 124.737C61.5477 127.911 66.6997 127.911 69.8777 124.737L124.738 69.8788C127.913 66.7028 127.916 61.5518 124.742 58.3778V58.3778Z" fill="#FFD717"/>
</svg>
